<?xml version="1.0" encoding="UTF-8"?>
<svg width="20px" height="20px" viewBox="0 0 407 427" version="1.1" xmlns="http://www.w3.org/2000/svg" xmlns:xlink="http://www.w3.org/1999/xlink">
    <!-- Generator: Sketch 54.1 (76490) - https://sketchapp.com -->
    <title>Oval 2</title>
    <desc>Created with Sketch.</desc>
    <defs>
        <polygon id="path-1" points="0 0 440 0 440 440 0 440"></polygon>
    </defs>
    <g id="Website" stroke="none" stroke-width="1" fill="none" fill-rule="evenodd">
        <g id="Desktop-HD-Copy" transform="translate(-165.000000, -383.000000)">
            <g id="Guests" transform="translate(143.000000, 121.000000)">
                <g id="Oval-2" transform="translate(0.000000, 249.000000)">
                    <mask id="mask-2" fill="white">
                        <use xlink:href="#path-1"></use>
                    </mask>
                    <g id="Duplicate-control"></g>
                    <circle id="Oval" fill="#DDDDDD" mask="url(#mask-2)" cx="27.5" cy="18.5" r="5.5"></circle>
                    <circle id="Oval" fill="#DDDDDD" mask="url(#mask-2)" cx="27.5" cy="40.5" r="5.5"></circle>
                    <circle id="Oval" fill="#DDDDDD" mask="url(#mask-2)" cx="27.5" cy="62.5" r="5.5"></circle>
                    <circle id="Oval" fill="#DDDDDD" mask="url(#mask-2)" cx="27.5" cy="84.5" r="5.5"></circle>
                    <circle id="Oval" fill="#DDDDDD" mask="url(#mask-2)" cx="27.5" cy="106.5" r="5.5"></circle>
                    <circle id="Oval" fill="#DDDDDD" mask="url(#mask-2)" cx="27.5" cy="128.5" r="5.5"></circle>
                    <circle id="Oval" fill="#DDDDDD" mask="url(#mask-2)" cx="27.5" cy="150.5" r="5.5"></circle>
                    <circle id="Oval" fill="#DDDDDD" mask="url(#mask-2)" cx="27.5" cy="172.5" r="5.5"></circle>
                    <circle id="Oval" fill="#DDDDDD" mask="url(#mask-2)" cx="27.5" cy="194.5" r="5.5"></circle>
                    <circle id="Oval" fill="#DDDDDD" mask="url(#mask-2)" cx="27.5" cy="216.5" r="5.5"></circle>
                    <circle id="Oval" fill="#DDDDDD" mask="url(#mask-2)" cx="27.5" cy="238.5" r="5.5"></circle>
                    <circle id="Oval" fill="#DDDDDD" mask="url(#mask-2)" cx="27.5" cy="260.5" r="5.5"></circle>
                    <circle id="Oval" fill="#DDDDDD" mask="url(#mask-2)" cx="27.5" cy="282.5" r="5.5"></circle>
                    <circle id="Oval" fill="#DDDDDD" mask="url(#mask-2)" cx="27.5" cy="304.5" r="5.5"></circle>
                    <circle id="Oval" fill="#DDDDDD" mask="url(#mask-2)" cx="27.5" cy="326.5" r="5.5"></circle>
                    <circle id="Oval" fill="#DDDDDD" mask="url(#mask-2)" cx="27.5" cy="348.5" r="5.5"></circle>
                    <circle id="Oval" fill="#DDDDDD" mask="url(#mask-2)" cx="27.5" cy="370.5" r="5.5"></circle>
                    <circle id="Oval" fill="#DDDDDD" mask="url(#mask-2)" cx="27.5" cy="392.5" r="5.5"></circle>
                    <circle id="Oval" fill="#DDDDDD" mask="url(#mask-2)" cx="27.5" cy="414.5" r="5.5"></circle>
                    <circle id="Oval" fill="#DDDDDD" mask="url(#mask-2)" cx="27.5" cy="436.5" r="5.5"></circle>
                    <circle id="Oval" fill="#DDDDDD" mask="url(#mask-2)" cx="49.5" cy="18.5" r="5.5"></circle>
                    <circle id="Oval" fill="#DDDDDD" mask="url(#mask-2)" cx="49.5" cy="40.5" r="5.5"></circle>
                    <circle id="Oval" fill="#DDDDDD" mask="url(#mask-2)" cx="49.5" cy="62.5" r="5.5"></circle>
                    <circle id="Oval" fill="#DDDDDD" mask="url(#mask-2)" cx="49.5" cy="84.5" r="5.5"></circle>
                    <circle id="Oval" fill="#DDDDDD" mask="url(#mask-2)" cx="49.5" cy="106.5" r="5.5"></circle>
                    <circle id="Oval" fill="#DDDDDD" mask="url(#mask-2)" cx="49.5" cy="128.5" r="5.5"></circle>
                    <circle id="Oval" fill="#DDDDDD" mask="url(#mask-2)" cx="49.5" cy="150.5" r="5.5"></circle>
                    <circle id="Oval" fill="#DDDDDD" mask="url(#mask-2)" cx="49.5" cy="172.5" r="5.5"></circle>
                    <circle id="Oval" fill="#DDDDDD" mask="url(#mask-2)" cx="49.5" cy="194.5" r="5.5"></circle>
                    <circle id="Oval" fill="#DDDDDD" mask="url(#mask-2)" cx="49.5" cy="216.5" r="5.5"></circle>
                    <circle id="Oval" fill="#DDDDDD" mask="url(#mask-2)" cx="49.5" cy="238.5" r="5.5"></circle>
                    <circle id="Oval" fill="#DDDDDD" mask="url(#mask-2)" cx="49.5" cy="260.5" r="5.5"></circle>
                    <circle id="Oval" fill="#DDDDDD" mask="url(#mask-2)" cx="49.5" cy="282.5" r="5.5"></circle>
                    <circle id="Oval" fill="#DDDDDD" mask="url(#mask-2)" cx="49.5" cy="304.5" r="5.5"></circle>
                    <circle id="Oval" fill="#DDDDDD" mask="url(#mask-2)" cx="49.5" cy="326.5" r="5.5"></circle>
                    <circle id="Oval" fill="#DDDDDD" mask="url(#mask-2)" cx="49.5" cy="348.5" r="5.5"></circle>
                    <circle id="Oval" fill="#DDDDDD" mask="url(#mask-2)" cx="49.5" cy="370.5" r="5.5"></circle>
                    <circle id="Oval" fill="#DDDDDD" mask="url(#mask-2)" cx="49.5" cy="392.5" r="5.5"></circle>
                    <circle id="Oval" fill="#DDDDDD" mask="url(#mask-2)" cx="49.5" cy="414.5" r="5.5"></circle>
                    <circle id="Oval" fill="#DDDDDD" mask="url(#mask-2)" cx="49.5" cy="436.5" r="5.5"></circle>
                    <circle id="Oval" fill="#DDDDDD" mask="url(#mask-2)" cx="71.5" cy="18.5" r="5.5"></circle>
                    <circle id="Oval" fill="#DDDDDD" mask="url(#mask-2)" cx="71.5" cy="40.5" r="5.5"></circle>
                    <circle id="Oval" fill="#DDDDDD" mask="url(#mask-2)" cx="71.5" cy="62.5" r="5.5"></circle>
                    <circle id="Oval" fill="#DDDDDD" mask="url(#mask-2)" cx="71.5" cy="84.5" r="5.5"></circle>
                    <circle id="Oval" fill="#DDDDDD" mask="url(#mask-2)" cx="71.5" cy="106.5" r="5.5"></circle>
                    <circle id="Oval" fill="#DDDDDD" mask="url(#mask-2)" cx="71.5" cy="128.5" r="5.5"></circle>
                    <circle id="Oval" fill="#DDDDDD" mask="url(#mask-2)" cx="71.5" cy="150.5" r="5.5"></circle>
                    <circle id="Oval" fill="#DDDDDD" mask="url(#mask-2)" cx="71.5" cy="172.5" r="5.5"></circle>
                    <circle id="Oval" fill="#DDDDDD" mask="url(#mask-2)" cx="71.5" cy="194.5" r="5.5"></circle>
                    <circle id="Oval" fill="#DDDDDD" mask="url(#mask-2)" cx="71.5" cy="216.5" r="5.5"></circle>
                    <circle id="Oval" fill="#DDDDDD" mask="url(#mask-2)" cx="71.5" cy="238.5" r="5.5"></circle>
                    <circle id="Oval" fill="#DDDDDD" mask="url(#mask-2)" cx="71.5" cy="260.5" r="5.5"></circle>
                    <circle id="Oval" fill="#DDDDDD" mask="url(#mask-2)" cx="71.5" cy="282.5" r="5.5"></circle>
                    <circle id="Oval" fill="#DDDDDD" mask="url(#mask-2)" cx="71.5" cy="304.5" r="5.5"></circle>
                    <circle id="Oval" fill="#DDDDDD" mask="url(#mask-2)" cx="71.5" cy="326.5" r="5.5"></circle>
                    <circle id="Oval" fill="#DDDDDD" mask="url(#mask-2)" cx="71.5" cy="348.5" r="5.5"></circle>
                    <circle id="Oval" fill="#DDDDDD" mask="url(#mask-2)" cx="71.5" cy="370.5" r="5.5"></circle>
                    <circle id="Oval" fill="#DDDDDD" mask="url(#mask-2)" cx="71.5" cy="392.5" r="5.5"></circle>
                    <circle id="Oval" fill="#DDDDDD" mask="url(#mask-2)" cx="71.5" cy="414.5" r="5.5"></circle>
                    <circle id="Oval" fill="#DDDDDD" mask="url(#mask-2)" cx="71.5" cy="436.5" r="5.5"></circle>
                    <circle id="Oval" fill="#DDDDDD" mask="url(#mask-2)" cx="93.5" cy="18.5" r="5.5"></circle>
                    <circle id="Oval" fill="#DDDDDD" mask="url(#mask-2)" cx="93.5" cy="40.5" r="5.5"></circle>
                    <circle id="Oval" fill="#DDDDDD" mask="url(#mask-2)" cx="93.5" cy="62.5" r="5.5"></circle>
                    <circle id="Oval" fill="#DDDDDD" mask="url(#mask-2)" cx="93.5" cy="84.5" r="5.5"></circle>
                    <circle id="Oval" fill="#DDDDDD" mask="url(#mask-2)" cx="93.5" cy="106.5" r="5.5"></circle>
                    <circle id="Oval" fill="#DDDDDD" mask="url(#mask-2)" cx="93.5" cy="128.5" r="5.5"></circle>
                    <circle id="Oval" fill="#DDDDDD" mask="url(#mask-2)" cx="93.5" cy="150.5" r="5.5"></circle>
                    <circle id="Oval" fill="#DDDDDD" mask="url(#mask-2)" cx="93.5" cy="172.5" r="5.5"></circle>
                    <circle id="Oval" fill="#DDDDDD" mask="url(#mask-2)" cx="93.5" cy="194.5" r="5.5"></circle>
                    <circle id="Oval" fill="#DDDDDD" mask="url(#mask-2)" cx="93.5" cy="216.5" r="5.5"></circle>
                    <circle id="Oval" fill="#DDDDDD" mask="url(#mask-2)" cx="93.5" cy="238.5" r="5.5"></circle>
                    <circle id="Oval" fill="#DDDDDD" mask="url(#mask-2)" cx="93.5" cy="260.5" r="5.5"></circle>
                    <circle id="Oval" fill="#DDDDDD" mask="url(#mask-2)" cx="93.5" cy="282.5" r="5.5"></circle>
                    <circle id="Oval" fill="#DDDDDD" mask="url(#mask-2)" cx="93.5" cy="304.5" r="5.5"></circle>
                    <circle id="Oval" fill="#DDDDDD" mask="url(#mask-2)" cx="93.5" cy="326.5" r="5.5"></circle>
                    <circle id="Oval" fill="#DDDDDD" mask="url(#mask-2)" cx="93.5" cy="348.5" r="5.5"></circle>
                    <circle id="Oval" fill="#DDDDDD" mask="url(#mask-2)" cx="93.5" cy="370.5" r="5.5"></circle>
                    <circle id="Oval" fill="#DDDDDD" mask="url(#mask-2)" cx="93.5" cy="392.5" r="5.5"></circle>
                    <circle id="Oval" fill="#DDDDDD" mask="url(#mask-2)" cx="93.5" cy="414.5" r="5.5"></circle>
                    <circle id="Oval" fill="#DDDDDD" mask="url(#mask-2)" cx="93.5" cy="436.5" r="5.5"></circle>
                    <circle id="Oval" fill="#DDDDDD" mask="url(#mask-2)" cx="115.5" cy="18.5" r="5.5"></circle>
                    <circle id="Oval" fill="#DDDDDD" mask="url(#mask-2)" cx="115.5" cy="40.5" r="5.5"></circle>
                    <circle id="Oval" fill="#DDDDDD" mask="url(#mask-2)" cx="115.5" cy="62.5" r="5.5"></circle>
                    <circle id="Oval" fill="#DDDDDD" mask="url(#mask-2)" cx="115.5" cy="84.5" r="5.5"></circle>
                    <circle id="Oval" fill="#DDDDDD" mask="url(#mask-2)" cx="115.5" cy="106.5" r="5.5"></circle>
                    <circle id="Oval" fill="#DDDDDD" mask="url(#mask-2)" cx="115.5" cy="128.5" r="5.5"></circle>
                    <circle id="Oval" fill="#DDDDDD" mask="url(#mask-2)" cx="115.5" cy="150.5" r="5.5"></circle>
                    <circle id="Oval" fill="#DDDDDD" mask="url(#mask-2)" cx="115.5" cy="172.5" r="5.5"></circle>
                    <circle id="Oval" fill="#DDDDDD" mask="url(#mask-2)" cx="115.5" cy="194.5" r="5.5"></circle>
                    <circle id="Oval" fill="#DDDDDD" mask="url(#mask-2)" cx="115.5" cy="216.5" r="5.5"></circle>
                    <circle id="Oval" fill="#DDDDDD" mask="url(#mask-2)" cx="115.5" cy="238.5" r="5.5"></circle>
                    <circle id="Oval" fill="#DDDDDD" mask="url(#mask-2)" cx="115.5" cy="260.5" r="5.5"></circle>
                    <circle id="Oval" fill="#DDDDDD" mask="url(#mask-2)" cx="115.5" cy="282.5" r="5.5"></circle>
                    <circle id="Oval" fill="#DDDDDD" mask="url(#mask-2)" cx="115.5" cy="304.5" r="5.5"></circle>
                    <circle id="Oval" fill="#DDDDDD" mask="url(#mask-2)" cx="115.5" cy="326.5" r="5.5"></circle>
                    <circle id="Oval" fill="#DDDDDD" mask="url(#mask-2)" cx="115.5" cy="348.5" r="5.5"></circle>
                    <circle id="Oval" fill="#DDDDDD" mask="url(#mask-2)" cx="115.5" cy="370.5" r="5.5"></circle>
                    <circle id="Oval" fill="#DDDDDD" mask="url(#mask-2)" cx="115.5" cy="392.5" r="5.5"></circle>
                    <circle id="Oval" fill="#DDDDDD" mask="url(#mask-2)" cx="115.5" cy="414.5" r="5.5"></circle>
                    <circle id="Oval" fill="#DDDDDD" mask="url(#mask-2)" cx="115.5" cy="436.5" r="5.5"></circle>
                    <circle id="Oval" fill="#DDDDDD" mask="url(#mask-2)" cx="137.5" cy="18.5" r="5.5"></circle>
                    <circle id="Oval" fill="#DDDDDD" mask="url(#mask-2)" cx="137.5" cy="40.5" r="5.5"></circle>
                    <circle id="Oval" fill="#DDDDDD" mask="url(#mask-2)" cx="137.5" cy="62.5" r="5.5"></circle>
                    <circle id="Oval" fill="#DDDDDD" mask="url(#mask-2)" cx="137.5" cy="84.5" r="5.5"></circle>
                    <circle id="Oval" fill="#DDDDDD" mask="url(#mask-2)" cx="137.5" cy="106.5" r="5.5"></circle>
                    <circle id="Oval" fill="#DDDDDD" mask="url(#mask-2)" cx="137.5" cy="128.5" r="5.5"></circle>
                    <circle id="Oval" fill="#DDDDDD" mask="url(#mask-2)" cx="137.5" cy="150.5" r="5.5"></circle>
                    <circle id="Oval" fill="#DDDDDD" mask="url(#mask-2)" cx="137.5" cy="172.5" r="5.5"></circle>
                    <circle id="Oval" fill="#DDDDDD" mask="url(#mask-2)" cx="137.5" cy="194.5" r="5.5"></circle>
                    <circle id="Oval" fill="#DDDDDD" mask="url(#mask-2)" cx="137.5" cy="216.5" r="5.5"></circle>
                    <circle id="Oval" fill="#DDDDDD" mask="url(#mask-2)" cx="137.5" cy="238.5" r="5.5"></circle>
                    <circle id="Oval" fill="#DDDDDD" mask="url(#mask-2)" cx="137.5" cy="260.5" r="5.5"></circle>
                    <circle id="Oval" fill="#DDDDDD" mask="url(#mask-2)" cx="137.5" cy="282.5" r="5.5"></circle>
                    <circle id="Oval" fill="#DDDDDD" mask="url(#mask-2)" cx="137.5" cy="304.5" r="5.5"></circle>
                    <circle id="Oval" fill="#DDDDDD" mask="url(#mask-2)" cx="137.5" cy="326.5" r="5.5"></circle>
                    <circle id="Oval" fill="#DDDDDD" mask="url(#mask-2)" cx="137.5" cy="348.5" r="5.5"></circle>
                    <circle id="Oval" fill="#DDDDDD" mask="url(#mask-2)" cx="137.5" cy="370.5" r="5.5"></circle>
                    <circle id="Oval" fill="#DDDDDD" mask="url(#mask-2)" cx="137.5" cy="392.5" r="5.5"></circle>
                    <circle id="Oval" fill="#DDDDDD" mask="url(#mask-2)" cx="137.5" cy="414.5" r="5.5"></circle>
                    <circle id="Oval" fill="#DDDDDD" mask="url(#mask-2)" cx="137.5" cy="436.5" r="5.5"></circle>
                    <circle id="Oval" fill="#DDDDDD" mask="url(#mask-2)" cx="159.5" cy="18.5" r="5.5"></circle>
                    <circle id="Oval" fill="#DDDDDD" mask="url(#mask-2)" cx="159.5" cy="40.5" r="5.5"></circle>
                    <circle id="Oval" fill="#DDDDDD" mask="url(#mask-2)" cx="159.5" cy="62.5" r="5.5"></circle>
                    <circle id="Oval" fill="#DDDDDD" mask="url(#mask-2)" cx="159.5" cy="84.5" r="5.5"></circle>
                    <circle id="Oval" fill="#DDDDDD" mask="url(#mask-2)" cx="159.5" cy="106.5" r="5.5"></circle>
                    <circle id="Oval" fill="#DDDDDD" mask="url(#mask-2)" cx="159.5" cy="128.5" r="5.5"></circle>
                    <circle id="Oval" fill="#DDDDDD" mask="url(#mask-2)" cx="159.5" cy="150.5" r="5.5"></circle>
                    <circle id="Oval" fill="#DDDDDD" mask="url(#mask-2)" cx="159.5" cy="172.5" r="5.5"></circle>
                    <circle id="Oval" fill="#DDDDDD" mask="url(#mask-2)" cx="159.5" cy="194.5" r="5.5"></circle>
                    <circle id="Oval" fill="#DDDDDD" mask="url(#mask-2)" cx="159.5" cy="216.5" r="5.5"></circle>
                    <circle id="Oval" fill="#DDDDDD" mask="url(#mask-2)" cx="159.5" cy="238.5" r="5.5"></circle>
                    <circle id="Oval" fill="#DDDDDD" mask="url(#mask-2)" cx="159.5" cy="260.5" r="5.5"></circle>
                    <circle id="Oval" fill="#DDDDDD" mask="url(#mask-2)" cx="159.5" cy="282.5" r="5.5"></circle>
                    <circle id="Oval" fill="#DDDDDD" mask="url(#mask-2)" cx="159.5" cy="304.5" r="5.5"></circle>
                    <circle id="Oval" fill="#DDDDDD" mask="url(#mask-2)" cx="159.5" cy="326.5" r="5.5"></circle>
                    <circle id="Oval" fill="#DDDDDD" mask="url(#mask-2)" cx="159.5" cy="348.5" r="5.5"></circle>
                    <circle id="Oval" fill="#DDDDDD" mask="url(#mask-2)" cx="159.5" cy="370.5" r="5.5"></circle>
                    <circle id="Oval" fill="#DDDDDD" mask="url(#mask-2)" cx="159.5" cy="392.5" r="5.5"></circle>
                    <circle id="Oval" fill="#DDDDDD" mask="url(#mask-2)" cx="159.5" cy="414.5" r="5.5"></circle>
                    <circle id="Oval" fill="#DDDDDD" mask="url(#mask-2)" cx="159.5" cy="436.5" r="5.5"></circle>
                    <circle id="Oval" fill="#DDDDDD" mask="url(#mask-2)" cx="181.5" cy="18.5" r="5.5"></circle>
                    <circle id="Oval" fill="#DDDDDD" mask="url(#mask-2)" cx="181.5" cy="40.5" r="5.5"></circle>
                    <circle id="Oval" fill="#DDDDDD" mask="url(#mask-2)" cx="181.5" cy="62.5" r="5.5"></circle>
                    <circle id="Oval" fill="#DDDDDD" mask="url(#mask-2)" cx="181.5" cy="84.5" r="5.5"></circle>
                    <circle id="Oval" fill="#DDDDDD" mask="url(#mask-2)" cx="181.5" cy="106.5" r="5.5"></circle>
                    <circle id="Oval" fill="#DDDDDD" mask="url(#mask-2)" cx="181.5" cy="128.5" r="5.5"></circle>
                    <circle id="Oval" fill="#DDDDDD" mask="url(#mask-2)" cx="181.5" cy="150.5" r="5.5"></circle>
                    <circle id="Oval" fill="#DDDDDD" mask="url(#mask-2)" cx="181.5" cy="172.5" r="5.5"></circle>
                    <circle id="Oval" fill="#DDDDDD" mask="url(#mask-2)" cx="181.5" cy="194.5" r="5.5"></circle>
                    <circle id="Oval" fill="#DDDDDD" mask="url(#mask-2)" cx="181.5" cy="216.5" r="5.5"></circle>
                    <circle id="Oval" fill="#DDDDDD" mask="url(#mask-2)" cx="181.5" cy="238.5" r="5.5"></circle>
                    <circle id="Oval" fill="#DDDDDD" mask="url(#mask-2)" cx="181.5" cy="260.5" r="5.5"></circle>
                    <circle id="Oval" fill="#DDDDDD" mask="url(#mask-2)" cx="181.5" cy="282.5" r="5.5"></circle>
                    <circle id="Oval" fill="#DDDDDD" mask="url(#mask-2)" cx="181.5" cy="304.5" r="5.5"></circle>
                    <circle id="Oval" fill="#DDDDDD" mask="url(#mask-2)" cx="181.5" cy="326.5" r="5.5"></circle>
                    <circle id="Oval" fill="#DDDDDD" mask="url(#mask-2)" cx="181.5" cy="348.5" r="5.5"></circle>
                    <circle id="Oval" fill="#DDDDDD" mask="url(#mask-2)" cx="181.5" cy="370.5" r="5.5"></circle>
                    <circle id="Oval" fill="#DDDDDD" mask="url(#mask-2)" cx="181.5" cy="392.5" r="5.5"></circle>
                    <circle id="Oval" fill="#DDDDDD" mask="url(#mask-2)" cx="181.5" cy="414.5" r="5.5"></circle>
                    <circle id="Oval" fill="#DDDDDD" mask="url(#mask-2)" cx="181.5" cy="436.5" r="5.5"></circle>
                    <circle id="Oval" fill="#DDDDDD" mask="url(#mask-2)" cx="203.5" cy="18.5" r="5.5"></circle>
                    <circle id="Oval" fill="#DDDDDD" mask="url(#mask-2)" cx="203.5" cy="40.5" r="5.5"></circle>
                    <circle id="Oval" fill="#DDDDDD" mask="url(#mask-2)" cx="203.5" cy="62.5" r="5.5"></circle>
                    <circle id="Oval" fill="#DDDDDD" mask="url(#mask-2)" cx="203.5" cy="84.5" r="5.5"></circle>
                    <circle id="Oval" fill="#DDDDDD" mask="url(#mask-2)" cx="203.5" cy="106.5" r="5.5"></circle>
                    <circle id="Oval" fill="#DDDDDD" mask="url(#mask-2)" cx="203.5" cy="128.5" r="5.5"></circle>
                    <circle id="Oval" fill="#DDDDDD" mask="url(#mask-2)" cx="203.5" cy="150.5" r="5.5"></circle>
                    <circle id="Oval" fill="#DDDDDD" mask="url(#mask-2)" cx="203.5" cy="172.5" r="5.5"></circle>
                    <circle id="Oval" fill="#DDDDDD" mask="url(#mask-2)" cx="203.5" cy="194.5" r="5.5"></circle>
                    <circle id="Oval" fill="#DDDDDD" mask="url(#mask-2)" cx="203.5" cy="216.5" r="5.5"></circle>
                    <circle id="Oval" fill="#DDDDDD" mask="url(#mask-2)" cx="203.5" cy="238.5" r="5.5"></circle>
                    <circle id="Oval" fill="#DDDDDD" mask="url(#mask-2)" cx="203.5" cy="260.5" r="5.5"></circle>
                    <circle id="Oval" fill="#DDDDDD" mask="url(#mask-2)" cx="203.5" cy="282.5" r="5.5"></circle>
                    <circle id="Oval" fill="#DDDDDD" mask="url(#mask-2)" cx="203.5" cy="304.5" r="5.5"></circle>
                    <circle id="Oval" fill="#DDDDDD" mask="url(#mask-2)" cx="203.5" cy="326.5" r="5.5"></circle>
                    <circle id="Oval" fill="#DDDDDD" mask="url(#mask-2)" cx="203.5" cy="348.5" r="5.5"></circle>
                    <circle id="Oval" fill="#DDDDDD" mask="url(#mask-2)" cx="203.5" cy="370.5" r="5.5"></circle>
                    <circle id="Oval" fill="#DDDDDD" mask="url(#mask-2)" cx="203.5" cy="392.5" r="5.5"></circle>
                    <circle id="Oval" fill="#DDDDDD" mask="url(#mask-2)" cx="203.5" cy="414.5" r="5.5"></circle>
                    <circle id="Oval" fill="#DDDDDD" mask="url(#mask-2)" cx="203.5" cy="436.5" r="5.5"></circle>
                    <circle id="Oval" fill="#DDDDDD" mask="url(#mask-2)" cx="225.5" cy="18.5" r="5.5"></circle>
                    <circle id="Oval" fill="#DDDDDD" mask="url(#mask-2)" cx="225.5" cy="40.5" r="5.5"></circle>
                    <circle id="Oval" fill="#DDDDDD" mask="url(#mask-2)" cx="225.5" cy="62.5" r="5.5"></circle>
                    <circle id="Oval" fill="#DDDDDD" mask="url(#mask-2)" cx="225.5" cy="84.5" r="5.5"></circle>
                    <circle id="Oval" fill="#DDDDDD" mask="url(#mask-2)" cx="225.5" cy="106.5" r="5.5"></circle>
                    <circle id="Oval" fill="#DDDDDD" mask="url(#mask-2)" cx="225.5" cy="128.5" r="5.5"></circle>
                    <circle id="Oval" fill="#DDDDDD" mask="url(#mask-2)" cx="225.5" cy="150.5" r="5.5"></circle>
                    <circle id="Oval" fill="#DDDDDD" mask="url(#mask-2)" cx="225.5" cy="172.5" r="5.5"></circle>
                    <circle id="Oval" fill="#DDDDDD" mask="url(#mask-2)" cx="225.5" cy="194.5" r="5.5"></circle>
                    <circle id="Oval" fill="#DDDDDD" mask="url(#mask-2)" cx="225.5" cy="216.5" r="5.5"></circle>
                    <circle id="Oval" fill="#DDDDDD" mask="url(#mask-2)" cx="225.5" cy="238.5" r="5.5"></circle>
                    <circle id="Oval" fill="#DDDDDD" mask="url(#mask-2)" cx="225.5" cy="260.5" r="5.5"></circle>
                    <circle id="Oval" fill="#DDDDDD" mask="url(#mask-2)" cx="225.5" cy="282.5" r="5.5"></circle>
                    <circle id="Oval" fill="#DDDDDD" mask="url(#mask-2)" cx="225.5" cy="304.5" r="5.5"></circle>
                    <circle id="Oval" fill="#DDDDDD" mask="url(#mask-2)" cx="225.5" cy="326.5" r="5.5"></circle>
                    <circle id="Oval" fill="#DDDDDD" mask="url(#mask-2)" cx="225.5" cy="348.5" r="5.5"></circle>
                    <circle id="Oval" fill="#DDDDDD" mask="url(#mask-2)" cx="225.5" cy="370.5" r="5.5"></circle>
                    <circle id="Oval" fill="#DDDDDD" mask="url(#mask-2)" cx="225.5" cy="392.5" r="5.5"></circle>
                    <circle id="Oval" fill="#DDDDDD" mask="url(#mask-2)" cx="225.5" cy="414.5" r="5.5"></circle>
                    <circle id="Oval" fill="#DDDDDD" mask="url(#mask-2)" cx="225.5" cy="436.5" r="5.5"></circle>
                    <circle id="Oval" fill="#DDDDDD" mask="url(#mask-2)" cx="247.5" cy="18.5" r="5.5"></circle>
                    <circle id="Oval" fill="#DDDDDD" mask="url(#mask-2)" cx="247.5" cy="40.5" r="5.5"></circle>
                    <circle id="Oval" fill="#DDDDDD" mask="url(#mask-2)" cx="247.5" cy="62.5" r="5.5"></circle>
                    <circle id="Oval" fill="#DDDDDD" mask="url(#mask-2)" cx="247.5" cy="84.5" r="5.5"></circle>
                    <circle id="Oval" fill="#DDDDDD" mask="url(#mask-2)" cx="247.5" cy="106.5" r="5.5"></circle>
                    <circle id="Oval" fill="#DDDDDD" mask="url(#mask-2)" cx="247.5" cy="128.5" r="5.5"></circle>
                    <circle id="Oval" fill="#DDDDDD" mask="url(#mask-2)" cx="247.5" cy="150.5" r="5.5"></circle>
                    <circle id="Oval" fill="#DDDDDD" mask="url(#mask-2)" cx="247.5" cy="172.5" r="5.5"></circle>
                    <circle id="Oval" fill="#DDDDDD" mask="url(#mask-2)" cx="247.5" cy="194.5" r="5.5"></circle>
                    <circle id="Oval" fill="#DDDDDD" mask="url(#mask-2)" cx="247.5" cy="216.5" r="5.5"></circle>
                    <circle id="Oval" fill="#DDDDDD" mask="url(#mask-2)" cx="247.5" cy="238.5" r="5.5"></circle>
                    <circle id="Oval" fill="#DDDDDD" mask="url(#mask-2)" cx="247.5" cy="260.5" r="5.5"></circle>
                    <circle id="Oval" fill="#DDDDDD" mask="url(#mask-2)" cx="247.5" cy="282.5" r="5.5"></circle>
                    <circle id="Oval" fill="#DDDDDD" mask="url(#mask-2)" cx="247.5" cy="304.5" r="5.5"></circle>
                    <circle id="Oval" fill="#DDDDDD" mask="url(#mask-2)" cx="247.5" cy="326.5" r="5.5"></circle>
                    <circle id="Oval" fill="#DDDDDD" mask="url(#mask-2)" cx="247.5" cy="348.5" r="5.5"></circle>
                    <circle id="Oval" fill="#DDDDDD" mask="url(#mask-2)" cx="247.5" cy="370.5" r="5.5"></circle>
                    <circle id="Oval" fill="#DDDDDD" mask="url(#mask-2)" cx="247.5" cy="392.5" r="5.5"></circle>
                    <circle id="Oval" fill="#DDDDDD" mask="url(#mask-2)" cx="247.5" cy="414.5" r="5.5"></circle>
                    <circle id="Oval" fill="#DDDDDD" mask="url(#mask-2)" cx="247.5" cy="436.5" r="5.5"></circle>
                    <circle id="Oval" fill="#DDDDDD" mask="url(#mask-2)" cx="269.5" cy="18.5" r="5.5"></circle>
                    <circle id="Oval" fill="#DDDDDD" mask="url(#mask-2)" cx="269.5" cy="40.5" r="5.5"></circle>
                    <circle id="Oval" fill="#DDDDDD" mask="url(#mask-2)" cx="269.5" cy="62.5" r="5.5"></circle>
                    <circle id="Oval" fill="#DDDDDD" mask="url(#mask-2)" cx="269.5" cy="84.5" r="5.5"></circle>
                    <circle id="Oval" fill="#DDDDDD" mask="url(#mask-2)" cx="269.5" cy="106.5" r="5.5"></circle>
                    <circle id="Oval" fill="#DDDDDD" mask="url(#mask-2)" cx="269.5" cy="128.5" r="5.5"></circle>
                    <circle id="Oval" fill="#DDDDDD" mask="url(#mask-2)" cx="269.5" cy="150.5" r="5.5"></circle>
                    <circle id="Oval" fill="#DDDDDD" mask="url(#mask-2)" cx="269.5" cy="172.5" r="5.5"></circle>
                    <circle id="Oval" fill="#DDDDDD" mask="url(#mask-2)" cx="269.5" cy="194.5" r="5.5"></circle>
                    <circle id="Oval" fill="#DDDDDD" mask="url(#mask-2)" cx="269.5" cy="216.5" r="5.5"></circle>
                    <circle id="Oval" fill="#DDDDDD" mask="url(#mask-2)" cx="269.5" cy="238.5" r="5.5"></circle>
                    <circle id="Oval" fill="#DDDDDD" mask="url(#mask-2)" cx="269.5" cy="260.5" r="5.5"></circle>
                    <circle id="Oval" fill="#DDDDDD" mask="url(#mask-2)" cx="269.5" cy="282.5" r="5.5"></circle>
                    <circle id="Oval" fill="#DDDDDD" mask="url(#mask-2)" cx="269.5" cy="304.5" r="5.5"></circle>
                    <circle id="Oval" fill="#DDDDDD" mask="url(#mask-2)" cx="269.5" cy="326.5" r="5.5"></circle>
                    <circle id="Oval" fill="#DDDDDD" mask="url(#mask-2)" cx="269.5" cy="348.5" r="5.5"></circle>
                    <circle id="Oval" fill="#DDDDDD" mask="url(#mask-2)" cx="269.5" cy="370.5" r="5.5"></circle>
                    <circle id="Oval" fill="#DDDDDD" mask="url(#mask-2)" cx="269.5" cy="392.5" r="5.5"></circle>
                    <circle id="Oval" fill="#DDDDDD" mask="url(#mask-2)" cx="269.5" cy="414.5" r="5.5"></circle>
                    <circle id="Oval" fill="#DDDDDD" mask="url(#mask-2)" cx="269.5" cy="436.5" r="5.5"></circle>
                    <circle id="Oval" fill="#DDDDDD" mask="url(#mask-2)" cx="291.5" cy="18.5" r="5.5"></circle>
                    <circle id="Oval" fill="#DDDDDD" mask="url(#mask-2)" cx="291.5" cy="40.5" r="5.5"></circle>
                    <circle id="Oval" fill="#DDDDDD" mask="url(#mask-2)" cx="291.5" cy="62.5" r="5.5"></circle>
                    <circle id="Oval" fill="#DDDDDD" mask="url(#mask-2)" cx="291.5" cy="84.5" r="5.5"></circle>
                    <circle id="Oval" fill="#DDDDDD" mask="url(#mask-2)" cx="291.5" cy="106.5" r="5.5"></circle>
                    <circle id="Oval" fill="#DDDDDD" mask="url(#mask-2)" cx="291.5" cy="128.5" r="5.5"></circle>
                    <circle id="Oval" fill="#DDDDDD" mask="url(#mask-2)" cx="291.5" cy="150.5" r="5.5"></circle>
                    <circle id="Oval" fill="#DDDDDD" mask="url(#mask-2)" cx="291.5" cy="172.5" r="5.5"></circle>
                    <circle id="Oval" fill="#DDDDDD" mask="url(#mask-2)" cx="291.5" cy="194.5" r="5.5"></circle>
                    <circle id="Oval" fill="#DDDDDD" mask="url(#mask-2)" cx="291.5" cy="216.5" r="5.5"></circle>
                    <circle id="Oval" fill="#DDDDDD" mask="url(#mask-2)" cx="291.5" cy="238.5" r="5.5"></circle>
                    <circle id="Oval" fill="#DDDDDD" mask="url(#mask-2)" cx="291.5" cy="260.5" r="5.5"></circle>
                    <circle id="Oval" fill="#DDDDDD" mask="url(#mask-2)" cx="291.5" cy="282.5" r="5.5"></circle>
                    <circle id="Oval" fill="#DDDDDD" mask="url(#mask-2)" cx="291.5" cy="304.5" r="5.5"></circle>
                    <circle id="Oval" fill="#DDDDDD" mask="url(#mask-2)" cx="291.5" cy="326.5" r="5.5"></circle>
                    <circle id="Oval" fill="#DDDDDD" mask="url(#mask-2)" cx="291.5" cy="348.5" r="5.5"></circle>
                    <circle id="Oval" fill="#DDDDDD" mask="url(#mask-2)" cx="291.5" cy="370.5" r="5.5"></circle>
                    <circle id="Oval" fill="#DDDDDD" mask="url(#mask-2)" cx="291.5" cy="392.5" r="5.5"></circle>
                    <circle id="Oval" fill="#DDDDDD" mask="url(#mask-2)" cx="291.5" cy="414.5" r="5.5"></circle>
                    <circle id="Oval" fill="#DDDDDD" mask="url(#mask-2)" cx="291.5" cy="436.5" r="5.5"></circle>
                    <circle id="Oval" fill="#DDDDDD" mask="url(#mask-2)" cx="313.5" cy="18.5" r="5.5"></circle>
                    <circle id="Oval" fill="#DDDDDD" mask="url(#mask-2)" cx="313.5" cy="40.5" r="5.5"></circle>
                    <circle id="Oval" fill="#DDDDDD" mask="url(#mask-2)" cx="313.5" cy="62.5" r="5.5"></circle>
                    <circle id="Oval" fill="#DDDDDD" mask="url(#mask-2)" cx="313.5" cy="84.5" r="5.5"></circle>
                    <circle id="Oval" fill="#DDDDDD" mask="url(#mask-2)" cx="313.5" cy="106.5" r="5.5"></circle>
                    <circle id="Oval" fill="#DDDDDD" mask="url(#mask-2)" cx="313.5" cy="128.5" r="5.5"></circle>
                    <circle id="Oval" fill="#DDDDDD" mask="url(#mask-2)" cx="313.5" cy="150.5" r="5.5"></circle>
                    <circle id="Oval" fill="#DDDDDD" mask="url(#mask-2)" cx="313.5" cy="172.5" r="5.5"></circle>
                    <circle id="Oval" fill="#DDDDDD" mask="url(#mask-2)" cx="313.5" cy="194.5" r="5.5"></circle>
                    <circle id="Oval" fill="#DDDDDD" mask="url(#mask-2)" cx="313.5" cy="216.5" r="5.5"></circle>
                    <circle id="Oval" fill="#DDDDDD" mask="url(#mask-2)" cx="313.5" cy="238.5" r="5.5"></circle>
                    <circle id="Oval" fill="#DDDDDD" mask="url(#mask-2)" cx="313.5" cy="260.5" r="5.5"></circle>
                    <circle id="Oval" fill="#DDDDDD" mask="url(#mask-2)" cx="313.5" cy="282.5" r="5.5"></circle>
                    <circle id="Oval" fill="#DDDDDD" mask="url(#mask-2)" cx="313.5" cy="304.5" r="5.5"></circle>
                    <circle id="Oval" fill="#DDDDDD" mask="url(#mask-2)" cx="313.5" cy="326.5" r="5.5"></circle>
                    <circle id="Oval" fill="#DDDDDD" mask="url(#mask-2)" cx="313.5" cy="348.5" r="5.5"></circle>
                    <circle id="Oval" fill="#DDDDDD" mask="url(#mask-2)" cx="313.5" cy="370.5" r="5.5"></circle>
                    <circle id="Oval" fill="#DDDDDD" mask="url(#mask-2)" cx="313.5" cy="392.5" r="5.5"></circle>
                    <circle id="Oval" fill="#DDDDDD" mask="url(#mask-2)" cx="313.5" cy="414.5" r="5.5"></circle>
                    <circle id="Oval" fill="#DDDDDD" mask="url(#mask-2)" cx="313.5" cy="436.5" r="5.5"></circle>
                    <circle id="Oval" fill="#DDDDDD" mask="url(#mask-2)" cx="335.5" cy="18.5" r="5.5"></circle>
                    <circle id="Oval" fill="#DDDDDD" mask="url(#mask-2)" cx="335.5" cy="40.5" r="5.5"></circle>
                    <circle id="Oval" fill="#DDDDDD" mask="url(#mask-2)" cx="335.5" cy="62.5" r="5.5"></circle>
                    <circle id="Oval" fill="#DDDDDD" mask="url(#mask-2)" cx="335.5" cy="84.5" r="5.5"></circle>
                    <circle id="Oval" fill="#DDDDDD" mask="url(#mask-2)" cx="335.5" cy="106.5" r="5.5"></circle>
                    <circle id="Oval" fill="#DDDDDD" mask="url(#mask-2)" cx="335.5" cy="128.5" r="5.5"></circle>
                    <circle id="Oval" fill="#DDDDDD" mask="url(#mask-2)" cx="335.5" cy="150.5" r="5.5"></circle>
                    <circle id="Oval" fill="#DDDDDD" mask="url(#mask-2)" cx="335.5" cy="172.5" r="5.5"></circle>
                    <circle id="Oval" fill="#DDDDDD" mask="url(#mask-2)" cx="335.5" cy="194.5" r="5.5"></circle>
                    <circle id="Oval" fill="#DDDDDD" mask="url(#mask-2)" cx="335.5" cy="216.5" r="5.5"></circle>
                    <circle id="Oval" fill="#DDDDDD" mask="url(#mask-2)" cx="335.5" cy="238.5" r="5.5"></circle>
                    <circle id="Oval" fill="#DDDDDD" mask="url(#mask-2)" cx="335.5" cy="260.5" r="5.5"></circle>
                    <circle id="Oval" fill="#DDDDDD" mask="url(#mask-2)" cx="335.5" cy="282.5" r="5.5"></circle>
                    <circle id="Oval" fill="#DDDDDD" mask="url(#mask-2)" cx="335.5" cy="304.5" r="5.5"></circle>
                    <circle id="Oval" fill="#DDDDDD" mask="url(#mask-2)" cx="335.5" cy="326.5" r="5.5"></circle>
                    <circle id="Oval" fill="#DDDDDD" mask="url(#mask-2)" cx="335.5" cy="348.5" r="5.5"></circle>
                    <circle id="Oval" fill="#DDDDDD" mask="url(#mask-2)" cx="335.5" cy="370.5" r="5.5"></circle>
                    <circle id="Oval" fill="#DDDDDD" mask="url(#mask-2)" cx="335.5" cy="392.5" r="5.5"></circle>
                    <circle id="Oval" fill="#DDDDDD" mask="url(#mask-2)" cx="335.5" cy="414.5" r="5.5"></circle>
                    <circle id="Oval" fill="#DDDDDD" mask="url(#mask-2)" cx="335.5" cy="436.5" r="5.5"></circle>
                    <circle id="Oval" fill="#DDDDDD" mask="url(#mask-2)" cx="357.5" cy="18.5" r="5.5"></circle>
                    <circle id="Oval" fill="#DDDDDD" mask="url(#mask-2)" cx="357.5" cy="40.5" r="5.5"></circle>
                    <circle id="Oval" fill="#DDDDDD" mask="url(#mask-2)" cx="357.5" cy="62.5" r="5.5"></circle>
                    <circle id="Oval" fill="#DDDDDD" mask="url(#mask-2)" cx="357.5" cy="84.5" r="5.5"></circle>
                    <circle id="Oval" fill="#DDDDDD" mask="url(#mask-2)" cx="357.5" cy="106.5" r="5.5"></circle>
                    <circle id="Oval" fill="#DDDDDD" mask="url(#mask-2)" cx="357.5" cy="128.5" r="5.5"></circle>
                    <circle id="Oval" fill="#DDDDDD" mask="url(#mask-2)" cx="357.5" cy="150.5" r="5.5"></circle>
                    <circle id="Oval" fill="#DDDDDD" mask="url(#mask-2)" cx="357.5" cy="172.5" r="5.5"></circle>
                    <circle id="Oval" fill="#DDDDDD" mask="url(#mask-2)" cx="357.5" cy="194.5" r="5.5"></circle>
                    <circle id="Oval" fill="#DDDDDD" mask="url(#mask-2)" cx="357.5" cy="216.5" r="5.5"></circle>
                    <circle id="Oval" fill="#DDDDDD" mask="url(#mask-2)" cx="357.5" cy="238.5" r="5.5"></circle>
                    <circle id="Oval" fill="#DDDDDD" mask="url(#mask-2)" cx="357.5" cy="260.5" r="5.5"></circle>
                    <circle id="Oval" fill="#DDDDDD" mask="url(#mask-2)" cx="357.5" cy="282.5" r="5.5"></circle>
                    <circle id="Oval" fill="#DDDDDD" mask="url(#mask-2)" cx="357.5" cy="304.5" r="5.5"></circle>
                    <circle id="Oval" fill="#DDDDDD" mask="url(#mask-2)" cx="357.5" cy="326.5" r="5.5"></circle>
                    <circle id="Oval" fill="#DDDDDD" mask="url(#mask-2)" cx="357.5" cy="348.5" r="5.5"></circle>
                    <circle id="Oval" fill="#DDDDDD" mask="url(#mask-2)" cx="357.5" cy="370.5" r="5.5"></circle>
                    <circle id="Oval" fill="#DDDDDD" mask="url(#mask-2)" cx="357.5" cy="392.5" r="5.5"></circle>
                    <circle id="Oval" fill="#DDDDDD" mask="url(#mask-2)" cx="357.5" cy="414.5" r="5.5"></circle>
                    <circle id="Oval" fill="#DDDDDD" mask="url(#mask-2)" cx="357.5" cy="436.5" r="5.5"></circle>
                    <circle id="Oval" fill="#DDDDDD" mask="url(#mask-2)" cx="379.5" cy="18.5" r="5.5"></circle>
                    <circle id="Oval" fill="#DDDDDD" mask="url(#mask-2)" cx="379.5" cy="40.5" r="5.5"></circle>
                    <circle id="Oval" fill="#DDDDDD" mask="url(#mask-2)" cx="379.5" cy="62.5" r="5.5"></circle>
                    <circle id="Oval" fill="#DDDDDD" mask="url(#mask-2)" cx="379.5" cy="84.5" r="5.5"></circle>
                    <circle id="Oval" fill="#DDDDDD" mask="url(#mask-2)" cx="379.5" cy="106.5" r="5.5"></circle>
                    <circle id="Oval" fill="#DDDDDD" mask="url(#mask-2)" cx="379.5" cy="128.5" r="5.5"></circle>
                    <circle id="Oval" fill="#DDDDDD" mask="url(#mask-2)" cx="379.5" cy="150.5" r="5.5"></circle>
                    <circle id="Oval" fill="#DDDDDD" mask="url(#mask-2)" cx="379.5" cy="172.5" r="5.5"></circle>
                    <circle id="Oval" fill="#DDDDDD" mask="url(#mask-2)" cx="379.5" cy="194.5" r="5.5"></circle>
                    <circle id="Oval" fill="#DDDDDD" mask="url(#mask-2)" cx="379.5" cy="216.5" r="5.5"></circle>
                    <circle id="Oval" fill="#DDDDDD" mask="url(#mask-2)" cx="379.5" cy="238.5" r="5.5"></circle>
                    <circle id="Oval" fill="#DDDDDD" mask="url(#mask-2)" cx="379.5" cy="260.5" r="5.5"></circle>
                    <circle id="Oval" fill="#DDDDDD" mask="url(#mask-2)" cx="379.5" cy="282.5" r="5.5"></circle>
                    <circle id="Oval" fill="#DDDDDD" mask="url(#mask-2)" cx="379.5" cy="304.5" r="5.5"></circle>
                    <circle id="Oval" fill="#DDDDDD" mask="url(#mask-2)" cx="379.5" cy="326.5" r="5.5"></circle>
                    <circle id="Oval" fill="#DDDDDD" mask="url(#mask-2)" cx="379.5" cy="348.5" r="5.5"></circle>
                    <circle id="Oval" fill="#DDDDDD" mask="url(#mask-2)" cx="379.5" cy="370.5" r="5.5"></circle>
                    <circle id="Oval" fill="#DDDDDD" mask="url(#mask-2)" cx="379.5" cy="392.5" r="5.5"></circle>
                    <circle id="Oval" fill="#DDDDDD" mask="url(#mask-2)" cx="379.5" cy="414.5" r="5.5"></circle>
                    <circle id="Oval" fill="#DDDDDD" mask="url(#mask-2)" cx="379.5" cy="436.5" r="5.5"></circle>
                    <circle id="Oval" fill="#DDDDDD" mask="url(#mask-2)" cx="401.5" cy="18.5" r="5.5"></circle>
                    <circle id="Oval" fill="#DDDDDD" mask="url(#mask-2)" cx="401.5" cy="40.5" r="5.5"></circle>
                    <circle id="Oval" fill="#DDDDDD" mask="url(#mask-2)" cx="401.5" cy="62.5" r="5.5"></circle>
                    <circle id="Oval" fill="#DDDDDD" mask="url(#mask-2)" cx="401.5" cy="84.5" r="5.5"></circle>
                    <circle id="Oval" fill="#DDDDDD" mask="url(#mask-2)" cx="401.5" cy="106.5" r="5.5"></circle>
                    <circle id="Oval" fill="#DDDDDD" mask="url(#mask-2)" cx="401.5" cy="128.5" r="5.5"></circle>
                    <circle id="Oval" fill="#DDDDDD" mask="url(#mask-2)" cx="401.5" cy="150.5" r="5.5"></circle>
                    <circle id="Oval" fill="#DDDDDD" mask="url(#mask-2)" cx="401.5" cy="172.5" r="5.5"></circle>
                    <circle id="Oval" fill="#DDDDDD" mask="url(#mask-2)" cx="401.5" cy="194.5" r="5.5"></circle>
                    <circle id="Oval" fill="#DDDDDD" mask="url(#mask-2)" cx="401.5" cy="216.5" r="5.5"></circle>
                    <circle id="Oval" fill="#DDDDDD" mask="url(#mask-2)" cx="401.5" cy="238.5" r="5.5"></circle>
                    <circle id="Oval" fill="#DDDDDD" mask="url(#mask-2)" cx="401.5" cy="260.5" r="5.5"></circle>
                    <circle id="Oval" fill="#DDDDDD" mask="url(#mask-2)" cx="401.5" cy="282.5" r="5.5"></circle>
                    <circle id="Oval" fill="#DDDDDD" mask="url(#mask-2)" cx="401.5" cy="304.5" r="5.5"></circle>
                    <circle id="Oval" fill="#DDDDDD" mask="url(#mask-2)" cx="401.5" cy="326.5" r="5.5"></circle>
                    <circle id="Oval" fill="#DDDDDD" mask="url(#mask-2)" cx="401.5" cy="348.5" r="5.5"></circle>
                    <circle id="Oval" fill="#DDDDDD" mask="url(#mask-2)" cx="401.5" cy="370.5" r="5.5"></circle>
                    <circle id="Oval" fill="#DDDDDD" mask="url(#mask-2)" cx="401.5" cy="392.5" r="5.5"></circle>
                    <circle id="Oval" fill="#DDDDDD" mask="url(#mask-2)" cx="401.5" cy="414.5" r="5.5"></circle>
                    <circle id="Oval" fill="#DDDDDD" mask="url(#mask-2)" cx="401.5" cy="436.5" r="5.5"></circle>
                    <circle id="Oval" fill="#DDDDDD" mask="url(#mask-2)" cx="423.5" cy="18.5" r="5.5"></circle>
                    <circle id="Oval" fill="#DDDDDD" mask="url(#mask-2)" cx="423.5" cy="40.5" r="5.5"></circle>
                    <circle id="Oval" fill="#DDDDDD" mask="url(#mask-2)" cx="423.5" cy="62.5" r="5.5"></circle>
                    <circle id="Oval" fill="#DDDDDD" mask="url(#mask-2)" cx="423.5" cy="84.5" r="5.5"></circle>
                    <circle id="Oval" fill="#DDDDDD" mask="url(#mask-2)" cx="423.5" cy="106.5" r="5.5"></circle>
                    <circle id="Oval" fill="#DDDDDD" mask="url(#mask-2)" cx="423.5" cy="128.5" r="5.5"></circle>
                    <circle id="Oval" fill="#DDDDDD" mask="url(#mask-2)" cx="423.5" cy="150.5" r="5.5"></circle>
                    <circle id="Oval" fill="#DDDDDD" mask="url(#mask-2)" cx="423.5" cy="172.5" r="5.5"></circle>
                    <circle id="Oval" fill="#DDDDDD" mask="url(#mask-2)" cx="423.5" cy="194.5" r="5.5"></circle>
                    <circle id="Oval" fill="#DDDDDD" mask="url(#mask-2)" cx="423.5" cy="216.5" r="5.5"></circle>
                    <circle id="Oval" fill="#DDDDDD" mask="url(#mask-2)" cx="423.5" cy="238.5" r="5.5"></circle>
                    <circle id="Oval" fill="#DDDDDD" mask="url(#mask-2)" cx="423.5" cy="260.5" r="5.5"></circle>
                    <circle id="Oval" fill="#DDDDDD" mask="url(#mask-2)" cx="423.5" cy="282.5" r="5.5"></circle>
                    <circle id="Oval" fill="#DDDDDD" mask="url(#mask-2)" cx="423.5" cy="304.5" r="5.5"></circle>
                    <circle id="Oval" fill="#DDDDDD" mask="url(#mask-2)" cx="423.5" cy="326.5" r="5.5"></circle>
                    <circle id="Oval" fill="#DDDDDD" mask="url(#mask-2)" cx="423.5" cy="348.5" r="5.5"></circle>
                    <circle id="Oval" fill="#DDDDDD" mask="url(#mask-2)" cx="423.5" cy="370.5" r="5.5"></circle>
                    <circle id="Oval" fill="#DDDDDD" mask="url(#mask-2)" cx="423.5" cy="392.5" r="5.5"></circle>
                    <circle id="Oval" fill="#DDDDDD" mask="url(#mask-2)" cx="423.5" cy="414.5" r="5.5"></circle>
                    <circle id="Oval" fill="#DDDDDD" mask="url(#mask-2)" cx="423.5" cy="436.5" r="5.5"></circle>
                </g>
            </g>
        </g>
    </g>
</svg>