<?xml version="1.0" encoding="UTF-8"?>
<svg width="461px" height="370px" viewBox="0 0 461 370" version="1.1" xmlns="http://www.w3.org/2000/svg" xmlns:xlink="http://www.w3.org/1999/xlink">
    <!-- Generator: Sketch 54.1 (76490) - https://sketchapp.com -->
    <title>logo</title>
    <desc>Created with Sketch.</desc>
    <g id="Page-1" stroke="none" stroke-width="1" fill="none" fill-rule="evenodd">
        <g id="Desktop" transform="translate(-282.000000, -327.000000)" fill-rule="nonzero">
            <g id="logo" transform="translate(282.000000, 327.000000)">
                <g id="Group-8">
                    <polygon id="number-1" fill="#222222" points="115.450722 369.353711 115.450722 20.8427948 57.6530807 20.8427948 57.6530807 6.78602619 131.614469 6.78602619 131.614469 369.353711"></polygon>
                    <path d="M317.742466,274.834061 C281.496307,274.834061 249.822211,261.18136 222.719226,233.875546 C195.616242,206.569732 182.064953,174.094075 182.064953,136.447598 C182.064953,98.8011217 195.77951,66.6486049 223.209037,39.989083 C250.638563,13.329561 283.537174,5.68434189e-14 321.905857,5.68434189e-14 C360.274539,5.68434189e-14 392.928246,13.329561 419.86796,39.989083 C446.807675,66.6486049 460.277328,98.5587663 460.277328,135.720524 C460.277328,172.882282 443.787206,210.205053 410.806466,247.689956 L303.537962,369.353711 L284.925162,369.353711 L381.907645,259.323143 C376.356432,263.524039 367.213392,267.159373 354.478255,270.229258 C341.743118,273.299141 329.497979,274.834061 317.742466,274.834061 Z M445.093202,136.689956 C445.093202,102.759656 433.01133,73.7577622 408.847225,49.6834061 C384.683116,25.60905 355.702951,13.5720524 321.905857,13.5720524 C288.108762,13.5720524 259.291864,25.60905 235.4543,49.6834061 C211.616735,73.7577622 199.698132,102.759656 199.698132,136.689956 C199.698132,170.620257 211.698369,199.864506 235.699205,224.423581 C259.70004,248.982655 288.353669,261.26201 321.660951,261.26201 C354.968233,261.26201 383.866765,248.901871 408.357412,224.181223 C432.848062,199.460575 445.093202,170.297111 445.093202,136.689956 Z" id="number-9" fill="#222222"></path>
                    <rect id="rectangle" fill="#222222" x="0" y="98" width="289" height="69"></rect>
                    <path d="M42.0957031,141.980469 L26.6074219,141.980469 L23.1035156,151.501953 L18,151.501953 L32.2949219,114.533203 L36.5859375,114.533203 L50.6523438,151.501953 L45.5488281,151.501953 L42.0957031,141.980469 Z M28.15625,137.791016 L40.5976562,137.791016 L34.5039062,120.957031 L34.3515625,120.957031 L28.15625,137.791016 Z" id="letter-a1" fill="#FFFFFF"></path>
                    <polygon id="letter-l1" fill="#FFFFFF" points="60.7324219 147.591797 78.2265625 147.591797 78.2265625 151.501953 55.7304688 151.501953 55.7304688 114.533203 60.7324219 114.533203"></polygon>
                    <polygon id="letter-l2" fill="#FFFFFF" points="88.8144531 147.591797 106.308594 147.591797 106.308594 151.501953 83.8125 151.501953 83.8125 114.533203 88.8144531 114.533203"></polygon>
                    <path d="M132.029297,142.183594 C132.029297,140.490877 131.394538,139.073248 130.125,137.930664 C128.855462,136.78808 126.604183,135.827478 123.371094,135.048828 C119.460918,134.117834 116.409842,132.746754 114.217773,130.935547 C112.025705,129.12434 110.929688,126.84767 110.929688,124.105469 C110.929688,121.22785 112.11034,118.824228 114.47168,116.894531 C116.83302,114.964834 119.892559,114 123.650391,114 C127.695984,114 130.916329,115.108713 133.311523,117.326172 C135.706718,119.543631 136.86198,122.116522 136.777344,125.044922 L136.726563,125.197266 L131.953125,125.197266 C131.953125,123.030588 131.237963,121.278653 129.807617,119.941406 C128.377271,118.60416 126.324883,117.935547 123.650391,117.935547 C121.162097,117.935547 119.253587,118.498367 117.924805,119.624023 C116.596022,120.74968 115.931641,122.21809 115.931641,124.029297 C115.931641,125.637378 116.651034,126.978836 118.089844,128.053711 C119.528653,129.128586 121.864567,130.072262 125.097656,130.884766 C128.990905,131.849614 131.953115,133.271475 133.984375,135.150391 C136.015635,137.029306 137.03125,139.356757 137.03125,142.132812 C137.03125,145.111994 135.812512,147.507152 133.375,149.318359 C130.937488,151.129566 127.755228,152.035156 123.828125,152.035156 C120.138002,152.035156 116.87534,151.036468 114.040039,149.039062 C111.204738,147.041657 109.829427,144.367204 109.914063,141.015625 L109.964844,140.863281 L114.738281,140.863281 C114.738281,143.233085 115.610017,145.035801 117.353516,146.271484 C119.097014,147.507168 121.255195,148.125 123.828125,148.125 C126.350273,148.125 128.347649,147.591802 129.820313,146.525391 C131.292976,145.458979 132.029297,144.011728 132.029297,142.183594 Z" id="letter-s" fill="#FFFFFF"></path>
                    <path d="M149.320312,136.673828 L149.320312,151.501953 L144.318359,151.501953 L144.318359,114.533203 L158.460938,114.533203 C162.404968,114.533203 165.468739,115.548818 167.652344,117.580078 C169.835948,119.611338 170.927734,122.285791 170.927734,125.603516 C170.927734,128.972022 169.835948,131.65917 167.652344,133.665039 C165.468739,135.670908 162.404968,136.673828 158.460938,136.673828 L149.320312,136.673828 Z M149.320312,132.763672 L158.460938,132.763672 C160.966158,132.763672 162.836582,132.090827 164.072266,130.745117 C165.307949,129.399407 165.925781,127.702484 165.925781,125.654297 C165.925781,123.60611 165.303717,121.896491 164.05957,120.525391 C162.815423,119.15429 160.949231,118.46875 158.460938,118.46875 L149.320312,118.46875 L149.320312,132.763672 Z" id="letter-p" fill="#FFFFFF"></path>
                    <path d="M193.169922,141.980469 L177.681641,141.980469 L174.177734,151.501953 L169.074219,151.501953 L183.369141,114.533203 L187.660156,114.533203 L201.726562,151.501953 L196.623047,151.501953 L193.169922,141.980469 Z M179.230469,137.791016 L191.671875,137.791016 L185.578125,120.957031 L185.425781,120.957031 L179.230469,137.791016 Z" id="letter-a2" fill="#FFFFFF"></path>
                    <path d="M211.806641,135.480469 L211.806641,151.501953 L206.804688,151.501953 L206.804688,114.558594 L220.185547,114.558594 C224.23114,114.558594 227.320302,115.45572 229.453125,117.25 C231.585948,119.04428 232.652344,121.651025 232.652344,125.070312 C232.652344,126.966155 232.157232,128.616529 231.166992,130.021484 C230.176753,131.426439 228.733733,132.543616 226.837891,133.373047 C228.869151,134.033206 230.329097,135.103834 231.217773,136.584961 C232.10645,138.066088 232.550781,139.898427 232.550781,142.082031 L232.550781,145.560547 C232.550781,146.711594 232.677733,147.744136 232.931641,148.658203 C233.185548,149.57227 233.625648,150.317054 234.251953,150.892578 L234.251953,151.501953 L229.097656,151.501953 C228.437497,150.926429 228.014324,150.080084 227.828125,148.962891 C227.641926,147.845698 227.548828,146.694667 227.548828,145.509766 L227.548828,142.132812 C227.548828,140.135407 226.96485,138.52735 225.796875,137.308594 C224.6289,136.089838 223.063161,135.480469 221.099609,135.480469 L211.806641,135.480469 Z M211.806641,131.544922 L219.677734,131.544922 C222.504571,131.544922 224.540033,131.007492 225.78418,129.932617 C227.028327,128.857742 227.650391,127.220063 227.650391,125.019531 C227.650391,122.93749 227.045253,121.325201 225.834961,120.182617 C224.624668,119.040033 222.741549,118.46875 220.185547,118.46875 L211.806641,118.46875 L211.806641,131.544922 Z" id="letter-r" fill="#FFFFFF"></path>
                    <polygon id="letter-k" fill="#FFFFFF" points="250.578125 134.820312 246.261719 134.820312 246.261719 151.501953 241.259766 151.501953 241.259766 114.533203 246.261719 114.533203 246.261719 130.884766 250.121094 130.884766 263.349609 114.533203 268.884766 114.533203 268.960938 114.660156 254.615234 132.408203 270.001953 151.375 269.925781 151.501953 263.958984 151.501953"></polygon>
                </g>
            </g>
        </g>
    </g>
</svg>