<?xml version="1.0" encoding="UTF-8"?>
<svg width="153px" height="155px" viewBox="0 0 153 155" version="1.1" xmlns="http://www.w3.org/2000/svg" xmlns:xlink="http://www.w3.org/1999/xlink">
    <!-- Generator: Sketch 54.1 (76490) - https://sketchapp.com -->
    <title>logo-18</title>
    <desc>Created with Sketch.</desc>
    <g id="Website" stroke="none" stroke-width="1" fill="none" fill-rule="evenodd">
        <g id="Desktop-HD-Copy-2" transform="translate(-835.000000, -370.000000)" fill="#111111" fill-rule="nonzero">
            <path d="M858.6,522 L858.6,378.2 L835,378.2 L835,372.4 L865.2,372.4 L865.2,522 L858.6,522 Z M967.2,400.2 C967.2,405.666694 965.733348,410.73331 962.8,415.4 C959.866652,420.06669 955.866692,423.73332 950.8,426.4 C961.600054,429.06668 970.499965,434.999954 977.5,444.2 C984.500035,453.400046 988,463.466612 988,474.4 C988,488.266736 983.033383,500.133284 973.1,510 C963.166617,519.866716 951.20007,524.8 937.2,524.8 C923.19993,524.8 911.20005,519.833383 901.2,509.9 C891.19995,499.966617 886.2,488.133402 886.2,474.4 C886.2,463.73328 889.566633,453.933378 896.3,445 C903.033367,436.066622 911.666614,430.000016 922.2,426.8 C917.266642,424.399988 913.200016,420.733358 910,415.8 C906.799984,410.866642 905.2,405.666694 905.2,400.2 C905.2,391.799958 908.19997,384.666696 914.2,378.8 C920.20003,372.933304 927.499957,370 936.1,370 C944.700043,370 952.033303,372.933304 958.1,378.8 C964.166697,384.666696 967.2,391.799958 967.2,400.2 Z M936,375.6 C929.466634,375.6 923.766691,378.033309 918.9,382.9 C914.033309,387.766691 911.6,393.466634 911.6,400 C911.6,406.533366 914.033309,412.233309 918.9,417.1 C923.766691,421.966691 929.499967,424.4 936.1,424.4 C942.700033,424.4 948.466642,421.966691 953.4,417.1 C958.333358,412.233309 960.8,406.533366 960.8,400 C960.8,393.466634 958.333358,387.766691 953.4,382.9 C948.466642,378.033309 942.6667,375.6 936,375.6 Z M892.8,474.8 C892.8,486.80006 897.166623,497.166623 905.9,505.9 C914.633377,514.633377 925.066606,519 937.2,519 C949.333394,519 959.73329,514.633377 968.4,505.9 C977.06671,497.166623 981.4,486.733394 981.4,474.6 C981.4,462.466606 977.06671,452.000044 968.4,443.2 C959.73329,434.399956 949.366727,430 937.3,430 C925.233273,430 914.800044,434.433289 906,443.3 C897.199956,452.166711 892.8,462.666606 892.8,474.8 Z" id="logo-18"></path>
        </g>
    </g>
</svg>