<?xml version="1.0" encoding="UTF-8"?>
<svg width="2010px" height="1275px" viewBox="0 0 2010 1275" version="1.1" xmlns="http://www.w3.org/2000/svg" xmlns:xlink="http://www.w3.org/1999/xlink">
    <!-- Generator: Sketch 54.1 (76490) - https://sketchapp.com -->
    <title>illustration-3</title>
    <desc>Created with Sketch.</desc>
    <defs>
        <linearGradient x1="73.2672194%" y1="26.9596579%" x2="36.3252949%" y2="70.1186233%" id="linearGradient-1">
            <stop stop-color="#FFF0CE" offset="0%"></stop>
            <stop stop-color="#FFDCA0" offset="100%"></stop>
        </linearGradient>
    </defs>
    <g id="Page-1" stroke="none" stroke-width="1" fill="none" fill-rule="evenodd">
        <g id="website-design-1" transform="translate(-273.000000, -9769.000000)">
            <g id="illustration-3" transform="translate(1278.000000, 10406.500000) scale(-1, 1) translate(-1278.000000, -10406.500000) translate(273.000000, 9769.000000)">
                <path d="M1810.48245,99.3045897 C1791.70745,99.3045897 1776.48529,84.0874392 1776.48529,65.3179157 C1776.48529,46.5453842 1791.70745,31.3282337 1810.48245,31.3282337 C1829.25445,31.3282337 1844.47059,46.5453842 1844.47059,65.3179157 C1844.47059,84.0874392 1829.25445,99.3045897 1810.48245,99.3045897 Z M178.503576,917.978516 C80.3249475,917.978516 0,998.306688 0,1096.48926 C0,1194.66881 80.3249475,1275 178.503576,1275 L1720.95105,1275 C1879.93009,1275 2010,1144.92184 2010,985.942465 C2010,874.654671 1946.26665,777.532776 1853.49736,729.274633 C1813.73815,708.592081 1768.64555,696.884929 1720.95105,696.884929 C1653.73612,696.884929 1598.73687,641.883473 1598.73687,574.662828 C1598.73687,507.442183 1653.73612,452.443749 1720.95105,452.443749 L1868.04072,452.443749 C1937.92962,452.443749 1995.09826,395.263748 1995.09826,325.372044 C1995.09826,255.486383 1937.92358,198.306382 1868.04072,198.306382 L1682.04398,198.306382 C1654.83895,198.306382 1632.58001,176.043528 1632.58001,148.83438 C1632.58001,121.625233 1654.83895,99.2980829 1682.04398,99.2980829 L1720.95105,99.2980829 C1739.72325,99.2980829 1757.90948,84.611123 1757.90948,50.0925123 C1757.90948,15.5739015 1733.60483,-2.70129318e-12 1714.83263,-2.70129318e-12 L1591.95072,-3.63797881e-12 C1560.65063,-3.01352172e-12 1529.89541,-2.70129318e-12 1499.68505,-2.70129318e-12 C1454.37555,-2.70129318e-12 1449.32975,84.611123 1334.88068,84.611123 C1157.94825,84.611123 1246.41295,84.611123 1069.48959,84.611123 C1044.97968,84.611123 1024.9415,104.662195 1024.9415,129.157982 L1024.9415,129.161003 C1024.9415,153.662833 1044.98572,173.710884 1069.48959,173.710884 L1112.26712,173.710884 C1147.76902,173.710884 1176.81411,202.763183 1176.81411,238.26047 C1176.81411,273.766821 1147.76902,302.816098 1112.26712,302.816098 L983.505485,302.816098 C809.639817,302.816098 785.084585,348.254317 754.634526,438.629176 C724.181446,529.004035 566.033302,536.289016 566.033302,536.289016 L349.785914,536.289016 C296.285299,536.289016 252.510695,580.065377 252.510695,633.56814 C252.510695,687.073924 296.285299,730.847263 349.785914,730.847263 L360.922937,730.847263 C412.381059,730.847263 454.481786,772.952702 454.481786,824.415911 C454.481786,875.876099 412.381059,917.978516 360.922937,917.978516 L178.503576,917.978516 Z" id="Fill-3" fill-opacity="0.5" fill="url(#linearGradient-1)" transform="translate(1005.000000, 637.500000) scale(-1, 1) translate(-1005.000000, -637.500000) "></path>
                <rect id="Rectangle" stroke="#979797" fill="#FFFFFF" x="570.5" y="354.5" width="771" height="290"></rect>
                <g id="screen" transform="translate(563.000000, 334.000000)">
                    <path d="M757.327302,19.3807206 L24.6726983,19.3807206 C23.3551365,19.3807206 22.1548919,19.8500093 21.2434279,20.6306529 L20.9456228,20.9420079 C19.9800125,21.9076597 19.3844023,23.2252779 19.3844023,24.6692431 L19.3844023,292.330757 C19.3844023,293.806309 19.9664759,295.128439 20.9095252,296.062504 L20.9456228,296.098604 C21.88416,297.037181 23.2017218,297.619279 24.6726983,297.619279 L757.327302,297.619279 C758.775717,297.619279 760.093279,297.023644 761.054377,296.062504 L761.076938,296.080554 L761.094987,296.062504 C762.033524,295.128439 762.615598,293.806309 762.615598,292.330757 L762.615598,24.6692431 C762.615598,23.2252779 762.019988,21.9076597 761.054377,20.9420079 C760.093279,19.9808686 758.775717,19.3807206 757.327302,19.3807206 Z M24.6726983,0 L757.327302,0 C764.122672,0 770.290846,2.77512064 774.757922,7.24238801 C779.220486,11.705143 782,17.8735819 782,24.6692431 L782,292.330757 C782,299.090319 779.215974,305.26327 774.739874,309.748587 L774.757922,309.762124 C770.290846,314.229392 764.122672,317 757.327302,317 L24.6726983,317 C17.9224502,317 11.7633,314.233904 7.28268747,309.762124 L7.2195167,309.698951 C2.76597734,305.218146 0,299.076782 0,292.330757 L0,24.6692431 C0,17.8735819 2.77951393,11.705143 7.24207769,7.24238801 C7.46768759,7.01676844 7.69780968,6.80919845 7.93695617,6.61065323 C12.3589101,2.51340194 18.2473285,0 24.6726983,0 L24.6726983,0 Z" id="Fill-103" fill="#31364C"></path>
                    <path d="M183.92476,181.294141 C183.92476,179.529499 185.622246,178.085291 187.697952,178.085291 C189.769155,178.085291 191.466641,179.529499 191.466641,181.294141 L191.466641,273.903976 C191.466641,275.664104 189.769155,277.108312 187.697952,277.108312 C185.622246,277.108312 183.92476,275.664104 183.92476,273.903976 L183.92476,181.294141 Z M165.216392,181.294141 C165.216392,179.529499 166.913878,178.085291 168.989584,178.085291 C171.06529,178.085291 172.762776,179.529499 172.762776,181.294141 L172.762776,273.903976 C172.762776,275.664104 171.06529,277.108312 168.989584,277.108312 C166.913878,277.108312 165.216392,275.664104 165.216392,273.903976 L165.216392,181.294141 Z M146.508023,181.294141 C146.508023,179.529499 148.20551,178.085291 150.281215,178.085291 C152.352419,178.085291 154.049905,179.529499 154.049905,181.294141 L154.049905,273.903976 C154.049905,275.664104 152.352419,277.108312 150.281215,277.108312 C148.20551,277.108312 146.508023,275.664104 146.508023,273.903976 L146.508023,181.294141 Z M127.799655,181.294141 C127.799655,179.529499 129.492639,178.085291 131.572847,178.085291 C133.64405,178.085291 135.346039,179.529499 135.346039,181.294141 L135.346039,273.903976 C135.346039,275.664104 133.64405,277.108312 131.572847,277.108312 C129.492639,277.108312 127.799655,275.664104 127.799655,273.903976 L127.799655,181.294141 Z M109.086784,181.294141 C109.086784,179.529499 110.78427,178.085291 112.864479,178.085291 C114.935682,178.085291 116.633168,179.529499 116.633168,181.294141 L116.633168,273.903976 C116.633168,275.664104 114.935682,277.108312 112.864479,277.108312 C110.78427,277.108312 109.086784,275.664104 109.086784,273.903976 L109.086784,181.294141 Z M90.3784161,181.294141 C90.3784161,179.529499 92.0804048,178.085291 94.151608,178.085291 C96.2273139,178.085291 97.9248,179.529499 97.9248,181.294141 L97.9248,273.903976 C97.9248,275.664104 96.2273139,277.108312 94.151608,277.108312 C92.0804048,277.108312 90.3784161,275.664104 90.3784161,273.903976 L90.3784161,181.294141 Z M71.6700478,181.294141 C71.6700478,179.529499 73.3675339,178.085291 75.4432398,178.085291 C77.5189456,178.085291 79.2164317,179.529499 79.2164317,181.294141 L79.2164317,273.903976 C79.2164317,275.664104 77.5189456,277.108312 75.4432398,277.108312 C73.3675339,277.108312 71.6700478,275.664104 71.6700478,273.903976 L71.6700478,181.294141 Z M52.9616795,181.294141 C52.9616795,179.529499 54.6636683,178.085291 56.7348715,178.085291 C58.8105773,178.085291 60.5080635,179.529499 60.5080635,181.294141 L60.5080635,273.903976 C60.5080635,275.664104 58.8105773,277.108312 56.7348715,277.108312 C54.6636683,277.108312 52.9616795,275.664104 52.9616795,273.903976 L52.9616795,181.294141 Z M39.6024187,289.794776 L205.105064,289.794776 L205.105064,166.779851 L39.6024187,166.779851 L39.6024187,289.794776 Z" id="Fill-106" fill="#9AAACA"></path>
                    <polygon id="Fill-107" fill="#B2C0D8" points="71.5207861 159.682836 92.2086168 159.682836 92.2086168 28.3880597 71.5207861 28.3880597"></polygon>
                    <path d="M112.305367,39.2590514 L112.305367,149.398753 C112.305367,151.48188 114.029235,153.177239 116.147392,153.177239 C118.25638,153.177239 119.989418,151.48188 119.989418,149.398753 L119.989418,39.2590514 C119.989418,37.1849423 118.25638,35.4850746 116.147392,35.4850746 C114.029235,35.4850746 112.305367,37.1849423 112.305367,39.2590514" id="Fill-108" fill="#B2C0D8"></path>
                    <path d="M131.219955,39.2590514 L131.219955,149.398753 C131.219955,151.48188 132.94944,153.177239 135.064274,153.177239 C137.174521,153.177239 138.904006,151.48188 138.904006,149.398753 L138.904006,39.2590514 C138.904006,37.1849423 137.174521,35.4850746 135.064274,35.4850746 C132.94944,35.4850746 131.219955,37.1849423 131.219955,39.2590514" id="Fill-109" fill="#B2C0D8"></path>
                    <path d="M150.134543,39.2590514 L150.134543,149.398753 C150.134543,151.48188 151.867581,153.177239 153.981153,153.177239 C156.094726,153.177239 157.818594,151.48188 157.818594,149.398753 L157.818594,39.2590514 C157.818594,37.1849423 156.094726,35.4850746 153.981153,35.4850746 C151.867581,35.4850746 150.134543,37.1849423 150.134543,39.2590514" id="Fill-110" fill="#B2C0D8"></path>
                    <path d="M168.45805,39.2590514 L168.45805,149.398753 C168.45805,151.48188 170.186503,153.177239 172.300076,153.177239 C174.413648,153.177239 176.142101,151.48188 176.142101,149.398753 L176.142101,39.2590514 C176.142101,37.1849423 174.413648,35.4850746 172.300076,35.4850746 C170.186503,35.4850746 168.45805,37.1849423 168.45805,39.2590514" id="Fill-111" fill="#B2C0D8"></path>
                    <path d="M186.781557,39.2590514 L186.781557,149.398753 C186.781557,151.48188 188.51001,153.177239 190.618998,153.177239 L190.623583,153.177239 C192.737155,153.177239 194.465608,151.48188 194.465608,149.398753 L194.465608,39.2590514 C194.465608,37.1849423 192.737155,35.4850746 190.623583,35.4850746 L190.618998,35.4850746 C188.51001,35.4850746 186.781557,37.1849423 186.781557,39.2590514" id="Fill-112" fill="#B2C0D8"></path>
                    <path d="M206.287226,39.2590514 L206.287226,149.398753 C206.287226,151.48188 208.015679,153.177239 210.129252,153.177239 C212.242824,153.177239 213.971277,151.48188 213.971277,149.398753 L213.971277,39.2590514 C213.971277,37.1849423 212.242824,35.4850746 210.129252,35.4850746 C208.015679,35.4850746 206.287226,37.1849423 206.287226,39.2590514" id="Fill-113" fill="#B2C0D8"></path>
                    <path d="M224.610733,39.2590514 L224.610733,149.398753 C224.610733,151.48188 226.339186,153.177239 228.452759,153.177239 C230.561747,153.177239 232.294785,151.48188 232.294785,149.398753 L232.294785,39.2590514 C232.294785,37.1849423 230.561747,35.4850746 228.452759,35.4850746 C226.339186,35.4850746 224.610733,37.1849423 224.610733,39.2590514" id="Fill-114" fill="#B2C0D8"></path>
                    <path d="M243.525321,39.2590514 L243.525321,149.398753 C243.525321,151.48188 245.253774,153.177239 247.367347,153.177239 C249.48092,153.177239 251.209373,151.48188 251.209373,149.398753 L251.209373,39.2590514 C251.209373,37.1849423 249.48092,35.4850746 247.367347,35.4850746 C245.253774,35.4850746 243.525321,37.1849423 243.525321,39.2590514" id="Fill-115" fill="#B2C0D8"></path>
                    <path d="M276.62585,89.7455235 C276.62585,90.7909011 277.630336,91.6380174 278.870106,91.6380174 C280.105351,91.6380174 281.109837,90.7909011 281.109837,89.7455235 L281.109837,35.0164028 C281.109837,33.9710252 280.105351,33.119403 278.870106,33.119403 C277.630336,33.119403 276.62585,33.9710252 276.62585,35.0164028 L276.62585,89.7455235 Z M276.62585,148.493941 C276.62585,149.539318 277.630336,150.386435 278.870106,150.386435 C280.105351,150.386435 281.109837,149.539318 281.109837,148.493941 L281.109837,98.4239598 C281.109837,97.3830881 280.105351,96.5314659 278.870106,96.5314659 C277.630336,96.5314659 276.62585,97.3830881 276.62585,98.4239598 L276.62585,148.493941 Z M298.665706,51.0305058 C298.665706,52.0758834 299.670191,52.9229997 300.905437,52.9229997 C302.145207,52.9229997 303.145167,52.0758834 303.145167,51.0305058 L303.145167,35.0164028 C303.145167,33.9710252 302.145207,33.119403 300.905437,33.119403 C299.670191,33.119403 298.665706,33.9710252 298.665706,35.0164028 L298.665706,51.0305058 Z M298.665706,120.786929 C298.665706,121.832307 299.670191,122.679423 300.905437,122.679423 C302.145207,122.679423 303.145167,121.832307 303.145167,120.786929 L303.145167,62.0475238 C303.145167,61.0021462 302.145207,60.1505239 300.905437,60.1505239 C299.670191,60.1505239 298.665706,61.0021462 298.665706,62.0475238 L298.665706,120.786929 Z M298.665706,148.493941 C298.665706,149.539318 299.670191,150.386435 300.905437,150.386435 C302.145207,150.386435 303.145167,149.539318 303.145167,148.493941 L303.145167,126.464411 C303.145167,125.419033 302.145207,124.571917 300.905437,124.571917 C299.670191,124.571917 298.665706,125.419033 298.665706,126.464411 L298.665706,148.493941 Z M320.701037,63.3767754 C320.701037,64.422153 321.705522,65.2692693 322.940768,65.2692693 C324.180538,65.2692693 325.180498,64.422153 325.180498,63.3767754 L325.180498,35.0164028 C325.180498,33.9710252 324.180538,33.119403 322.940768,33.119403 C321.705522,33.119403 320.701037,33.9710252 320.701037,35.0164028 L320.701037,63.3767754 Z M320.701037,148.493941 C320.701037,149.539318 321.705522,150.386435 322.940768,150.386435 C324.180538,150.386435 325.180498,149.539318 325.180498,148.493941 L325.180498,80.7381538 C325.180498,79.6927763 324.180538,78.8456599 322.940768,78.8456599 C321.705522,78.8456599 320.701037,79.6927763 320.701037,80.7381538 L320.701037,148.493941 Z M342.740892,170.852404 C342.740892,171.897782 343.740853,172.744898 344.980623,172.744898 C346.215869,172.744898 347.220354,171.897782 347.220354,170.852404 L347.220354,147.827062 C347.220354,146.777178 346.215869,145.934568 344.980623,145.934568 C343.740853,145.934568 342.740892,146.777178 342.740892,147.827062 L342.740892,170.852404 Z M342.740892,237.774593 C342.740892,238.824476 343.740853,239.667087 344.980623,239.667087 C346.215869,239.667087 347.220354,238.824476 347.220354,237.774593 L347.220354,179.868786 C347.220354,178.818902 346.215869,177.976292 344.980623,177.976292 C343.740853,177.976292 342.740892,178.818902 342.740892,179.868786 L342.740892,237.774593 Z M342.740892,276.665342 C342.740892,277.71072 343.740853,278.557836 344.980623,278.557836 C346.215869,278.557836 347.220354,277.71072 347.220354,276.665342 L347.220354,253.464268 C347.220354,252.418891 346.215869,251.571774 344.980623,251.571774 C343.740853,251.571774 342.740892,252.418891 342.740892,253.464268 L342.740892,276.665342 Z M364.771699,203.065354 C364.771699,204.110731 365.780709,204.957848 367.015954,204.957848 C368.2512,204.957848 369.26021,204.110731 369.26021,203.065354 L369.26021,147.827062 C369.26021,146.777178 368.2512,145.934568 367.015954,145.934568 C365.780709,145.934568 364.771699,146.777178 364.771699,147.827062 L364.771699,203.065354 Z M364.771699,276.665342 C364.771699,277.71072 365.780709,278.557836 367.015954,278.557836 C368.2512,278.557836 369.26021,277.71072 369.26021,276.665342 L369.26021,212.077229 C369.26021,211.031852 368.2512,210.184735 367.015954,210.184735 C365.780709,210.184735 364.771699,211.031852 364.771699,212.077229 L364.771699,276.665342 Z M386.811554,159.339733 C386.811554,160.385111 387.81604,161.232227 389.051285,161.232227 C390.291055,161.232227 391.29554,160.385111 391.29554,159.339733 L391.29554,147.827062 C391.29554,146.777178 390.291055,145.934568 389.051285,145.934568 C387.81604,145.934568 386.811554,146.777178 386.811554,147.827062 L386.811554,159.339733 Z M386.811554,276.665342 C386.811554,277.71072 387.81604,278.557836 389.051285,278.557836 C390.291055,278.557836 391.29554,277.71072 391.29554,276.665342 L391.29554,176.363166 C391.29554,175.317789 390.291055,174.470672 389.051285,174.470672 C387.81604,174.470672 386.811554,175.317789 386.811554,176.363166 L386.811554,276.665342 L386.811554,276.665342 Z" id="Fill-116" fill="#E6711D"></path>
                    <path d="M388.340136,127.482287 L388.340136,36.9318923 C388.340136,34.1867136 385.658173,31.9365672 382.385269,31.9365672 L355.8702,31.9365672 C352.597296,31.9365672 349.919879,34.1867136 349.919879,36.9318923 L349.919879,127.482287 C349.919879,130.231966 352.597296,132.477612 355.8702,132.477612 L382.385269,132.477612 C385.658173,132.477612 388.340136,130.231966 388.340136,127.482287" id="Fill-117" fill="#B2C0D8"></path>
                    <path d="M235.250189,190.055448 L235.250189,267.110596 C235.250189,272.424434 240.369128,276.783582 246.624112,276.783582 L311.351746,276.783582 C317.61122,276.783582 322.730159,272.424434 322.730159,267.110596 L322.730159,190.055448 C322.730159,184.737108 317.61122,180.382463 311.351746,180.382463 L246.624112,180.382463 C240.369128,180.382463 235.250189,184.737108 235.250189,190.055448" id="Fill-118" fill="#B2C0D8"></path>
                    <polygon id="Fill-119" fill="#E6711D" points="414.347695 159.682836 444.492819 159.682836 444.492819 28.3880597 414.347695 28.3880597"></polygon>
                    <path d="M463.998488,39.2590514 L463.998488,149.398753 C463.998488,151.48188 465.730493,153.177239 467.842805,153.177239 C469.950535,153.177239 471.68254,151.48188 471.68254,149.398753 L471.68254,39.2590514 C471.68254,37.1849423 469.950535,35.4850746 467.842805,35.4850746 C465.730493,35.4850746 463.998488,37.1849423 463.998488,39.2590514" id="Fill-120" fill="#9AAACA"></path>
                    <path d="M482.321995,39.2590514 L482.321995,149.398753 C482.321995,151.48188 484.050449,153.177239 486.159436,153.177239 C488.273009,153.177239 490.006047,151.48188 490.006047,149.398753 L490.006047,39.2590514 C490.006047,37.1849423 488.273009,35.4850746 486.159436,35.4850746 C484.050449,35.4850746 482.321995,37.1849423 482.321995,39.2590514" id="Fill-121" fill="#9AAACA"></path>
                    <path d="M501.827664,39.2590514 L501.827664,149.398753 C501.827664,151.48188 503.556117,153.177239 505.66969,153.177239 C507.778678,153.177239 509.511716,151.48188 509.511716,149.398753 L509.511716,39.2590514 C509.511716,37.1849423 507.778678,35.4850746 505.66969,35.4850746 C503.556117,35.4850746 501.827664,37.1849423 501.827664,39.2590514" id="Fill-122" fill="#9AAACA"></path>
                    <path d="M520.151172,39.2590514 L520.151172,149.398753 C520.151172,151.48188 521.879625,153.177239 523.993197,153.177239 C526.102185,153.177239 527.835223,151.48188 527.835223,149.398753 L527.835223,39.2590514 C527.835223,37.1849423 526.102185,35.4850746 523.993197,35.4850746 C521.879625,35.4850746 520.151172,37.1849423 520.151172,39.2590514" id="Fill-123" fill="#B2C0D8"></path>
                    <path d="M539.06576,39.2590514 L539.06576,149.398753 C539.06576,151.48188 540.794213,153.177239 542.903201,153.177239 C545.021358,153.177239 546.749811,151.48188 546.749811,149.398753 L546.749811,39.2590514 C546.749811,37.1849423 545.021358,35.4850746 542.903201,35.4850746 C540.794213,35.4850746 539.06576,37.1849423 539.06576,39.2590514" id="Fill-124" fill="#B2C0D8"></path>
                    <path d="M557.980348,39.2590514 L557.980348,149.398753 C557.980348,151.48188 559.709833,153.177239 561.824667,153.177239 C563.939502,153.177239 565.664399,151.48188 565.664399,149.398753 L565.664399,39.2590514 C565.664399,37.1849423 563.939502,35.4850746 561.824667,35.4850746 C559.709833,35.4850746 557.980348,37.1849423 557.980348,39.2590514" id="Fill-125" fill="#B2C0D8"></path>
                    <path d="M576.894936,39.2590514 L576.894936,149.398753 C576.894936,151.48188 578.623389,153.177239 580.732377,153.177239 L580.736961,153.177239 C582.850534,153.177239 584.578987,151.48188 584.578987,149.398753 L584.578987,39.2590514 C584.578987,37.1849423 582.850534,35.4850746 580.736961,35.4850746 L580.732377,35.4850746 C578.623389,35.4850746 576.894936,37.1849423 576.894936,39.2590514" id="Fill-126" fill="#B2C0D8"></path>
                    <path d="M595.218443,39.2590514 L595.218443,149.398753 C595.218443,151.48188 596.946896,153.177239 599.060469,153.177239 C601.174041,153.177239 602.902494,151.48188 602.902494,149.398753 L602.902494,39.2590514 C602.902494,37.1849423 601.174041,35.4850746 599.060469,35.4850746 C596.946896,35.4850746 595.218443,37.1849423 595.218443,39.2590514" id="Fill-127" fill="#B2C0D8"></path>
                    <path d="M628.318972,89.7455235 C628.318972,90.7909011 629.323457,91.6380174 630.558703,91.6380174 C631.798473,91.6380174 632.802958,90.7909011 632.802958,89.7455235 L632.802958,35.0164028 C632.802958,33.9710252 631.798473,33.119403 630.558703,33.119403 C629.323457,33.119403 628.318972,33.9710252 628.318972,35.0164028 L628.318972,89.7455235 Z M628.318972,148.493941 C628.318972,149.539318 629.323457,150.386435 630.558703,150.386435 C631.798473,150.386435 632.802958,149.539318 632.802958,148.493941 L632.802958,98.4239598 C632.802958,97.3830881 631.798473,96.5314659 630.558703,96.5314659 C629.323457,96.5314659 628.318972,97.3830881 628.318972,98.4239598 L628.318972,148.493941 Z M650.358828,51.0305058 C650.358828,52.0758834 651.363313,52.9229997 652.598558,52.9229997 C653.833804,52.9229997 654.838289,52.0758834 654.838289,51.0305058 L654.838289,35.0164028 C654.838289,33.9710252 653.833804,33.119403 652.598558,33.119403 C651.363313,33.119403 650.358828,33.9710252 650.358828,35.0164028 L650.358828,51.0305058 Z M650.358828,120.786929 C650.358828,121.832307 651.363313,122.679423 652.598558,122.679423 C653.833804,122.679423 654.838289,121.832307 654.838289,120.786929 L654.838289,62.0475238 C654.838289,61.0021462 653.833804,60.1505239 652.598558,60.1505239 C651.363313,60.1505239 650.358828,61.0021462 650.358828,62.0475238 L650.358828,120.786929 Z M650.358828,148.493941 C650.358828,149.539318 651.363313,150.386435 652.598558,150.386435 C653.833804,150.386435 654.838289,149.539318 654.838289,148.493941 L654.838289,126.464411 C654.838289,125.419033 653.833804,124.571917 652.598558,124.571917 C651.363313,124.571917 650.358828,125.419033 650.358828,126.464411 L650.358828,148.493941 Z M672.394159,63.3767754 C672.394159,64.422153 673.398644,65.2692693 674.638414,65.2692693 C675.873659,65.2692693 676.878145,64.422153 676.878145,63.3767754 L676.878145,35.0164028 C676.878145,33.9710252 675.873659,33.119403 674.638414,33.119403 C673.398644,33.119403 672.394159,33.9710252 672.394159,35.0164028 L672.394159,63.3767754 Z M672.394159,148.493941 C672.394159,149.539318 673.398644,150.386435 674.638414,150.386435 C675.873659,150.386435 676.878145,149.539318 676.878145,148.493941 L676.878145,80.7381538 C676.878145,79.6927763 675.873659,78.8456599 674.638414,78.8456599 C673.398644,78.8456599 672.394159,79.6927763 672.394159,80.7381538 L672.394159,148.493941 Z M694.429489,170.852404 C694.429489,171.897782 695.433975,172.744898 696.673745,172.744898 C697.90899,172.744898 698.913476,171.897782 698.913476,170.852404 L698.913476,147.827062 C698.913476,146.777178 697.90899,145.934568 696.673745,145.934568 C695.433975,145.934568 694.429489,146.777178 694.429489,147.827062 L694.429489,170.852404 Z M694.429489,237.774593 C694.429489,238.824476 695.433975,239.667087 696.673745,239.667087 C697.90899,239.667087 698.913476,238.824476 698.913476,237.774593 L698.913476,179.868786 C698.913476,178.818902 697.90899,177.976292 696.673745,177.976292 C695.433975,177.976292 694.429489,178.818902 694.429489,179.868786 L694.429489,237.774593 Z M694.429489,276.665342 C694.429489,277.71072 695.433975,278.557836 696.673745,278.557836 C697.90899,278.557836 698.913476,277.71072 698.913476,276.665342 L698.913476,253.464268 C698.913476,252.418891 697.90899,251.571774 696.673745,251.571774 C695.433975,251.571774 694.429489,252.418891 694.429489,253.464268 L694.429489,276.665342 Z M716.469345,203.065354 C716.469345,204.110731 717.469306,204.957848 718.709076,204.957848 C719.948846,204.957848 720.948807,204.110731 720.948807,203.065354 L720.948807,147.827062 C720.948807,146.777178 719.948846,145.934568 718.709076,145.934568 C717.469306,145.934568 716.469345,146.777178 716.469345,147.827062 L716.469345,203.065354 Z M716.469345,276.665342 C716.469345,277.71072 717.469306,278.557836 718.709076,278.557836 C719.948846,278.557836 720.948807,277.71072 720.948807,276.665342 L720.948807,212.077229 C720.948807,211.031852 719.948846,210.184735 718.709076,210.184735 C717.469306,210.184735 716.469345,211.031852 716.469345,212.077229 L716.469345,276.665342 Z M738.504676,159.339733 C738.504676,160.385111 739.513686,161.232227 740.744407,161.232227 C741.984177,161.232227 742.988662,160.385111 742.988662,159.339733 L742.988662,147.827062 C742.988662,146.777178 741.984177,145.934568 740.744407,145.934568 C739.513686,145.934568 738.504676,146.777178 738.504676,147.827062 L738.504676,159.339733 Z M738.504676,276.665342 C738.504676,277.71072 739.513686,278.557836 740.744407,278.557836 C741.984177,278.557836 742.988662,277.71072 742.988662,276.665342 L742.988662,176.363166 C742.988662,175.317789 741.984177,174.470672 740.744407,174.470672 C739.513686,174.470672 738.504676,175.317789 738.504676,176.363166 L738.504676,276.665342 L738.504676,276.665342 Z" id="Fill-128" fill="#9AAACA"></path>
                    <path d="M740.624339,127.482287 L740.624339,36.9318923 C740.624339,34.1867136 737.946921,31.9365672 734.674017,31.9365672 L708.158949,31.9365672 C704.886045,31.9365672 702.204082,34.1867136 702.204082,36.9318923 L702.204082,127.482287 C702.204082,130.231966 704.886045,132.477612 708.158949,132.477612 L734.674017,132.477612 C737.946921,132.477612 740.624339,130.231966 740.624339,127.482287" id="Fill-129" fill="#E6711D"></path>
                    <path d="M586.943311,190.055448 L586.943311,267.110596 C586.943311,272.424434 592.062249,276.783582 598.317233,276.783582 L663.044867,276.783582 C669.304342,276.783582 674.42328,272.424434 674.42328,267.110596 L674.42328,190.055448 C674.42328,184.737108 669.304342,180.382463 663.044867,180.382463 L598.317233,180.382463 C592.062249,180.382463 586.943311,184.737108 586.943311,190.055448" id="Fill-130" fill="#9AAACA"></path>
                    <path d="M414.938776,266.840816 L414.938776,189.729305 C414.938776,186.444032 416.505562,183.469712 419.020549,181.342622 C421.454261,179.287637 424.777474,178.016791 428.416754,178.016791 L562.23028,178.016791 C565.86956,178.016791 569.197289,179.287637 571.62197,181.342622 C574.141472,183.469712 575.712774,186.444032 575.712774,189.729305 L575.712774,266.840816 C575.712774,270.130595 574.141472,273.095902 571.62197,275.227498 C569.197289,277.282483 565.86956,278.557836 562.23028,278.557836 L428.416754,278.557836 C424.777474,278.557836 421.454261,277.282483 419.020549,275.227498 C416.501047,273.095902 414.938776,270.130595 414.938776,266.840816 Z M419.016033,189.729305 L419.016033,266.840816 C419.016033,268.877775 420.027446,270.752498 421.652931,272.126994 C423.373236,273.582609 425.766311,274.483918 428.416754,274.483918 L562.23028,274.483918 C564.880723,274.483918 567.273798,273.582609 568.994103,272.126994 C570.619588,270.752498 571.626486,268.877775 571.626486,266.840816 L571.626486,189.729305 C571.626486,187.692346 570.619588,185.817622 568.994103,184.443126 C567.273798,182.983005 564.880723,182.081696 562.23028,182.081696 L428.416754,182.081696 C425.766311,182.081696 423.373236,182.983005 421.652931,184.443126 C420.027446,185.817622 419.016033,187.692346 419.016033,189.729305 L419.016033,189.729305 Z" id="Fill-131" fill="#B2C0D8"></path>
                    <path d="M484.686319,251.63503 L484.686319,203.752565 C484.686319,202.910456 485.160014,202.186062 485.93146,201.846502 C486.702905,201.515997 487.555556,201.665403 488.173615,202.240391 L513.590724,226.177097 C514.023817,226.589096 514.240363,227.096172 514.240363,227.693798 C514.240363,228.291423 514.023817,228.803026 513.590724,229.210498 L488.173615,253.147204 C487.555556,253.731247 486.702905,253.876125 485.93146,253.541093 C485.160014,253.206061 484.686319,252.481666 484.686319,251.63503" id="Fill-132" fill="#E6711D"></path>
                </g>
                <g id="girl-mobile" transform="translate(1382.000000, 814.000000) scale(-1, 1) translate(-1382.000000, -814.000000) translate(1149.000000, 380.000000)">
                    <path d="M375.848367,787.169036 C376.264849,803.467122 377.107778,836.105704 377.229332,838.100009 C377.391753,840.77047 375.804592,841.209877 375.804592,841.209877 C375.804592,841.209877 374.510927,841.209877 372.439354,841.209877 C370.364932,841.209877 370.148372,836.71942 370.148372,836.71942 L365.162742,783.210049 C364.009455,782.658925 362.989374,782.052918 362.220797,781.37264 C358.603877,778.171582 359.401643,767.835599 360.051781,765.458238 C360.701918,763.080877 371.964338,755.198945 371.964338,755.198945 C374.493911,750.802104 383.093324,752.083096 383.093324,752.083096 L398.452459,776.186187 L421.635954,809.869731 L451.229971,812.377747 C454.074676,811.965899 457.949948,811.630739 461.504409,815.033462 C463.270284,816.720621 465.314384,818.984369 465.669262,820.68857 C466.319399,823.778856 463.80686,824.625276 463.80686,824.625276 C463.80686,824.625276 418.581161,831.17225 409.516148,832.484486 C400.445456,833.796721 397.543971,827.121931 397.543971,827.121931 C397.543971,827.121931 379.876706,790.004421 377.457855,788.067312 C377.074926,787.761097 376.522086,787.46435 375.848367,787.169036 Z" id="Fill-96" fill="#FF4E64"></path>
                    <path d="M419.936055,791.703025 C429.952697,809.967124 449.528481,808.34857 451.486344,812.139393 C451.486344,812.139393 427.321375,815.634901 421.444945,816.486771 C415.574199,817.335802 410.987856,814.868217 408.197404,810.228364 C405.404111,805.582831 385.126451,763.435129 383.111756,759.280842 C381.09422,755.123715 374.998987,754.081594 372.148862,754.976057 L338.279828,714.938154 L367.028298,699.445473 C367.028298,699.445473 409.910889,773.441766 419.936055,791.703025 Z" id="Fill-57" fill="#ECA77E"></path>
                    <path d="M202.320311,795.889918 L192.696694,802.395786 L198.339892,856.200765 C198.339892,856.200765 198.553434,860.186214 200.626213,860.186214 C202.696145,860.186214 203.988784,860.186214 203.988784,860.186214 C203.988784,860.186214 205.574688,859.793643 205.412396,857.426838 C205.252952,855.057189 203.800867,804.102616 203.800867,804.102616 L202.320311,795.889918" id="Fill-58" fill="#FF4E64"></path>
                    <path d="M192.4077,790.484997 C191.322013,792.759405 188.616322,802.930355 191.594856,806.64153 C194.57339,810.349866 203.369728,813.2234 205.398997,815.500648 C207.431107,817.772217 217.986713,857.266279 217.986713,857.266279 C217.986713,857.266279 219.609559,864.325179 228.815162,864.325179 C238.017922,864.325179 283.903829,864.325179 283.903829,864.325179 C283.903829,864.325179 286.544152,863.848149 286.475941,860.676471 C286.436151,858.927363 284.838884,856.380367 283.409301,854.446694 C280.533084,850.548114 276.639389,850.323797 273.754645,850.323797 L244.989624,843.56304 L228.340529,806.698319 L217.648502,780.490095 C217.648502,780.490095 209.392165,777.977172 206.078261,781.98933 C202.098799,780.490095 193.487703,788.210589 192.4077,790.484997 Z" id="Fill-59" fill="#FF4E64"></path>
                    <path d="M260.570192,739.538933 C250.634323,752.135836 229.376052,781.737065 230.75122,786.408464 C233.135033,794.518216 240.840517,817.50388 243.460154,825.415211 C249.955263,845.007875 271.185099,846.104294 272.415363,850.152084 C272.415363,850.152084 246.301409,850.260364 240.348979,850.260364 C234.393709,850.260364 230.336397,847.156491 228.441279,842.136438 C226.546162,837.11922 214.368543,792.315742 213.149645,787.893787 C211.930746,783.477501 206.111856,781.56699 203.137062,782.0432 L230.75122,723.850413 C236.223477,723.215466 263.189829,739.527234 260.570192,742.846535" id="Fill-60" fill="#ECA77E"></path>
                    <path d="M256.070965,748.329324 C256.070965,748.329324 345.821339,603.790809 351.548516,574.153162 C357.045812,545.71033 362.327416,526.990621 189.865023,460.09803 C182.792612,457.353645 177.195984,451.20929 168.991193,450.074074 C50.213282,470.507959 -3.92528791,521.008034 161.172375,536.818752 C294.77624,549.612634 275.701731,595.11776 275.701731,595.11776 C275.701731,595.11776 240.538338,691.789901 223.668991,735.853302 C222.091038,739.974136 247.179366,759.374974 256.070965,748.329324" id="Fill-61" fill="#285173"></path>
                    <path d="M169.251557,840.62736 L169.251557,587.958811 C169.251557,586.409411 167.96776,585.140947 166.396115,585.140947 L164.291954,585.140947 C162.720309,585.140947 161.436512,586.409411 161.436512,587.958811 L161.436512,840.62736 C161.436512,842.17676 162.720309,843.442387 164.291954,843.442387 L166.396115,843.442387 C167.96776,843.442387 169.251557,842.17676 169.251557,840.62736" id="Fill-62" fill="#0D0E11"></path>
                    <path d="M169.444077,577.773663 L161.690566,577.773663 C155.900256,577.773663 151.165309,582.51187 151.165309,588.302697 L151.165309,598.50261 C151.165309,604.293437 155.900256,609.028807 161.690566,609.028807 L169.444077,609.028807 C175.234387,609.028807 179.969334,604.293437 179.969334,598.50261 L179.969334,588.302697 C179.969334,582.51187 175.234387,577.773663 169.444077,577.773663" id="Fill-63" fill="#121723"></path>
                    <path d="M171.696173,836.521605 L158.994715,836.521605 C155.915916,836.521605 153.398179,839.052112 153.398179,842.149998 L153.398179,846.297533 C153.398179,849.395419 155.915916,851.925926 158.994715,851.925926 L171.696173,851.925926 C174.774973,851.925926 177.28989,849.395419 177.28989,846.297533 L177.28989,842.149998 C177.28989,839.052112 174.774973,836.521605 171.696173,836.521605" id="Fill-64" fill="#0F1328"></path>
                    <path d="M199.466682,844.11214 L131.667961,844.11214 C126.915727,844.11214 123.031145,848.003729 123.031145,852.758224 L123.031145,859.130665 C123.031145,863.887998 126.915727,867.776749 131.667961,867.776749 L199.466682,867.776749 C204.218916,867.776749 208.103498,863.887998 208.103498,859.130665 L208.103498,852.758224 C208.103498,848.003729 204.218916,844.11214 199.466682,844.11214" id="Fill-65" fill="#0F1328"></path>
                    <path d="M219.491136,583.131687 L219.491136,583.131687 C219.491136,579.076869 216.146806,575.764403 212.062129,575.764403 L118.849227,575.764403 C114.761713,575.764403 111.42022,579.076869 111.42022,583.131687 C111.42022,587.183693 114.761713,590.498971 118.849227,590.498971 L212.062129,590.498971 C216.146806,590.498971 219.491136,587.183693 219.491136,583.131687" id="Fill-66" fill="#0C1017"></path>
                    <path d="M239.586967,580.117798 L239.586967,580.117798 C239.586967,577.844402 237.701442,575.987654 235.392809,575.987654 L95.741834,575.987654 C93.436041,575.987654 91.5476761,577.844402 91.5476761,580.117798 C91.5476761,582.388399 93.436041,584.247942 95.741834,584.247942 L235.392809,584.247942 C237.701442,584.247942 239.586967,582.388399 239.586967,580.117798" id="Fill-67" fill="#0D0E11"></path>
                    <path d="M54.5478267,559.91358 L280.159409,559.91358 C285.723228,559.91358 290.273119,564.48714 290.273119,570.070076 L290.273119,570.072928 C290.273119,575.658715 285.723228,580.229424 280.159409,580.229424 L54.5478267,580.229424 C48.9868479,580.229424 44.434116,575.658715 44.434116,570.072928 L44.434116,570.070076 C44.434116,564.48714 48.9868479,559.91358 54.5478267,559.91358" id="Fill-68" fill="#9EB1AC"></path>
                    <path d="M155.485809,559.91358 L280.149999,559.91358 C285.716152,559.91358 290.273119,564.48714 290.273119,570.070076 L290.273119,570.072928 C290.273119,575.658715 285.716152,580.229424 280.149999,580.229424 L155.485809,580.229424 C149.916814,580.229424 145.359847,575.658715 145.359847,570.072928 L145.359847,570.070076 C145.359847,564.48714 149.916814,559.91358 155.485809,559.91358" id="Fill-69" fill="#8FA19C"></path>
                    <path d="M47.1121403,0 C73.1315811,0 94.2271203,21.0915037 94.2271203,47.1059671 C94.2271203,73.1204305 73.1315811,94.2119342 47.1121403,94.2119342 C21.0926996,94.2119342 0,73.1204305 0,47.1059671 C0,21.0915037 21.0926996,0 47.1121403,0" id="Fill-70" fill="#0C1017"></path>
                    <path d="M46.218996,16.9670782 C56.5791089,16.9670782 64.9765213,25.3625034 64.9765213,35.7201646 C64.9765213,46.0749943 56.5791089,54.473251 46.218996,54.473251 C35.8588831,54.473251 27.4643028,46.0749943 27.4643028,35.7201646 C27.4643028,25.3625034 35.8588831,16.9670782 46.218996,16.9670782" id="Fill-71" fill="#FFCF1D"></path>
                    <path d="M221.60183,345.598187 C223.088336,343.14706 271.498813,234.587219 272.04398,233.823565 C272.594826,233.057071 273.795898,233.241598 273.795898,233.241598 C273.795898,233.241598 284.125678,245.261351 291.877272,246.130044 C291.877272,246.130044 292.774526,248.012211 292.425278,248.551595 C292.076031,249.093818 265.635428,357.481675 243.669739,389.856089 C233.1412,405.367646 211.607101,411.315067 198.838266,398.239256 C176.909489,375.780997 152.269074,331.716138 137.648942,291.143083 C131.870739,275.109175 128.071606,233.411929 148.722648,215.575342 C154.197034,210.845794 162.681197,223.456031 166.258855,231.708611 C169.842193,239.958352 213.662835,344.624456 213.662835,344.624456 C217.52783,355.065712 220.115324,348.049314 221.60183,345.598187 Z" id="Fill-72" fill="#ECA77E"></path>
                    <path d="M162.873595,435.719127 C169.004104,438.477468 179.545174,462.207141 187.216824,465.042102 C217.449316,476.214516 256.045979,488.031111 274.326816,500.418102 C293.839431,513.630894 301.882886,532.953466 307.840265,548.348524 C313.817511,563.803176 362.39328,668.747814 384.962635,721.241416 C388.044919,728.40402 355.831365,742.158831 351.460539,735.734055 C330.026463,704.197597 259.622109,600.674696 231.353651,559.512425 L112.711273,559.677017 C112.711273,559.677017 66.7494852,552.295902 41.7761758,519.916618 C14.8842441,485.057097 37.0704425,400.042321 48.9142452,398.904364 C71.3672343,396.750474 116.491754,385.841976 152.502817,403.456193 C174.339917,414.131992 152.954091,435.809937 162.873595,435.719127" id="Fill-73" fill="#00446B"></path>
                    <path d="M165.020887,229.145213 C173.051664,250.885614 185.787886,292.314417 186.724999,302.730509 C187.954605,316.336708 182.104746,337.51515 177.680436,350.042843 C169.402601,373.480471 178.779414,408.614207 176.837034,433.084929 C176.342919,439.292012 174.937249,444.883212 172.202582,449.146147 C172.202582,449.146147 125.398032,476.296104 36.7527924,443.39601 C36.7527924,443.39601 29.4546675,433.553228 31.5191565,418.011396 C43.3977777,328.560716 35.827038,316.064243 16.0766651,225.200154 C39.1154538,201.081365 97.4436581,197.173201 131.316045,204.416217 C131.341602,204.424732 152.420972,212.610021 156.200663,215.842699 C159.983193,219.083892 164.731234,229.343885 164.731234,229.343885 L165.020887,229.145213" id="Fill-74" fill="#FFCF1D"></path>
                    <path d="M78.930016,152.033951 L79.114815,164.406053 C79.114815,164.406053 78.4097359,189.723065 78.3045427,193.565421 C78.2107217,196.897353 72.4307791,200.555389 63.5973893,202.180238 C59.3953454,202.954381 64.3223698,209.808236 73.0221357,217.042073 C90.5410762,231.606161 101.535192,221.420374 110.371425,220.425048 C129.68718,218.255747 133.113068,201.366396 124.069292,200.884329 C121.507694,200.748216 118.096021,199.928703 115.113651,196.500357 C111.005428,191.770431 111.770211,171.203194 116.159897,165.942995 C120.549583,160.677124 78.930016,152.033951 78.930016,152.033951" id="Fill-75" fill="#E3896D"></path>
                    <path d="M110.527072,220.30986 C104.466856,279.669442 30.0518458,193.79087 70.0145128,200.398658 C70.0145128,200.398658 78.895422,219.218952 110.527072,220.30986" id="Fill-76" fill="#FF4E64"></path>
                    <path d="M124.249696,200.754803 C124.249696,200.754803 127.077526,214.954578 110.527072,220.333928 C110.527072,220.333928 118.018837,238.714796 129.177147,235.339183 C140.335457,231.96357 137.85048,197.046182 124.249696,200.754803" id="Fill-77" fill="#FF4E64"></path>
                    <path d="M154.878102,107.16474 C155.281337,107.221766 155.678892,107.287346 156.073608,107.370033 L156.084967,107.372885 L156.084967,107.370033 C163.354547,108.901177 168.874885,115.305178 169.025388,123.08065 C169.19293,132.116394 162.034096,139.581075 153.03515,139.752153 C144.036204,139.92323 136.599082,132.735124 136.431541,123.702232 C136.329312,118.450153 138.703285,113.728414 142.480059,110.663275 C142.065466,115.496214 142.82934,121.472522 148.971568,122.074144 L148.795508,112.636369 C148.721676,108.818489 152.268437,107.062094 154.878102,107.16474" id="Fill-78" fill="#DE9A72"></path>
                    <path d="M43.4008234,107.16474 C42.9947504,107.221766 42.600036,107.287346 42.2053216,107.370033 L42.1911232,107.372885 L42.1939629,107.370033 C34.9244029,108.901177 29.4012412,115.305178 29.2535782,123.08065 C29.0831979,132.116394 36.2420107,139.581075 45.2409308,139.752153 C54.2426906,139.92323 61.6769516,132.735124 61.8473319,123.702232 C61.9495601,118.450153 59.5727547,113.728414 55.7988308,110.663275 C56.2134229,115.496214 55.4495512,121.472522 49.3073409,122.074144 L49.4834006,112.636369 C49.557232,108.818489 46.0076422,107.062094 43.4008234,107.16474" id="Fill-79" fill="#DE9A72"></path>
                    <path d="M102.262612,25.8971193 L102.271134,25.8971193 C132.965713,25.8971193 158.087207,50.998115 158.087207,81.6796329 L158.087207,132.418104 C158.087207,163.096783 132.965713,188.200617 102.271134,188.200617 L102.262612,188.200617 C71.5680331,188.200617 46.4436991,163.096783 46.4436991,132.418104 L46.4436991,81.6796329 C46.4436991,50.998115 71.5680331,25.8971193 102.262612,25.8971193" id="Fill-80" fill="#ECA77E"></path>
                    <path d="M46.463604,139.085391 L46.463604,114.627824 C46.463604,114.627824 45.3386648,108.836886 38.1742792,108.836886 C16.2038756,83.6047349 19.1014463,43.5533418 42.557565,22.7871087 C66.0136838,2.02087562 116.394484,0.690179717 125.186622,3.61827816 C133.987283,6.54637661 143.046453,21.4507382 143.046453,21.4507382 C143.046453,21.4507382 150.509118,14.7972587 157.440561,18.2559331 C164.369164,21.7174448 187.561092,65.3750522 187.561092,76.2930007 C187.561092,90.5731552 163.445918,100.446976 158.116661,139.085391 C155.460555,139.085391 155.02876,118.622749 155.02876,115.161238 C155.02876,111.702563 155.02876,107.974345 155.02876,107.974345 C155.02876,107.974345 148.78762,98.09485 148.78762,87.7103148 L131.092553,87.7103148 C129.655131,87.7103148 128.254638,86.1611464 127.936474,84.6431884 C127.615468,83.1252304 126.655293,73.0613106 126.337128,70.6666255 C126.016123,68.269103 125.217871,67.0689231 124.737783,67.710154 C124.257695,68.3485475 123.93669,76.6561757 123.138438,82.0073323 C122.348708,87.2762072 118.775037,87.7018029 118.661407,87.7103148 L67.8914232,88.2664265 C71.1043178,105.857716 47.2760601,139.085391 46.463604,139.085391" id="Fill-81" fill="#0C1017"></path>
                    <path d="M289.650624,144.007308 L207.611352,153.069903 C203.017213,153.578317 199.251498,156.529834 199.251465,159.634315 L199.250074,291.103393 C199.250042,294.202938 203.015702,296.320263 207.609841,295.816785 L289.649114,286.749254 C294.250784,286.24084 298.008967,283.289323 298.009,280.189778 L298.010391,148.715764 C298.010424,145.616219 294.252294,143.493959 289.650624,144.007308" id="Fill-83" fill="#ADB2B7" transform="translate(248.630233, 219.910780) rotate(4.000000) translate(-248.630233, -219.910780) "></path>
                    <path d="M35.3704526,90.5388527 C35.8627786,90.4710168 36.318109,90.8101962 36.3864086,91.2963533 C36.4575539,91.7853369 36.1160561,92.2375761 35.6237302,92.3054119 C35.563968,92.3138914 14.3398798,95.7141647 0.0851924148,65.7928907 C-0.125397895,65.3463045 0.0681175248,64.8149235 0.51491048,64.6029363 C0.961703435,64.3966022 1.49956247,64.5859774 1.71015278,65.0297371 C15.3899855,93.7469243 35.3135363,90.5473322 35.3704526,90.5388527" id="Fill-86" fill="#0C1017"></path>
                    <path d="M142.16199,46.1760184 C141.898582,46.5960362 142.020373,47.1466001 142.436727,47.4133682 C142.855913,47.6772984 143.405387,47.5552662 143.671627,47.1352483 C143.705615,47.0841651 155.488149,29.1908373 133.982192,3.88476208 C133.659305,3.51015156 133.09567,3.46474423 132.721801,3.78827149 C132.347932,4.10612283 132.302614,4.67371451 132.622669,5.04832502 C153.26193,29.3327352 142.193145,46.1277731 142.16199,46.1760184" id="Fill-87" fill="#0C1017"></path>
                    <path d="M296.046206,250.122628 C295.817834,250.359523 297.624998,228.162551 297.624998,228.162551 L308.582655,234.934042 C307.53636,243.543549 296.274578,249.885732 296.046206,250.122628 Z" id="Fill-88" fill="#DE9A72"></path>
                    <path d="M299.700431,194.183666 C303.337791,192.879912 306.458753,192.619161 305.417492,196.796842 C304.379052,200.974523 305.679923,211.418724 305.679923,211.418724 L297.617908,210.636472 C297.617908,210.636472 295.800639,195.751005 299.700431,194.183666" id="Fill-89" fill="#DE9A72"></path>
                    <path d="M308.802776,208.564741 C310.371099,210.964561 309.848325,236.879219 307.492999,238.798509 C305.137674,240.7178 290.085182,241.797577 289.954488,238.798509 C289.823795,235.799442 295.974917,232.92192 295.974917,232.92192 C295.974917,232.92192 286.485426,234.061057 284.652874,229.979385 C282.823164,225.90054 287.863391,224.410899 294.534446,224.015169 C297.225029,223.85405 288.965763,221.906494 285.581935,220.583625 C283.644261,219.823258 282.899876,217.081415 283.280592,214.851194 C283.894283,211.250052 293.704826,213.71771 297.154,213.446353 C297.154,213.446353 288.269677,211.942579 284.533546,210.226807 C281.601463,208.884152 279.376831,203.903608 286.83773,203.830115 C292.417778,203.773582 300.946955,204.980558 300.946955,204.980558 C300.892973,204.994692 305.529754,203.567237 308.802776,208.564741" id="Fill-90" fill="#ECA77E"></path>
                    <path d="M188.230954,247.826402 C192.587024,242.210739 193.267038,236.382038 193.016656,232.592815 C192.766275,228.803591 190.979461,222.528933 192.857322,214.035845 C194.735184,205.539918 197.648716,208.087844 198.738445,213.038831 C199.828174,217.989818 202.522621,224.204826 202.522621,224.204826 C202.522621,224.204826 214.57508,212.754781 219.110401,207.585076 C223.648568,202.415371 228.838295,202.531831 228.795617,206.491485 C228.752938,210.451138 227.233577,210.550555 228.792771,211.056164 C230.349121,211.564613 231.777434,212.382676 231.350647,215.14932 C230.92386,217.918805 230.92386,217.918805 230.92386,217.918805 C230.92386,217.918805 234.292631,218.151726 234.616989,220.719536 C234.935656,223.284505 232.881389,226.769795 232.881389,226.769795 C232.881389,226.769795 236.804982,228.488296 236.167647,230.357343 C235.530312,232.226391 227.375839,242.656697 221.423586,247.158885 C215.471333,251.661073 205.632474,257.330706 202.855515,261.472151 C200.0814,265.610756 188.230954,247.826402 188.230954,247.826402" id="Fill-91" fill="#ECA77E"></path>
                    <path d="M188.454241,247.837046 C191.790367,243.519872 192.959993,239.07497 193.209211,235.529835 C197.360961,244.547365 206.604692,247.859753 216.074985,244.862425 C219.374295,243.817901 223.843231,242.228409 228.422616,240.539574 C226.137172,243.071408 223.667645,245.51809 221.49265,247.170027 C215.568053,251.668857 205.772076,257.334261 203.010852,261.472617 C200.249627,265.608135 188.454241,247.837046 188.454241,247.837046" id="Fill-92" fill="#E49D73"></path>
                    <path d="M191.146345,243.393226 C191.146345,243.393226 200.687428,255.74208 208.438428,256.610409 C208.438428,256.610409 141.105544,364.357801 119.141537,396.715854 C108.616643,412.220931 89.8013022,417.263487 77.0362843,404.193138 C55.1091863,381.741422 22.762245,337.694971 8.14323323,297.138864 C2.36547271,281.114491 -1.43620854,239.431826 19.213252,221.602689 C24.690058,216.875116 33.1707315,229.480086 36.7509556,237.729218 C41.2198475,248.02148 98.1201417,354.61605 98.7873523,354.349308 C100.306321,353.739207 191.146345,243.393226 191.146345,243.393226 Z" id="Fill-93" fill="#ECA77E"></path>
                    <path d="M66.9861045,99.5932359 C94.1408436,97.5159337 135.090452,100.126023 151.611883,101.355967 C150.113553,97.6462965 148.672086,92.7775309 148.672086,87.7925724 L130.962226,87.7925724 C129.523602,87.7925724 128.121939,86.2452232 127.803508,84.7290476 C127.482235,83.2128721 126.521257,73.1607699 126.202826,70.7688968 C125.881552,68.3741896 125.082633,67.175419 124.602144,67.8158969 C124.121655,68.4535408 123.800381,76.7514137 123.001461,82.0962867 C122.211071,87.3589746 118.634413,87.7840705 118.520687,87.7925724 L69.7098235,88.3253593 L67.7082596,88.3480311 C67.7651222,88.6569342 67.8162986,88.9743392 67.8561024,89.2945781 C68.2427681,92.3807747 67.870318,95.8920672 66.9861045,99.5932359" id="Fill-94" fill="#DE9A72"></path>
                </g>
                <g id="girl-desk" transform="translate(462.000000, 353.000000)">
                    <path d="M708.861283,127.488944 L815.668847,249.1803 L812.127736,252.292049 L705.316627,130.597149 L708.861283,127.488944 Z M819.947247,248.067442 L710.530816,123.399014 C709.814795,122.58032 708.563532,122.495261 707.741172,123.211175 L701.229639,128.924318 C700.407279,129.643777 700.322207,130.891312 701.041772,131.713551 L810.458204,256.374891 C811.174224,257.200674 812.421943,257.282189 813.247848,256.566274 L819.75938,250.853131 C820.585285,250.133672 820.666812,248.889681 819.947247,248.067442 L819.947247,248.067442 Z" id="Fill-212" fill="#101522"></path>
                    <path d="M710.31518,119.913859 C704.2633,119.143457 698.733501,123.428599 697.96281,129.481762 C697.19567,135.527825 701.482418,141.059103 707.534299,141.825955 C713.586179,142.592808 719.115978,138.311215 719.886669,132.261602 C720.653809,126.208439 716.370612,120.680711 710.31518,119.913859" id="Fill-213" fill="#0D0E10"></path>
                    <path d="M740.835923,391.658166 L815.801985,248.469857 L811.6374,246.290636 L736.6678,389.478944 L740.835923,391.658166 Z M820.214251,248.554762 L743.415347,395.23124 C742.912908,396.193494 741.724038,396.56849 740.75808,396.069674 L733.094112,392.054388 C732.128155,391.555572 731.749557,390.366906 732.255534,389.397577 L809.050899,242.717561 C809.553339,241.755308 810.745747,241.376774 811.715243,241.879127 L819.375673,245.890876 C820.34163,246.389691 820.71669,247.581895 820.214251,248.554762 L820.214251,248.554762 Z" id="Fill-214" fill="#101522"></path>
                    <path d="M743.667652,399.135579 C737.968125,401.304092 731.586787,398.443501 729.409958,392.750711 C727.236681,387.050823 730.095322,380.669504 735.798399,378.497442 C741.497926,376.32538 747.879264,379.182422 750.056093,384.878761 C752.22937,390.578649 749.370729,396.959968 743.667652,399.135579" id="Fill-215" fill="#0D0E10"></path>
                    <path d="M813.903928,237.953127 C807.851285,237.182724 802.32079,241.464317 801.550002,247.51748 C800.782765,253.567093 805.070054,259.09482 811.122696,259.865223 C817.175338,260.632075 822.705834,256.346933 823.47307,250.29732 C824.243858,244.247707 819.960122,238.716429 813.903928,237.953127" id="Fill-216" fill="#0D0E10"></path>
                    <path d="M746.364159,429.537754 L604.957405,429.537754 C593.686674,429.537754 584.463878,420.350197 584.463878,409.12253 C584.463878,397.894862 593.686674,388.703775 604.957405,388.703775 L746.364159,388.703775 C757.63489,388.703775 766.857686,397.894862 766.857686,409.12253 C766.857686,420.350197 757.63489,429.537754 746.364159,429.537754" id="Fill-217" fill="#101522"></path>
                    <path d="M840.571769,429.537754 L699.167762,429.537754 C687.89725,429.537754 678.674633,420.350197 678.674633,409.12253 C678.674633,397.894862 687.89725,388.703775 699.167762,388.703775 L840.571769,388.703775 C851.842281,388.703775 861.068441,397.894862 861.068441,409.12253 C861.068441,420.350197 851.842281,429.537754 840.571769,429.537754" id="Fill-218" fill="#0D0E10"></path>
                    <path d="M611.504704,130.075161 L669.946351,220.259782 C670.547857,221.19087 671.549188,221.668806 672.649591,221.559058 C673.749994,221.445769 674.6381,220.77666 675.041463,219.746444 L708.824889,133.778275 C709.178716,132.882589 709.086721,131.962121 708.563057,131.154941 C708.042931,130.351302 707.236205,129.887527 706.277333,129.845044 L614.048722,125.628593 C612.944781,125.58257 611.971756,126.117149 611.423324,127.07656 C610.871353,128.035971 610.903198,129.147613 611.504704,130.075161" id="Fill-219" fill="#0D0E10"></path>
                    <polyline id="Fill-220" fill="#FFFFFE" points="676.636948 215.549855 681.57686 202.97515 631.880706 126.245378 618.39761 125.625847 676.636948 215.549855"></polyline>
                    <path d="M699.421583,119.89551 L675.373736,135.550705 C668.758988,139.855795 666.856938,148.81024 671.145388,155.450654 C675.433838,162.08752 684.353673,164.000499 690.968422,159.695409 L715.016269,144.040214 C721.631018,139.735124 723.533067,130.78068 719.244617,124.140265 C714.956167,117.49985 706.036332,115.59042 699.421583,119.89551" id="Fill-221" fill="#0D0E10"></path>
                    <path d="M710.678151,129.48595 C708.556356,130.861025 707.951644,133.692479 709.327275,135.813419 C710.702905,137.934358 713.535502,138.535291 715.657297,137.160215 C717.779093,135.788674 718.380268,132.95722 717.004637,130.836281 C715.629007,128.718877 712.79641,128.110874 710.678151,129.48595" id="Fill-222" fill="#0D0E10"></path>
                    <path d="M218.365754,563.581095 C218.365754,563.581095 324.316432,562.617721 337.416717,563.740477 C350.52409,564.863233 363.145874,578.647986 360.969582,599.923682 C358.79329,621.206462 329.133339,787.034347 329.133339,787.034347 C329.133339,787.034347 327.134269,788.511284 324.830377,788.982346 C322.526485,789.453408 303.574315,792.580833 303.574315,792.580833 L302.291224,777.19872 L313.385351,615.886652 L215.657795,598.064228 L218.365754,563.581095" id="Fill-223" fill="#0C1014"></path>
                    <path d="M152.502113,498.040658 C152.502113,498.040658 435.739789,530.717758 451.238295,534.068348 C466.740346,537.415395 479.72194,555.833011 473.858598,580.941179 C467.991712,606.05289 404.512356,807.711612 404.512356,807.711612 C404.512356,807.711612 401.896186,809.174396 399.067318,809.386907 C396.238451,809.595876 373.097041,810.431752 373.097041,810.431752 L363.986528,801.116689 L414.686352,621.112832 L207.757194,610.653752 C149.708696,601.30327 141.82828,530.68234 152.502113,498.040658" id="Fill-224" fill="#131625"></path>
                    <path d="M482.171871,377.665385 C522.925667,388.253546 530.637557,378.626116 543.855471,398.836678 C557.067626,419.037179 557.067626,419.037179 557.067626,419.037179 L468.953957,406.527556 L482.171871,377.665385" id="Fill-175" fill="#E3816B"></path>
                    <path d="M631.778049,397.406099 L385.79095,397.406099 C379.410329,397.406099 374.164041,402.681176 374.164041,409.122548 C374.164041,415.560354 379.410329,420.835431 385.79095,420.835431 L631.778049,420.835431 C638.155124,420.835431 643.401412,415.560354 643.401412,409.122548 C643.401412,402.681176 638.155124,397.406099 631.778049,397.406099" id="Fill-225" fill="#101522"></path>
                    <path d="M674.402857,397.406099 L548.547427,397.406099 C542.151844,397.406099 536.912004,402.681176 536.912004,409.122548 C536.912004,415.560354 542.151844,420.835431 548.547427,420.835431 L674.402857,420.835431 C680.801985,420.835431 686.041825,415.560354 686.041825,409.122548 C686.041825,402.681176 680.801985,397.406099 674.402857,397.406099" id="Fill-226" fill="#0C1014"></path>
                    <path d="M1173.8391,413.695063 L70.9895141,413.695063 C62.1532486,413.695063 54.9190657,419.427614 54.9190657,426.438009 L54.9190657,449.826108 C54.9190657,456.832954 62.1497042,462.561955 70.9895141,462.561955 L1173.8391,462.561955 C1182.68245,462.561955 1189.91309,456.832954 1189.91309,449.826108 L1189.91309,426.438009 C1189.91309,419.427614 1182.68245,413.695063 1173.8391,413.695063" id="Fill-227" fill="#0D0E10"></path>
                    <path d="M894.909057,409.232333 L42.729984,409.232333 C40.3481302,409.232333 38.3986964,411.17037 38.3986964,413.546141 L38.3986964,433.696073 C38.3986964,436.071844 40.3481302,438.016941 42.729984,438.016941 L894.909057,438.016941 C897.294455,438.016941 899.243889,436.071844 899.243889,433.696073 L899.243889,413.546141 C899.243889,411.17037 897.290911,409.232333 894.909057,409.232333" id="Fill-228" fill="#C77D4B"></path>
                    <path d="M475.072243,409.232333 L42.7333561,409.232333 C40.3480527,409.232333 38.3986964,411.17037 38.3986964,413.546141 L38.3986964,433.696073 C38.3986964,436.071844 40.3480527,438.016941 42.7333561,438.016941 L446.923537,438.016941 C454.657166,427.454818 464.605972,417.768166 475.072243,409.232333" id="Fill-229" fill="#A66341"></path>
                    <path d="M195.659951,276.723131 C195.659951,276.723131 179.841246,301.849127 178.286643,314.881356 C176.735581,327.910043 224.202319,371.961102 235.679467,386.849007 C247.156616,401.740453 232.577344,406.705449 228.232246,405.777611 C223.887149,404.84269 145.40626,343.11313 140.444987,334.114518 C135.480173,325.119447 139.198472,294.405175 156.260151,265.865302 C173.321829,237.325429 195.659951,276.723131 195.659951,276.723131" id="Fill-230" fill="#826450"></path>
                    <path d="M194.813744,307.10152 C194.813744,307.10152 215.962555,368.718948 217.780169,378.410185 C219.601326,388.101422 194.51258,491.950265 190.905697,514.101664 C190.905697,514.101664 190.501782,516.180128 192.737483,517.22113 C192.737483,517.22113 228.728372,512.373741 268.418265,514.448665 C308.108158,516.530669 329.359718,531.653531 358.887978,518.155908 C358.887978,518.155908 361.371696,517.465447 360.259161,511.927598 C359.150168,506.389748 337.710823,407.668019 338.362755,379.971689 C338.621402,368.757898 338.28835,350.285416 337.813573,331.717332 C337.119124,304.421115 354.129584,268.609216 354.285481,263.666225 C354.547671,255.35591 334.589345,216.562636 279.706606,188.784867 C224.820324,161.017721 183.532489,238.048359 194.813744,307.10152" id="Fill-231" fill="#E6711D"></path>
                    <path d="M328.369035,50.2057115 L335.542097,71.5729284 C335.542097,71.5729284 326.458106,129.613686 318.810851,140.453156 C311.167135,151.292626 304.160396,155.75948 290.461866,152.89375 C276.759797,150.020937 277.400312,128.338454 276.444847,121.958753 C275.485844,115.579052 285.044028,57.2230286 328.369035,50.2057115" id="Fill-232" fill="#EBA87F"></path>
                    <path d="M333.10744,64.4333682 L335.542097,71.6711557 C335.542097,71.6711557 334.314152,79.4817431 332.385536,89.9052885 C322.27534,93.1935847 292.362323,110.780666 290.249692,126.359411 C288.653718,138.183134 290.617722,146.251835 294.733283,153.517909 C293.381482,153.380013 291.958906,153.150186 290.462017,152.842571 C276.759994,149.975035 277.400507,128.332389 276.445046,121.964409 C276.052245,119.358522 277.418201,108.082849 282.135349,95.1807056 C283.752556,94.3780785 285.387456,93.8335649 287.004663,93.5719156 C302.798084,91.0367453 318.025306,67.7923805 318.446417,64.4121534 C318.871066,61.0283905 321.298646,62.2447065 321.298646,62.2447065 C325.474366,64.5712645 329.448377,65.0592052 333.10744,64.4333682" id="Fill-233" fill="#E3816B"></path>
                    <path d="M269.146788,215.75707 C299.064032,266.879154 358.207713,358.597145 370.674117,369.739592 C376.45918,374.914135 381.227517,378.296537 386.970069,381.158297 C393.591186,384.448613 401.526606,387.048281 413.840679,390.876948 C436.832142,398.024264 485.468476,404.208216 491.218114,403.351104 C496.960666,402.501077 498.646943,383.959847 496.500128,380.598696 C494.356856,377.237544 424.057532,342.570581 407.364809,333.54612 C390.668542,324.521659 358.10852,256.604444 345.14261,231.921764 C312.100794,169.033879 239.233087,164.64207 269.146788,215.75707" id="Fill-234" fill="#E6711D"></path>
                    <path d="M323.966472,78.038862 C357.202379,79.0274278 354.046174,18.3528769 333.257773,3.15589322 C320.171933,-6.41441523 281.0208,8.80382793 262.186409,9.12272011 C243.348473,9.43806903 189.274517,13.0450938 193.104519,99.1672401 C196.938067,185.29293 152.882404,208.894494 140.746971,260.569199 C128.618631,312.243904 263.342503,359.447032 288.879397,254.825596 C288.879397,254.825596 290.797944,219.102587 315.061717,205.705572 C339.321944,192.305014 325.133204,180.133963 311.228168,162.963391 C297.319587,145.792819 286.326062,137.126038 289.521277,113.520931 C292.709399,89.9193671 315.682319,102.186086 324.470046,75.1582027 L323.966472,78.038862" id="Fill-235" fill="#362D22"></path>
                    <path d="M323.969672,77.8640892 C342.492308,78.4131814 349.70915,59.8148981 348.872209,40.6108422 C343.102282,47.2955966 332.672439,55.8082965 320.636094,49.1058295 C320.636094,49.1058295 318.203291,47.8871991 317.777728,51.273858 C317.352165,54.6640593 302.09218,77.9526525 286.268323,80.4926466 C270.444467,83.0326407 253.088583,112.233717 266.497368,150.400937 C279.9097,188.568156 255.748352,240.838189 215.053876,243.658043 C187.97742,245.535584 165.911971,240.413085 154.670011,225.304194 C148.857527,236.176219 143.796872,247.384784 140.747003,260.35753 C128.618453,312.021789 263.341108,359.215376 288.88199,254.615088 C288.88199,254.615088 290.800571,218.899299 315.064763,205.504993 C339.325409,192.107144 325.139971,179.938553 311.231148,162.771452 C297.322326,145.604351 286.328611,136.939322 289.520335,113.338986 C292.712059,89.7421928 315.685376,102.009975 324.473255,74.9840122 L323.969672,77.8640892" id="Fill-236" fill="#0D0E10"></path>
                    <path d="M1201.42908,409.232333 L895.988082,409.232333 C893.602794,409.232333 891.653449,411.17037 891.653449,413.546141 L891.653449,433.696073 C891.653449,436.071844 893.602794,438.016941 895.988082,438.016941 L1201.42908,438.016941 C1203.81437,438.016941 1205.76372,436.071844 1205.76372,433.696073 L1205.76372,413.546141 C1205.76372,411.17037 1203.80728,409.232333 1201.42908,409.232333" id="Fill-237" fill="#A66341"></path>
                    <path d="M302.266411,777.407551 C302.266411,777.407551 300.051851,778.011923 299.071925,780.839395 C298.095537,783.666866 296.072009,801.942936 296.263042,804.558348 C296.454074,807.173759 302.973939,812.220796 314.138721,816.960345 C325.299966,821.692826 367.794061,834.084221 367.794061,834.084221 L368.261029,832.539714 C368.261029,832.539714 370.252719,831.670267 371.069913,829.061924 C371.88357,826.453582 371.607634,820.667868 369.283406,817.366794 C366.959179,814.065721 353.233147,804.671447 350.732038,802.653339 C348.230929,800.642299 335.806748,783.362913 334.798521,782.207184 C333.790295,781.044386 327.220903,776.895072 319.462865,781.217569 C311.704827,785.540066 302.913799,784.006163 302.266411,777.407551" id="Fill-238" fill="#285173"></path>
                    <path d="M368.208385,832.677294 C368.208385,832.677294 325.826078,817.113036 316.531619,813.836537 C307.23716,810.56358 296.304584,801.729429 296.304584,801.729429 C296.304584,801.729429 294.80445,802.409524 294.486026,803.652823 C294.164063,804.892579 293.9164,809.224643 293.810258,810.145605 C293.704117,811.063024 294.019003,815.161305 298.660925,817.152 C303.306386,819.146237 362.515662,840.030821 365.222271,840.923446 C367.928879,841.823155 369.018599,834.643193 369.018599,834.643193 C369.018599,834.643193 369.184887,833.109437 368.208385,832.677294" id="Fill-239" fill="#9EB1AC"></path>
                    <path d="M250.611677,541.106002 C245.363429,541.106002 241.108093,536.855454 241.108093,531.621016 C241.108093,526.386577 245.363429,522.136029 250.611677,522.136029 L334.416975,522.136029 C345.849644,522.136029 356.253941,517.457241 363.80007,509.925879 C369.314276,504.422463 373.300108,497.397203 375.048342,489.561471 C380.594463,491.759299 386.587394,494.739283 392.470397,497.988245 C389.541307,507.678503 384.236321,516.353019 377.236293,523.33227 C366.25398,534.296631 351.097892,541.106002 334.416975,541.106002 L250.611677,541.106002" id="Fill-240" fill="#6C6B78"></path>
                    <polygon id="Fill-241" fill="#0C1014" points="226.150462 814.225073 250.038023 814.225073 250.038023 616.303001 226.150462 616.303001"></polygon>
                    <polygon id="Fill-242" fill="#6C6B78" points="258.744704 603.361084 282.185769 603.361084 282.185769 549.808325 258.744704 549.808325"></polygon>
                    <polygon id="Fill-243" fill="#6C6B78" points="96.6664856 603.361084 120.10755 603.361084 120.10755 549.808325 96.6664856 549.808325"></polygon>
                    <path d="M250.143461,664.946757 L226.045024,664.946757 C218.366043,664.946757 212.085823,658.683297 212.085823,651.031891 L212.085823,625.315945 C212.085823,617.657458 218.366043,611.393998 226.045024,611.393998 L250.143461,611.393998 C257.822441,611.393998 264.102662,617.657458 264.102662,625.315945 L264.102662,651.031891 C264.102662,658.683297 257.822441,664.946757 250.143461,664.946757" id="Fill-244" fill="#31364C"></path>
                    <path d="M269.259841,647.765247 L206.921559,647.765247 C204.728719,647.765247 202.932645,645.980468 202.932645,643.790059 L202.932645,611.579393 C202.932645,609.388983 204.728719,607.600678 206.921559,607.600678 L269.259841,607.600678 C271.456223,607.600678 273.255839,609.388983 273.255839,611.579393 L273.255839,643.790059 C273.255839,645.980468 271.456223,647.765247 269.259841,647.765247" id="Fill-245" fill="#0C1014"></path>
                    <path d="M422.829683,591.981123 L227.719217,591.981123 C220.34907,591.981123 214.318305,598.023124 214.318305,605.407002 L214.318305,620.504905 C214.318305,627.892333 220.34907,633.930784 227.719217,633.930784 L422.829683,633.930784 C430.199829,633.930784 436.227051,627.892333 436.227051,620.504905 L436.227051,605.407002 C436.227051,598.023124 430.199829,591.981123 422.829683,591.981123" id="Fill-246" fill="#FFCF1D"></path>
                    <path d="M281.070383,591.981123 L85.9532582,591.981123 C78.5829936,591.981123 72.5556763,598.023124 72.5556763,605.407002 L72.5556763,620.504905 C72.5556763,627.892333 78.5829936,633.930784 85.9532582,633.930784 L281.070383,633.930784 C288.437104,633.930784 294.464422,627.892333 294.464422,620.504905 L294.464422,605.407002 C294.464422,598.023124 288.437104,591.981123 281.070383,591.981123" id="Fill-247" fill="#FFDF69"></path>
                    <path d="M250.143461,801.283156 L226.045024,801.283156 C218.366043,801.283156 212.085823,807.546616 212.085823,815.205103 L212.085823,840.917509 C212.085823,848.572455 218.366043,854.835915 226.045024,854.835915 L250.143461,854.835915 C257.822441,854.835915 264.102662,848.572455 264.102662,840.917509 L264.102662,815.205103 C264.102662,807.546616 257.822441,801.283156 250.143461,801.283156" id="Fill-248" fill="#31364C"></path>
                    <path d="M267.492108,826.720716 L208.696377,826.720716 C205.525793,826.720716 202.932645,829.313192 202.932645,832.486496 L202.932645,879.200645 C202.932645,882.366866 205.525793,884.959342 208.696377,884.959342 L267.492108,884.959342 C270.659149,884.959342 273.255839,882.366866 273.255839,879.200645 L273.255839,832.486496 C273.255839,829.313192 270.659149,826.720716 267.492108,826.720716" id="Fill-249" fill="#0C1014"></path>
                    <path d="M174.356871,870.7884 L174.356871,870.7884 C174.356871,880.301634 182.127174,888.083253 191.626572,888.083253 L284.785161,888.083253 C294.284559,888.083253 302.054861,880.301634 302.054861,870.7884 C302.054861,861.278715 294.284559,853.497096 284.785161,853.497096 L191.626572,853.497096 C182.127174,853.497096 174.356871,861.278715 174.356871,870.7884" id="Fill-250" fill="#6C6B78"></path>
                    <path d="M83.718088,887.968136 L83.718088,887.968136 C83.718088,897.48749 91.5000985,905.264763 100.998051,905.264763 L337.911523,905.264763 C347.409476,905.264763 355.187941,897.48749 355.187941,887.968136 C355.187941,878.462975 347.409476,870.678606 337.911523,870.678606 L100.998051,870.678606 C91.5000985,870.678606 83.718088,878.462975 83.718088,887.968136" id="Fill-251" fill="#101522"></path>
                    <path d="M231.731668,887.968136 L231.731668,887.968136 C231.731668,897.48749 239.511053,905.264763 249.021556,905.264763 L375.403757,905.264763 C384.914259,905.264763 392.693645,897.48749 392.693645,887.968136 C392.693645,878.462975 384.914259,870.678606 375.403757,870.678606 L249.021556,870.678606 C239.511053,870.678606 231.731668,878.462975 231.731668,887.968136" id="Fill-252" fill="#0D0E10"></path>
                    <path d="M285.877786,477.512101 C280.637009,477.512101 276.381315,481.762527 276.381315,487.004719 C276.381315,492.246911 280.637009,496.493794 285.877786,496.493794 L369.620364,496.493794 C381.048021,496.493794 391.444532,501.179889 398.985013,508.717311 C406.525495,516.258275 411.209949,526.643482 411.209949,538.066502 L411.209949,613.50802 C411.209949,618.74667 415.458557,622.997096 420.702877,622.997096 C425.947197,622.997096 430.199348,618.74667 430.199348,613.50802 L430.199348,538.066502 C430.199348,521.408374 423.385276,506.26269 412.411181,495.296591 C401.433544,484.323408 386.288798,477.512101 369.620364,477.512101 L285.877786,477.512101" id="Fill-253" fill="#6C6B78"></path>
                    <path d="M100.015209,376.301327 C100.015209,319.0593 146.839698,272.226525 204.063723,272.226525 L217.875441,272.226525 C275.099466,272.226525 321.923954,319.0593 321.923954,376.301327 C321.923954,416.173335 321.923954,491.217771 321.923954,531.08978 C321.923954,545.801665 309.887421,557.841239 295.179252,557.841239 L126.759911,557.841239 C112.051742,557.841239 100.015209,545.801665 100.015209,531.08978 C100.015209,491.217771 100.015209,416.173335 100.015209,376.301327" id="Fill-254" fill="#FFCF1D"></path>
                    <path d="M72.5556763,376.301327 C72.5556763,319.0593 119.380912,272.226525 176.609395,272.226525 L190.41779,272.226525 C247.642729,272.226525 294.464422,319.0593 294.464422,376.301327 C294.464422,416.173335 294.464422,491.217771 294.464422,531.08978 C294.464422,545.801665 282.431239,557.841239 267.719292,557.841239 L99.3043488,557.841239 C84.5924018,557.841239 72.5556763,545.801665 72.5556763,531.08978 C72.5556763,491.217771 72.5556763,416.173335 72.5556763,376.301327" id="Fill-255" fill="#FFDF69"></path>
                    <path d="M366.437198,793.919652 C366.437198,793.919652 362.815247,793.958677 360.511658,796.995567 C358.208069,800.032458 350.039188,820.992679 349.620998,824.136003 C349.202808,827.279326 357.99543,835.247616 374.11701,844.25895 C390.245677,853.270284 453.162012,880.942885 453.162012,880.942885 L454.313806,879.261242 C454.313806,879.261242 457.662871,878.839058 459.654589,876.011485 C461.642764,873.183913 462.794558,866.265763 460.072779,861.657211 C457.351,857.045111 438.507641,841.736486 435.158577,838.59671 C431.805969,835.449839 417.148054,811.239861 415.893484,809.565314 C414.63537,807.887219 405.527333,800.965521 392.230308,803.693756 C378.933283,806.414895 365.636258,801.912776 366.437198,793.919652" id="Fill-256" fill="#285173"></path>
                    <path d="M454.086632,879.22372 C454.086632,879.22372 392.268537,847.876951 378.672804,841.170432 C365.077072,834.456815 350.451038,820.696031 350.451038,820.696031 C350.451038,820.696031 347.923082,821.043776 347.087511,822.406371 C346.248399,823.765417 344.679933,828.800629 344.262148,829.847414 C343.844362,830.894199 343.214143,835.81941 349.909333,839.594932 C356.604523,843.366906 443.206505,886.136048 447.179008,888.023809 C451.155052,889.904474 454.815986,881.782133 454.815986,881.782133 C454.815986,881.782133 455.495773,880.029212 454.086632,879.22372" id="Fill-257" fill="#9EB1AC"></path>
                    <path d="M16.4075323,922 L1216.59601,922 C1225.62033,922 1233,914.619938 1233,905.599468 C1233,896.578998 1225.62033,889.198935 1216.59601,889.198935 L16.4075323,889.198935 C7.3796678,889.198935 0,896.578998 0,905.599468 C0,914.619938 7.3796678,922 16.4075323,922" id="Fill-258" fill="#0D0E10"></path>
                </g>
                <g id="pot" transform="translate(270.000000, 854.000000)">
                    <path d="M184.053475,154.044222 C216.393114,136.797859 224.599375,174.330142 212.024462,205.40857 C199.449549,236.482835 134.940372,341.014447 131.571573,382.473171 C130.264712,398.541185 127.281748,396.784071 124.726108,385.516891 C111.981096,329.318398 139.537206,177.79024 184.053475,154.044222" id="Fill-133" fill="#274435"></path>
                    <path d="M115.689348,11.6084157 C78.7058241,-21.8965963 55.5838807,25.0045907 61.9767588,70.2525972 C68.3696368,115.500604 119.160949,275.04709 110.016444,330.976225 C106.4745,352.654959 110.984686,351.318256 118.043747,337.26414 C153.268712,267.185114 166.596518,57.739229 115.689348,11.6084157" id="Fill-134" fill="#49876A"></path>
                    <path d="M108.923413,346.513338 C109.721393,348.595868 111.497002,347.562933 113.874229,344.105933 C152.791406,214.868298 92.1658395,21.7761331 91.973656,21.1555393 C91.6436015,20.0976141 90.5113895,19.4978455 89.446024,19.8268852 C88.3806584,20.1559249 87.7832181,21.2846561 88.1090947,22.3467463 C88.3012782,22.9715053 149.749892,218.700153 108.923413,346.513338" id="Fill-135" fill="#15674D"></path>
                    <path d="M34.3003338,118.908498 C-1.65003836,103.208184 -7.29582429,143.952352 8.71163936,176.061139 C24.7149517,208.178258 102.261482,314.339707 109.302109,358.303918 C112.029522,375.341404 115.072435,373.221091 116.861651,360.982428 C125.799428,299.939074 83.7922897,140.524027 34.3003338,118.908498" id="Fill-136" fill="#9AC267"></path>
                    <path d="M183.165909,195.242625 L135.138426,325.137495" id="Path-2" stroke="#132019" stroke-width="8" stroke-linecap="round"></path>
                    <path d="M112.654405,369.488529 C113.756481,370.833172 114.812982,369.630071 115.712043,366.462042 C112.463821,260.584936 19.8770443,131.865551 19.5828813,131.453416 C19.0774181,130.741546 18.0913505,130.579189 17.3870165,131.087073 C16.6785393,131.594957 16.5169568,132.585746 17.02242,133.297616 C17.3165831,133.713914 111.167017,264.198404 112.654405,369.488529" id="Fill-137" fill="#578E4B"></path>
                    <polyline id="Fill-138" fill="#C77D4B" points="85.3871555 346.403318 154.281439 346.403318 172.274205 362.727131 157.577697 419.652263 82.0950382 419.652263 67.3985297 362.727131 85.3871555 346.403318"></polyline>
                    <path d="M67.227642,325.137495 L172.445093,325.137495 C175.594346,325.137495 178.166097,327.699216 178.166097,330.831126 L178.166097,356.663186 C178.166097,359.790965 175.594346,362.352685 172.445093,362.352685 L67.227642,362.352685 C64.0825438,362.352685 61.5066378,359.790965 61.5066378,356.663186 L61.5066378,330.831126 C61.5066378,327.699216 64.0825438,325.137495 67.227642,325.137495" id="Fill-139" fill="#C77D4B"></path>
                    <polyline id="Fill-140" fill="#A66341" points="172.274205 362.352685 169.251255 374.167031 70.4173392 374.167031 67.3985297 362.352685 172.274205 362.352685"></polyline>
                </g>
            </g>
        </g>
    </g>
</svg>