<?xml version="1.0" encoding="UTF-8"?>
<svg width="783px" height="598px" viewBox="0 0 783 598" version="1.1" xmlns="http://www.w3.org/2000/svg" xmlns:xlink="http://www.w3.org/1999/xlink">
    <!-- Generator: Sketch 54.1 (76490) - https://sketchapp.com -->
    <title>illustration-1</title>
    <desc>Created with Sketch.</desc>
    <defs>
        <linearGradient x1="43.0234224%" y1="54.5741687%" x2="28.6880265%" y2="93.1528036%" id="linearGradient-1">
            <stop stop-color="#FFF0CE" offset="0%"></stop>
            <stop stop-color="#FFDCA0" offset="100%"></stop>
        </linearGradient>
        <polygon id="path-2" points="20.0426304 342.673531 491.722546 342.673531 491.722546 0 20.0426304 0"></polygon>
        <filter x="-10.2%" y="-14.0%" width="120.4%" height="128.0%" filterUnits="objectBoundingBox" id="filter-3">
            <feOffset dx="0" dy="0" in="SourceAlpha" result="shadowOffsetOuter1"></feOffset>
            <feGaussianBlur stdDeviation="16" in="shadowOffsetOuter1" result="shadowBlurOuter1"></feGaussianBlur>
            <feColorMatrix values="0 0 0 0 0   0 0 0 0 0   0 0 0 0 0  0 0 0 0.12 0" type="matrix" in="shadowBlurOuter1"></feColorMatrix>
        </filter>
        <linearGradient x1="0%" y1="49.9972526%" x2="99.9995176%" y2="49.9972526%" id="linearGradient-4">
            <stop stop-color="#32C5FF" offset="0%"></stop>
            <stop stop-color="#FA6400" stop-opacity="0.29955201" offset="100%"></stop>
        </linearGradient>
        <polygon id="path-5" points="5.68434189e-14 7.10542736e-13 172.453546 7.10542736e-13 172.453546 97.786564 5.68434189e-14 97.786564"></polygon>
        <filter x="-54.5%" y="-67.8%" width="209.7%" height="236.0%" filterUnits="objectBoundingBox" id="filter-7">
            <feOffset dx="12" dy="2" in="SourceAlpha" result="shadowOffsetOuter1"></feOffset>
            <feGaussianBlur stdDeviation="6" in="shadowOffsetOuter1" result="shadowBlurOuter1"></feGaussianBlur>
            <feColorMatrix values="0 0 0 0 0   0 0 0 0 0   0 0 0 0 0  0 0 0 0.12 0" type="matrix" in="shadowBlurOuter1" result="shadowMatrixOuter1"></feColorMatrix>
            <feMerge>
                <feMergeNode in="shadowMatrixOuter1"></feMergeNode>
                <feMergeNode in="SourceGraphic"></feMergeNode>
            </feMerge>
        </filter>
    </defs>
    <g id="Website" stroke="none" stroke-width="1" fill="none" fill-rule="evenodd">
        <g id="Desktop-HD" transform="translate(-23.000000, -1039.000000)">
            <g id="Group-11" transform="translate(23.000000, 1069.000000)">
                <g id="illustration-1" transform="translate(0.000000, 2.000000)">
                    <path d="M720.080815,252.286047 C754.687613,252.286047 783,223.98674 783,189.398447 C783,154.810154 754.687613,126.509715 720.080815,126.509715 L131.597507,126.509715 C75.5597889,126.509715 29.7128072,172.334814 29.7128072,228.343268 C29.7128072,284.351722 75.5597889,330.175688 131.596374,330.176821 C155.290517,330.176821 174.674676,349.551249 174.674676,373.23463 C174.674676,396.915745 155.289383,416.291306 131.596374,416.291306 L79.7507747,416.291306 C55.1171169,416.291306 34.9634392,436.434867 34.9634392,461.057291 C34.9634392,485.678582 55.1171169,505.822143 79.7507747,505.822143 L145.310576,505.822143 C154.901791,505.822143 162.747706,513.665252 162.747706,523.251652 C162.747706,532.835786 154.901791,540.678896 145.310576,540.678896 L133.754199,540.678896 C127.136793,540.678896 121.720698,546.092272 121.720698,552.707489 C121.720698,559.321572 127.136793,564.734949 133.754199,564.734949 C154.491269,566.090277 168.929279,566.090277 177.06823,564.734949 C189.276655,562.701956 227.339659,545.877051 267.682147,545.877051 C330.047143,545.877051 321.557507,545.877051 383.922503,545.877051 C392.558337,545.877051 399.624534,538.811003 399.624534,530.181771 C399.624534,521.54914 392.558337,514.48649 383.922503,514.48649 L368.841528,514.48649 C356.328636,514.48649 346.089167,504.253294 346.089167,491.746684 C346.089167,479.238941 356.328636,469.00348 368.841528,469.00348 L391.534956,469.00348 C452.819907,469.00348 461.47614,452.997828 472.209732,421.157568 C482.944459,389.320707 538.686383,386.751647 538.686383,386.751647 L581.678553,386.751647 C600.535722,386.751647 615.965758,371.331623 615.965758,352.482787 C615.965758,333.633951 600.535722,318.211662 581.678553,318.211662 L577.753895,318.211662 C559.614112,318.211662 544.772265,303.378398 544.772265,285.248854 C544.772265,267.11931 559.614112,252.286047 577.753895,252.286047 L720.080815,252.286047 Z" id="bg-effect" fill="url(#linearGradient-1)" transform="translate(406.356404, 346.130580) scale(-1, 1) translate(-406.356404, -346.130580) "></path>
                    <g id="monitor">
                        <path d="M82.7769187,340.788935 C53.5933115,340.788935 29.9353922,317.075555 29.9353922,287.823534 C29.9353922,258.571513 53.5933115,234.858133 82.7769187,234.858133 C111.960526,234.858133 135.618445,258.571513 135.618445,287.823534 C135.618445,317.075555 111.960526,340.788935 82.7769187,340.788935 Z M151.39279,270.150748 C149.720465,263.66735 147.153574,257.549054 143.840262,251.921362 L151.532388,240.346515 L140.863125,229.667306 L130.19956,218.988098 L118.638581,226.683746 C113.014782,223.366459 106.900967,220.799342 100.428186,219.125011 L97.6903594,205.507879 L67.5258325,205.507879 L64.7880056,219.125011 C58.3152246,220.799342 52.2014095,223.366459 46.5833091,226.683746 L35.0194807,218.988098 L13.6895021,240.346515 L21.3759295,251.921362 C18.0626178,257.549054 15.498576,263.66735 13.8234021,270.150748 L0.222584939,272.891859 L0.222584939,303.095421 L13.8234021,305.833679 C15.498576,312.314225 18.0626178,318.435373 21.3759295,324.063065 L13.6895021,335.637912 L35.0194807,356.996329 L46.5833091,349.297829 C52.2014095,352.615115 58.3152246,355.185085 64.7880056,356.859416 L67.5258325,370.476548 L97.6903594,370.476548 L100.428186,356.859416 C106.900967,355.185085 113.014782,352.615115 118.638581,349.297829 L130.19956,356.996329 L140.863125,346.317121 L151.532388,335.637912 L143.840262,324.063065 C147.153574,318.435373 149.720465,312.314225 151.39279,305.833679 L164.993607,303.095421 L164.993607,272.891859 L151.39279,270.150748 L151.39279,270.150748 Z" id="Fill-343" fill="#DFE1E8" opacity="0.75"></path>
                        <g id="device" transform="translate(103.657180, 0.000000)">
                            <polygon id="Fill-345" fill="#4DA8F2" points="225.206707 486.534357 284.537125 486.534357 284.537125 306.721418 225.206707 306.721418"></polygon>
                            <path d="M26.0294788,399.211934 L485.735697,399.211934 C500.11005,399.211934 511.762901,387.565856 511.762901,373.199857 L511.762901,64.4138909 C511.762901,50.0478922 500.11005,38.3995392 485.735697,38.3995392 L26.0294788,38.3995392 C11.6551264,38.3995392 0,50.0478922 0,64.4138909 L0,373.199857 C0,387.565856 11.6551264,399.211934 26.0294788,399.211934" id="Fill-346" fill="#B5DEFF"></path>
                            <g id="Fill-347">
                                <use fill="black" fill-opacity="1" filter="url(#filter-3)" xlink:href="#path-2"></use>
                                <use fill="#FFFFFF" fill-rule="evenodd" xlink:href="#path-2"></use>
                            </g>
                            <polygon id="Fill-348" fill="#FFFFFF" points="20.0426304 41.3878125 491.722546 41.3878125 491.722546 0 20.0426304 0"></polygon>
                            <polygon id="Fill-348" fill="url(#linearGradient-4)" points="20.0426304 41.3878125 491.722546 41.3878125 491.722546 0 20.0426304 0"></polygon>
                            <path d="M239.373814,368.544609 C239.373814,377.654977 246.766923,385.041515 255.882588,385.041515 C265.000529,385.041515 272.389087,377.654977 272.389087,368.544609 C272.389087,359.431968 265.000529,352.045429 255.882588,352.045429 C246.766923,352.045429 239.373814,359.431968 239.373814,368.544609" id="Fill-350" fill="#4DA8F2"></path>
                            <path d="M296.907212,84.9264438 L437.783603,84.9264438 C440.948828,84.9264438 443.51332,82.3634423 443.51332,79.2000571 L443.51332,78.3859004 C443.51332,75.2247894 440.948828,72.6617879 437.783603,72.6617879 L296.907212,72.6617879 C293.744263,72.6617879 291.179771,75.2247894 291.179771,78.3859004 L291.179771,79.2000571 C291.179771,82.3634423 293.744263,84.9264438 296.907212,84.9264438" id="Fill-351" fill="#DFE1E8"></path>
                            <path d="M296.907212,107.045124 L437.783603,107.045124 C440.948828,107.045124 443.51332,104.482123 443.51332,101.321012 L443.51332,100.506855 C443.51332,97.3434698 440.948828,94.7804683 437.783603,94.7804683 L296.907212,94.7804683 C293.744263,94.7804683 291.179771,97.3434698 291.179771,100.506855 L291.179771,101.321012 C291.179771,104.482123 293.744263,107.045124 296.907212,107.045124" id="Fill-352" fill="#DFE1E8"></path>
                            <path d="M296.907212,129.163805 L437.783603,129.163805 C440.948828,129.163805 443.51332,126.600803 443.51332,123.439692 L443.51332,122.625535 C443.51332,119.464424 440.948828,116.899149 437.783603,116.899149 L296.907212,116.899149 C293.744263,116.899149 291.179771,119.464424 291.179771,122.625535 L291.179771,123.439692 C291.179771,126.600803 293.744263,129.163805 296.907212,129.163805" id="Fill-353" fill="#DFE1E8"></path>
                            <g id="Fill-357" transform="translate(57.289628, 192.528927)">
                                <mask id="mask-6" fill="white">
                                    <use xlink:href="#path-5"></use>
                                </mask>
                                <g id="Duplicate-control"></g>
                                <path d="M11.8075851,25.8483365 L160.648236,25.8483365 C167.167553,25.8483365 172.453546,20.565415 172.453546,14.0476135 L172.453546,11.8029972 C172.453546,5.28519568 167.167553,7.10542736e-13 160.648236,7.10542736e-13 L11.8075851,7.10542736e-13 C5.28599347,7.10542736e-13 5.68434189e-14,5.28519568 5.68434189e-14,11.8029972 L5.68434189e-14,14.0476135 C5.68434189e-14,20.565415 5.28599347,25.8483365 11.8075851,25.8483365" id="Fill-355" fill="#DFE1E8" mask="url(#mask-6)"></path>
                                <path d="M11.8075851,58.4438579 L160.648236,58.4438579 C167.167553,58.4438579 172.453546,53.1609364 172.453546,46.6431348 L172.453546,44.3985186 C172.453546,37.880717 167.167553,32.5955213 160.648236,32.5955213 L11.8075851,32.5955213 C5.28599347,32.5955213 5.68434189e-14,37.880717 5.68434189e-14,44.3985186 L5.68434189e-14,46.6431348 C5.68434189e-14,53.1609364 5.28599347,58.4438579 11.8075851,58.4438579" id="Fill-355" fill="#DFE1E8" mask="url(#mask-6)"></path>
                                <path d="M11.8075851,91.0393792 L160.648236,91.0393792 C167.167553,91.0393792 172.453546,85.7564577 172.453546,79.2386562 L172.453546,76.9940399 C172.453546,70.4762384 167.167553,65.1910427 160.648236,65.1910427 L11.8075851,65.1910427 C5.28599347,65.1910427 5.68434189e-14,70.4762384 5.68434189e-14,76.9940399 L5.68434189e-14,79.2386562 C5.68434189e-14,85.7564577 5.28599347,91.0393792 11.8075851,91.0393792" id="Fill-355" fill="#DFE1E8" mask="url(#mask-6)"></path>
                            </g>
                            <polygon id="Fill-356" fill="#B5DEFF" points="124.406116 499.24859 391.035905 499.24859 391.035905 485.667184 124.406116 485.667184"></polygon>
                        </g>
                        <g id="screen-content" transform="translate(143.550939, 12.858873)">
                            <g id="Group-4">
                                <path d="M61.6556184,15.6345317 L5.62367698,15.6345317 C2.51711321,15.6345317 2.84217094e-14,13.11782 2.84217094e-14,10.0122841 L2.84217094e-14,5.61997419 C2.84217094e-14,2.51443829 2.51711321,0 5.62367698,0 L61.6556184,0 C64.7667339,0 67.2815712,2.51443829 67.2815712,5.61997419 L67.2815712,10.0122841 C67.2815712,13.11782 64.7667339,15.6345317 61.6556184,15.6345317" id="Fill-429" fill="#F5F7FF"></path>
                                <path d="M13.9556403,87.130061 C14.0535028,79.3980496 17.7791034,72.5595049 23.4892635,68.2035702 C27.6495555,65.0275573 32.8612998,63.1678733 38.5009079,63.2383503 C48.8629481,63.372484 57.625051,69.9859569 60.9683053,79.1775247 L60.9728571,79.1888919 C61.767136,81.3759531 62.2518965,83.7062417 62.3861729,86.1320154 C62.4112075,86.6708236 62.420311,87.2096318 62.4157592,87.7552604 C62.3452072,93.2274601 60.4607861,98.2472429 57.3473948,102.26216 C52.847998,108.05719 45.7814189,111.747003 37.8795951,111.646971 C35.2668954,111.612869 32.7588856,111.167273 30.4170145,110.373838 C20.7354597,107.104613 13.8213639,97.8948578 13.9556403,87.130061 Z M27.8225217,118.028552 C30.9472924,119.085707 34.2928226,119.676805 37.7703533,119.722274 C48.3144632,119.856407 57.7433963,114.936657 63.7403161,107.211465 C67.902884,101.855212 70.4108937,95.1553477 70.5019285,87.8575657 C70.5133079,87.1323344 70.4951009,86.4093766 70.4609628,85.6955125 C70.2857208,82.4535695 69.6325458,79.3389398 68.5697141,76.4152801 C64.1135589,64.161372 52.4292378,55.3381034 38.605598,55.1607741 C31.1566725,55.0630157 24.2676113,57.4933362 18.7463485,61.6514806 C11.035698,67.4601513 6.00374741,76.6403519 5.87402277,87.0277556 C5.68967723,101.377787 14.9069543,113.663523 27.8225217,118.028552 L27.8225217,118.028552 Z" id="Fill-430" fill="#78C2FF"></path>
                                <path d="M57.3473948,102.264433 L63.7403161,107.211465 C57.7433963,114.936657 48.3121873,119.858681 37.7703533,119.724547 C34.2905467,119.679078 30.9495683,119.085707 27.8225217,118.030825 L30.4170145,110.376111 C32.7611615,111.167273 35.2691712,111.610596 37.8773193,111.644698 C45.7814189,111.747003 52.847998,108.05719 57.3473948,102.264433" id="Fill-431" fill="#1A598C"></path>
                                <path d="M62.383897,86.1320154 L70.4609628,85.6932391 C70.4973768,86.4093766 70.5133079,87.1323344 70.5019285,87.8575657 C70.4086178,95.1553477 67.8983322,101.855212 63.7403161,107.211465 L57.3473948,102.264433 C60.463062,98.2495164 62.3452072,93.2251867 62.4134834,87.7552604 C62.4225868,87.2096318 62.4112075,86.6685501 62.383897,86.1320154" id="Fill-432" fill="#2273B5"></path>
                                <path d="M62.3861729,86.1320154 C62.2518965,83.7062417 61.767136,81.3759531 60.9728571,79.1888919 L60.9683053,79.1775247 L68.5697141,76.4152801 C69.6325458,79.3389398 70.2857208,82.4535695 70.4609628,85.6955125 L62.3861729,86.1320154" id="Fill-433" fill="#2273B5"></path>
                                <path d="M18.7463485,61.6514806 C24.2676113,57.4933362 31.1566725,55.0630157 38.605598,55.1607741 C52.4292378,55.3381034 64.1135589,64.161372 68.5697141,76.4152801 L60.9728571,79.1888919 L60.9683053,79.1775247 C57.625051,69.9859569 48.8629481,63.372484 38.5009079,63.2383503 C32.8612998,63.1678733 27.6495555,65.0275573 23.4892635,68.2035702 L18.7463485,61.6514806" id="Fill-434" fill="#4DA8F2"></path>
                                <g id="Group-3" transform="translate(359.360755, 130.126465)">
                                    <path d="M21.7441462,43.4683221 C9.74114436,43.4683221 0.0507654496,33.7418374 0.0507654496,21.7932212 C0.0507654496,9.82147105 9.76172388,0.115549766 21.7441462,0.115549766 C33.7227099,0.115549766 43.437527,9.82147105 43.437527,21.7932212 C43.437527,33.7199888 33.7664414,43.4683221 21.7441462,43.4683221 Z" id="Fill-435" fill="#EEF0F7"></path>
                                    <path d="M20.641093,29.3356907 L20.641093,14.2494651 C20.641093,13.6460161 21.1358114,13.1581211 21.7447955,13.1581211 C22.3537795,13.1581211 22.8471995,13.6460161 22.8471995,14.2494651 L22.8471995,29.3356907 C22.8471995,29.9365719 22.3537795,30.4257508 21.7447955,30.4257508 C21.1358114,30.4257508 20.641093,29.9365719 20.641093,29.3356907 Z" id="Fill-436" fill="#949494"></path>
                                    <path d="M14.195762,22.8941251 C13.5918398,22.8941251 13.1035624,22.4008013 13.1035624,21.7932342 C13.1035624,21.1830706 13.5918398,20.6897468 14.195762,20.6897468 L29.2938154,20.6897468 C29.8977376,20.6897468 30.3847301,21.1830706 30.3847301,21.7932342 C30.3847301,22.4008013 29.8977376,22.8941251 29.2938154,22.8941251 L14.195762,22.8941251 Z" id="Fill-437" fill="#949494"></path>
                                </g>
                                <path d="M278.618942,199.476695 L257.685482,199.476695 C253.52519,199.476695 250.154625,196.107439 250.154625,191.951568 L250.154625,171.03808 C250.154625,166.882209 253.52519,163.512952 257.685482,163.512952 L278.618942,163.512952 C282.78151,163.512952 286.154351,166.882209 286.154351,171.03808 L286.154351,191.951568 C286.154351,196.107439 282.78151,199.476695 278.618942,199.476695" id="Fill-438" fill="#78C2FF"></path>
                                <path d="M267.014277,189.414395 L257.910793,181.48914 C257.166583,180.838933 257.086928,179.709027 257.740103,178.963335 C258.388726,178.217642 259.52211,178.140345 260.268595,178.790552 L266.702482,184.394612 L275.88107,174.168624 C276.543348,173.432025 277.674456,173.370642 278.414114,174.029943 C279.151496,174.691518 279.210669,175.823697 278.550666,176.560295 L267.014277,189.414395" id="Fill-439" fill="#F3F3F3"></path>
                                <path d="M278.618942,245.561847 L257.685482,245.561847 C253.52519,245.561847 250.154625,242.192591 250.154625,238.03672 L250.154625,217.120959 C250.154625,212.967361 253.52519,209.598105 257.685482,209.598105 L278.618942,209.598105 C282.78151,209.598105 286.154351,212.967361 286.154351,217.120959 L286.154351,238.03672 C286.154351,242.192591 282.78151,245.561847 278.618942,245.561847" id="Fill-440" fill="#78C2FF"></path>
                                <path d="M267.014277,235.499547 L257.910793,227.574293 C257.166583,226.924085 257.086928,225.794179 257.740103,225.048487 C258.388726,224.302795 259.52211,224.223224 260.268595,224.875705 L266.702482,230.477491 L275.88107,220.253776 C276.543348,219.517177 277.674456,219.455794 278.414114,220.115095 C279.151496,220.77667 279.210669,221.908849 278.550666,222.643174 L267.014277,235.499547" id="Fill-441" fill="#F3F3F3"></path>
                                <path d="M278.618942,291.647 L257.685482,291.647 C253.52519,291.647 250.154625,288.277743 250.154625,284.119599 L250.154625,263.208385 C250.154625,259.052514 253.52519,255.680984 257.685482,255.680984 L278.618942,255.680984 C282.78151,255.680984 286.154351,259.052514 286.154351,263.208385 L286.154351,284.119599 C286.154351,288.277743 282.78151,291.647 278.618942,291.647" id="Fill-442" fill="#78C2FF"></path>
                            </g>
                            <g id="Group-5" transform="translate(80.401967, 78.109002)" fill="#78C2FF">
                                <polygon id="Fill-470" points="13.573294 39.6967513 21.8551882 39.6967513 21.8551882 12.5721914 13.573294 12.5721914"></polygon>
                                <polygon id="Fill-471" points="-2.84217094e-14 39.6967513 8.27961831 39.6967513 8.27961831 20.1814364 -2.84217094e-14 20.1814364"></polygon>
                                <polygon id="Fill-472" points="27.146588 39.6967513 35.4284822 39.6967513 35.4284822 0 27.146588 0"></polygon>
                            </g>
                        </g>
                        <g id="settings" transform="translate(108.606802, 370.428885)" fill="#DFE1E8" opacity="0.75">
                            <path d="M56.3868047,92.1467347 C36.4345935,92.1467347 20.2587322,75.9888336 20.2587322,56.049296 C20.2587322,36.1140028 36.4345935,19.9518574 56.3868047,19.9518574 C76.3390159,19.9518574 92.5148771,36.1140028 92.5148771,56.049296 C92.5148771,75.9888336 76.3390159,92.1467347 56.3868047,92.1467347 Z M103.153583,44.0687489 C102.012898,39.6539296 100.265826,35.4848488 98.0014165,31.6547177 L103.246873,23.7699013 L88.6893525,9.22472419 L80.8063257,14.4699701 C76.9729442,12.211718 72.7960849,10.4618904 68.3817595,9.31793534 L66.5159543,0.0476622326 L45.9284904,0.0476622326 L44.0584448,9.31793534 C39.6398789,10.4618904 35.4672601,12.211718 31.6338786,14.4699701 L23.7466112,9.22472419 L9.18909046,23.7699013 L14.4345473,31.6547177 C12.1743787,35.4848488 10.4230661,39.6539296 9.28662118,44.0687489 L-1.36424205e-12,45.932972 L-1.36424205e-12,66.5029793 L9.28662118,68.3672024 C10.4230661,72.7777848 12.1743787,76.9468656 14.4345473,80.7812336 L9.18909046,88.6618131 L16.4657306,95.9365201 L23.7466112,103.20699 L31.6338786,97.9659812 C35.4672601,100.224233 39.6398789,101.974061 44.0584448,103.113779 L45.9284904,112.388289 L66.5159543,112.388289 L68.3817595,103.113779 C72.7960849,101.974061 76.9729442,100.224233 80.8063257,97.9659812 L88.6893525,103.20699 L95.9702332,95.9365201 L103.246873,88.6618131 L98.0014165,80.7812336 C100.265826,76.9468656 102.012898,72.7777848 103.153583,68.3672024 L112.435964,66.5029793 L112.435964,45.932972 L103.153583,44.0687489 L103.153583,44.0687489 Z" id="Fill-344"></path>
                        </g>
                        <g id="settings" transform="translate(36.465718, 388.300485)" fill="#DFE1E8" opacity="0.75">
                            <path d="M28.2780672,46.2117258 C18.2720033,46.2117258 10.1597846,38.1085141 10.1597846,28.1088061 C10.1597846,18.1112266 18.2720033,10.0058864 28.2780672,10.0058864 C38.2841311,10.0058864 46.3963498,18.1112266 46.3963498,28.1088061 C46.3963498,38.1085141 38.2841311,46.2117258 28.2780672,46.2117258 Z M51.7316768,22.1005437 C51.1596213,19.8865052 50.283462,17.795705 49.1478575,15.8748885 L51.778462,11.9206412 L44.4778435,4.62621303 L40.5244937,7.25671174 C38.6020471,6.12419493 36.5073459,5.24665376 34.293555,4.67295857 L33.3578509,0.0239026812 L23.0332069,0.0239026812 L22.0953762,4.67295857 C19.8794588,5.24665376 17.7868842,6.12419493 15.8644376,7.25671174 L11.9089612,4.62621303 L4.60834266,11.9206412 L7.23894713,15.8748885 C6.10546921,17.795705 5.22718332,19.8865052 4.65725447,22.1005437 L-1.36424205e-12,23.0354544 L-1.36424205e-12,33.351344 L4.65725447,34.2862547 C5.22718332,36.4981684 6.10546921,38.5889686 7.23894713,40.5119099 L4.60834266,44.4640324 L8.25758863,48.1123089 L11.9089612,51.7584606 L15.8644376,49.1300867 C17.7868842,50.2626035 19.8794588,51.1401446 22.0953762,51.711715 L23.0332069,56.3628957 L33.3578509,56.3628957 L34.293555,51.711715 C36.5073459,51.1401446 38.6020471,50.2626035 40.5244937,49.1300867 L44.4778435,51.7584606 L48.129216,48.1123089 L51.778462,44.4640324 L49.1478575,40.5119099 C50.283462,38.5889686 51.1596213,36.4981684 51.7316768,34.2862547 L56.3868047,33.351344 L56.3868047,23.0354544 L51.7316768,22.1005437 L51.7316768,22.1005437 Z" id="Fill-344"></path>
                        </g>
                    </g>
                    <g id="girl-presenter" transform="translate(173.549806, 144.052395)">
                        <path d="M57.3093576,341.777492 L59.8715116,341.777492 L59.8715116,329.640678 C59.8715116,329.640678 64.895343,333.006689 68.0503092,337.659555 C71.2052753,342.312421 75.5408419,341.913748 82.1421564,341.616005 C88.7434709,341.323308 88.4520887,338.648667 87.8592765,334.883984 C87.2664644,331.124347 80.5646733,329.938421 78.3994019,329.342935 C76.2291068,328.747449 71.305752,320.22897 69.723245,318.154861 C67.5680214,315.323779 66.4225878,312.613813 66.4225878,312.613813 C66.4225878,312.613813 65.1917491,307.562274 59.0827701,312.613813 C52.9687672,317.660305 54.7472035,327.36471 55.4354684,328.252893 C56.1237333,329.146122 57.3093576,341.777492 57.3093576,341.777492" id="Fill-60" fill="#1E1F20"></path>
                        <path d="M65.1082923,4.55525229 C65.1082923,4.55525229 75.6365987,9.70354273 73.0349372,23.708202 C70.4332757,37.7128613 69.2775016,39.5972946 72.1926727,45.0682299 C75.1031645,50.5391652 78.5424113,73.8818227 75.9173536,78.3053311 C73.2969751,82.7288395 43.4714527,58.8624686 39.3396774,38.8397804 C35.2032227,18.8170923 41.9600558,9.90928731 44.346472,6.59399401 C46.7375673,3.2740247 55.8106279,-0.158168924 65.1082923,4.55525229" id="Fill-58" fill="#362D22"></path>
                        <path d="M69.8078044,329.736551 C72.0877611,331.206645 78.0247281,329.736551 78.0247281,329.736551 C76.3399813,327.576413 65.9994696,313.160493 65.9994696,313.160493 C59.7144561,309.530262 57.2327333,314.52558 57.2327333,314.52558 C59.7951626,315.30063 67.5328918,328.266457 69.8078044,329.736551" id="Fill-61" fill="#EEA886"></path>
                        <path d="M135.942368,115.140848 C135.942368,115.140848 140.035595,115.926589 141.433404,113.997495 C142.620791,112.350461 145.336248,111.091262 146.17293,110.698391 C147.290175,110.179601 150.130884,107.293515 150.797224,108.703819 C151.468573,110.114123 146.348282,113.685213 145.421419,114.652278 C144.499567,115.619344 150.441509,116.042435 151.468573,116.984316 C152.495637,117.921161 151.2331,127.778177 147.184964,127.012583 C143.141838,126.241953 139.319155,122.736341 138.582675,122.746414 C137.846195,122.751451 135.616714,122.303176 135.616714,122.303176 L135.942368,115.140848" id="Fill-62" fill="#EEA886"></path>
                        <path d="M150.594642,116.768787 C150.594642,116.768787 162.883814,119.930294 163.528228,120.823545 C164.167607,121.721814 163.956159,122.374189 162.793193,122.123276 C161.635262,121.877381 150.831262,119.408394 150.831262,119.408394 C150.831262,119.408394 164.746572,125.590896 165.436297,126.213161 C165.834021,126.574476 165.501745,127.86417 164.8674,127.788896 C164.233055,127.713622 150.091193,122.369171 150.091193,122.369171 C150.091193,122.369171 163.07009,128.165266 163.492986,128.852768 C163.860503,129.45496 163.256366,130.563997 162.264572,130.197663 C161.267745,129.836348 148.913125,125.134234 148.913125,125.134234 C148.913125,125.134234 158.096021,129.94675 158.111124,130.734618 C158.116159,131.221389 157.879538,132.34548 155.548573,131.030695 C153.217607,129.71591 147.392711,127.191723 147.392711,127.191723 L150.594642,116.768787" id="Fill-63" fill="#EEA886"></path>
                        <path d="M23.7314558,351.636043 L25.3019174,351.636043 L25.3019174,342.804353 C25.3019174,342.804353 28.1066713,345.674902 29.3861208,349.89571 C30.6655703,354.111517 35.2465011,355.366757 42.2358075,355.166719 C49.2200964,354.971681 49.3204454,352.221155 48.7283864,348.100366 C48.1413449,343.979578 42.2358075,341.824165 42.2358075,341.824165 C39.5765595,339.468715 32.9836317,329.706847 32.9836317,329.706847 C32.9836317,329.706847 28.7489048,328.581631 25.4273536,331.252142 C22.1058024,333.922653 23.1393969,339.958808 23.2347284,341.529109 C23.3350774,343.099409 23.7314558,351.636043 23.7314558,351.636043" id="Fill-64" fill="#1E1F20"></path>
                        <path d="M28.5398578,139.928128 C28.5398578,139.928128 20.1915894,150.786798 17.9285046,163.66826 C15.6654197,176.549722 19.2662391,219.78816 19.1656576,226.153414 C19.0701051,232.518667 13.150881,248.363872 14.3327142,260.354701 C15.5145474,272.350563 20.1865603,332.043056 20.1865603,332.043056 L32.9805332,329.501986 C32.9805332,329.501986 32.2362297,268.647142 32.9805332,263.615321 C33.7198075,258.578469 35.2033854,240.227417 35.5001009,238.154307 C35.7968165,236.081197 54.288734,181.651988 54.288734,172.363247 C54.288734,163.079537 48.6662255,124.777315 28.5398578,139.928128" id="Fill-65" fill="#285173"></path>
                        <path d="M87.4739378,204.071233 C89.098231,211.324897 91.4567248,217.305899 91.4567248,220.38443 C91.4567248,227.527427 88.8015335,239.001495 88.8015335,239.001495 L71.4007298,319.14192 L54.656734,319.14192 C54.656734,319.14192 64.0448919,272.327098 64.2963305,262.558295 C64.5427403,252.76434 72.0808686,238.855617 70.6024098,234.710667 C69.123951,230.565716 46.7760909,182.752908 46.7760909,182.752908 C46.7760909,182.752908 29.859304,129.270975 72.1311563,144.467449 C72.1311563,144.467449 85.8446159,196.81757 87.4739378,204.071233 Z" id="Fill-66" fill="#285173"></path>
                        <path d="M42.1447371,341.661239 L32.9280421,329.47152 L25.4007413,331.026049 C25.4007413,331.026049 27.4250154,336.479477 31.0837034,340.58464 C35.4171495,345.444428 42.1447371,341.661239 42.1447371,341.661239" id="Fill-67" fill="#EEA886"></path>
                        <path d="M64.7974713,55.4192944 C64.7974713,55.4192944 70.461531,55.9527636 74.7448502,60.5325461 C79.0231302,65.1123286 83.0393718,72.414817 84.1631132,74.8607228 C85.2818153,77.3015959 100.999077,99.9438393 101.815427,100.452145 C102.626738,100.96045 110.528202,103.5976 115.76393,105.354022 C123.841766,108.071695 140.032713,113.944889 140.032713,113.944889 L136.817704,124.116032 C136.817704,124.116032 106.370863,114.166329 98.7465551,112.289121 C89.4189977,109.994197 67.9570491,82.4953712 67.9570491,82.4953712 C67.9570491,82.4953712 51.9575923,63.7635575 64.7974713,55.4192944" id="Fill-68" fill="#E6711D"></path>
                        <path d="M54.8488023,51.3947966 C54.8488023,51.3947966 62.161459,54.8497786 64.702808,55.3627454 C67.2441571,55.870683 77.0931405,68.6847938 78.8208561,73.3668728 C80.5485716,78.0439226 78.8208561,85.0594974 75.2649763,93.3021691 C71.7090965,101.539812 75.0640791,104.285693 73.4368121,112.523335 C71.8145676,120.766007 72.3369002,151.584245 72.6432683,156.160713 C72.9446141,160.742211 25.0959327,167.67732 15.6487437,159.339096 C15.6487437,159.339096 22.0422959,131.558425 29.6161188,123.632586 C31.2534307,121.917668 31.0776457,110.491585 29.9626664,107.640093 C28.8426648,104.79363 16.2464127,83.5356844 16.2464127,83.5356844 C16.2464127,83.5356844 15.3222858,61.9759933 20.8218456,57.7012703 C25.5931532,53.9898049 38.6062668,52.6621263 40.9416963,51.8524434 C43.2771258,51.0377315 50.0724723,50.6806664 54.8488023,51.3947966" id="Fill-69" fill="#FFD09A"></path>
                        <path d="M58.336733,43.0243941 C58.336733,43.0243941 58.1197469,45.0399849 57.8674375,47.7642997 C57.7665138,48.8449781 57.6605438,50.0312111 57.5646663,51.2526289 C57.2719873,54.9018033 57.0348165,58.8224039 57.1761098,60.8279419 C57.1761098,60.8279419 49.5412271,68.447981 40.8567374,51.9311944 C40.8567374,51.9311944 44.5101776,45.1204075 41.7600051,35.8466792 C39.0098325,26.5679245 58.336733,43.0243941 58.336733,43.0243941" id="Fill-70" fill="#EEA886"></path>
                        <path d="M79.8159557,96.5638645 C79.8159557,96.5638645 81.6568564,84.3407254 79.6996351,76.9099851 C79.6996351,76.9099851 79.6996351,83.3015316 76.1847286,92.3768214 L79.8159557,96.5638645" id="Fill-71" fill="#00446B"></path>
                        <path d="M35.1527388,53.1129794 C35.1527388,53.1129794 40.370455,68.6225838 54.7091403,67.4823201 C69.0478257,66.3420565 61.5072224,54.3844239 61.5072224,54.3844239 C61.5072224,54.3844239 57.9350937,52.3258948 56.9266697,52.1291236 C55.9232627,51.9373978 41.0778569,51.7456721 41.0778569,51.7456721 L35.1527388,53.1129794" id="Fill-72" fill="#EEA886"></path>
                        <path d="M61.6487322,54.1335266 C61.6487322,54.1335266 69.1618906,74.9752588 69.1618906,96.2145995 C69.1618906,117.45394 69.7691666,152.050914 72.3889854,162.977598 C75.0138229,173.904283 82.4767932,207.69094 82.4767932,207.69094 L88.3287255,204.65603 C88.3287255,204.65603 74.2610014,150.732263 73.1970137,146.841739 C72.1330261,142.956248 74.0050421,101.871713 75.0138229,98.4341609 C76.0226037,94.9966089 80.3136862,79.6861647 79.6461844,75.4332635 C78.8030244,70.0831642 73.8093086,62.1561591 65.7390623,55.3464842 L61.6487322,54.1335266" id="Fill-73" fill="#E6711D"></path>
                        <path d="M38.0384439,52.2967154 C38.0384439,52.2967154 42.7212542,67.2885775 45.0903236,86.4876222 C47.4593931,105.686667 37.8120997,194.807475 31.3386551,215.038185 L6.26474604,210.997075 C6.26474604,210.997075 11.666828,148.000053 18.9903208,136.530951 C26.3188434,125.066882 28.6476739,114.926364 20.740716,90.9967556 C12.8287283,67.0671469 24.2062974,55.2206066 24.2062974,55.2206066 C24.2062974,55.2206066 35.8403901,52.5433087 38.0384439,52.2967154" id="Fill-74" fill="#E6711D"></path>
                        <polyline id="Fill-75" fill="#000000" points="65.1447313 115.913978 34.7348428 168.566862 0.928747369 149.057784 30.015373 95.6454589 65.1447313 115.913978"></polyline>
                        <polyline id="Fill-76" fill="#FFFFFF" points="61.4647323 117.845398 34.4542662 164.525878 4.4247465 147.228443 30.2628134 99.8701246 61.4647323 117.845398"></polyline>
                        <polyline id="Fill-77" fill="#616161" points="51.4685711 113.646208 53.3687343 110.366715 41.2066818 103.360066 38.8327379 106.367945 51.4685711 113.646208"></polyline>
                        <path d="M50.0278712,150.933469 C50.0278712,150.933469 48.6429339,150.938493 48.0385976,150.64711 C48.0385976,150.64711 46.9759729,150.0342 46.1953718,149.64234 C45.943565,149.516743 45.7270112,149.416266 45.5759271,149.366028 C44.9564824,149.150002 43.5312559,148.863643 42.1815715,147.93423 C40.8369232,147.004817 36.0727386,141.498676 36.0727386,141.498676 L38.3238914,138.082457 L39.9757439,134.585856 C39.9757439,134.585856 49.982546,135.228909 51.3372666,135.952343 C51.4682061,136.022677 51.5941095,136.098035 51.7099406,136.178417 C52.797746,136.901851 53.3013596,137.896574 53.8301539,138.338673 C54.021527,138.50446 55.8244637,140.267832 55.7589939,141.016386 C55.6733796,142.056323 55.1949467,142.744591 54.5603936,143.086213 C54.5603936,143.086213 54.3035506,145.120873 53.3013596,146.065357 C53.3013596,146.065357 53.1200587,147.949301 51.538712,148.773213 C51.538712,148.773213 51.1408573,150.662181 50.0278712,150.933469" id="Fill-78" fill="#EEA886"></path>
                        <path d="M29.2832512,55.3616239 C29.2832512,55.3616239 20.0607651,52.7173535 14.7735414,62.8822106 C9.49134366,73.0520948 9.51647305,77.3905081 8.80782426,82.3522855 C8.13938248,87.0425979 5.12888157,99.8416712 4.82732889,101.163806 C4.52075033,102.485942 -2.29936611,118.245995 0.826730005,123.755729 C3.97292963,129.295627 35.9023325,145.593582 35.6962715,146.815175 C35.4952364,148.031741 41.2247373,134.488652 41.2247373,134.488652 C41.2247373,134.488652 28.3082309,127.289802 26.1923362,125.06781 C22.7546357,121.468385 15.5022937,117.587441 16.9949795,113.118322 C18.743985,107.864971 24.0010534,90.1543915 25.2173159,87.5654195 C26.4386043,84.9714203 37.0633103,58.6644484 29.2832512,55.3616239" id="Fill-79" fill="#E6711D"></path>
                        <path d="M59.3968782,2.99931254 C59.3968782,2.99931254 75.8268302,8.1661356 66.9080007,36.5358681 C57.9891712,64.9056005 35.5563543,33.2506339 37.899181,15.9641646 C40.2470352,-1.3223048 59.3968782,2.99931254 59.3968782,2.99931254" id="Fill-80" fill="#EEA987"></path>
                        <path d="M68.7747522,19.452952 C68.7747522,19.452952 60.6108238,27.4695324 46.9523304,28.4709759 C46.9523304,28.4709759 41.7040907,34.6356406 41.3019268,37.0511828 C41.3019268,37.0511828 29.1113318,16.2573911 44.0919392,3.78715491 C59.0775737,-8.67804888 74.2843984,14.3148926 68.7747522,19.452952" id="Fill-81" fill="#362D22"></path>
                        <path d="M46.9108466,29.090848 C46.8055634,27.0442886 45.5371515,22.3821265 42.4789254,23.6849362 C39.4206992,24.9927376 42.6644243,34.4867765 44.694886,33.9027584 C44.694886,33.9027584 47.1615209,33.9376996 46.9108466,29.090848" id="Fill-82" fill="#EEA987"></path>
                        <path d="M57.7847332,47.7107773 C57.6847494,48.7900685 57.5797665,49.9747787 57.4847819,51.1946287 C57.4847819,51.1946287 50.2759532,50.7629123 45.4567363,39.9900806 C45.7666859,40.4619568 51.0508273,48.2529329 57.7847332,47.7107773" id="Fill-83" fill="#A77860"></path>
                    </g>
                    <g id="speech-bubble" filter="url(#filter-7)" transform="translate(271.467012, 106.605520)">
                        <path d="M9.75909031,0.128213014 L74.4665146,0.128213014 C76.8736839,0.128213014 79.6577239,1.53192748 81.2448037,3.11107641 C82.8318834,4.69463637 84.3341484,7.69247945 84.3341484,10.0906097 L84.3341484,39.6582927 C84.3341484,42.0578933 82.8318834,45.35564 81.2448037,46.9362592 C79.6577239,48.5183488 76.8736839,49.5391905 74.4665146,49.5391905 L18.317107,49.5391905 L0.085030336,67.641325 L0.085030336,10.0906097 C0.085030336,7.69247945 1.42309243,4.69463637 3.01017218,3.11107641 C4.59725193,1.53192748 7.35192103,0.128213014 9.75909031,0.128213014 Z" id="Fill-142" fill="#4DA8F2"></path>
                        <path d="M75.2059466,9.57335178 C75.6058163,9.57335178 75.9333849,9.28829514 75.9333849,8.9374562 C75.9333849,8.58532741 75.6058163,8.30027077 75.2059466,8.30027077 L9.39269307,8.30027077 C8.98987222,8.30027077 8.66230362,8.58532741 8.66230362,8.9374562 C8.66230362,9.28829514 8.98987222,9.57335178 9.39269307,9.57335178 L75.2059466,9.57335178" id="Fill-143" fill="#DFE1E8"></path>
                        <path d="M58.9514614,16.9868591 C59.3557578,16.9868591 59.6788998,16.6482091 59.6788998,16.2317611 C59.6788998,15.8168386 59.3557578,15.4781886 58.9514614,15.4781886 L9.39269307,15.4781886 C8.98987222,15.4781886 8.66230362,15.8168386 8.66230362,16.2317611 C8.66230362,16.6482091 8.98987222,16.9868591 9.39269307,16.9868591 L58.9514614,16.9868591 Z M75.2059466,16.9868591 C75.6058163,16.9868591 75.9333849,16.6482091 75.9333849,16.2317611 C75.9333849,15.8168386 75.6058163,15.4781886 75.2059466,15.4781886 L68.2325718,15.4781886 C67.8297509,15.4781886 67.5051334,15.8168386 67.5051334,16.2317611 C67.5051334,16.6482091 67.8297509,16.9868591 68.2325718,16.9868591 L75.2059466,16.9868591 L75.2059466,16.9868591 Z" id="Fill-144" fill="#DFE1E8"></path>
                        <path d="M75.2059466,23.7616913 C75.6058163,23.7616913 75.9333849,23.4766347 75.9333849,23.1245059 C75.9333849,22.7723771 75.6058163,22.4886103 75.2059466,22.4886103 L9.39269307,22.4886103 C8.98987222,22.4886103 8.66230362,22.7723771 8.66230362,23.1245059 C8.66230362,23.4766347 8.98987222,23.7616913 9.39269307,23.7616913 L75.2059466,23.7616913" id="Fill-145" fill="#DFE1E8"></path>
                        <path d="M56.770288,33.5283362 C57.1735484,33.5283362 57.5029517,33.2432796 57.5029517,32.8911508 C57.5029517,32.5403118 57.1735484,32.2539653 56.770288,32.2539653 L9.20918587,32.2539653 C8.80592539,32.2539653 8.47799929,32.5403118 8.47799929,32.8911508 C8.47799929,33.2432796 8.80592539,33.5283362 9.20918587,33.5283362 L56.770288,33.5283362" id="Fill-146" fill="#DFE1E8"></path>
                        <path d="M35.7613701,41.2674305 C36.1638022,41.2674305 36.4922578,40.981084 36.4922578,40.6302451 C36.4922578,40.2781163 36.1638022,39.9930596 35.7613701,39.9930596 L9.39467084,39.9930596 C8.99075922,39.9930596 8.66230362,40.2781163 8.66230362,40.6302451 C8.66230362,40.981084 8.99075922,41.2674305 9.39467084,41.2674305 L35.7613701,41.2674305" id="Fill-147" fill="#DFE1E8"></path>
                        <path d="M50.6926299,41.2674305 C51.0929617,41.2674305 51.4209087,40.981084 51.4209087,40.6302451 C51.4209087,40.2781163 51.0929617,39.9930596 50.6926299,39.9930596 L41.2796636,39.9930596 C40.8749002,39.9930596 40.5469531,40.2781163 40.5469531,40.6302451 C40.5469531,40.981084 40.8749002,41.2674305 41.2796636,41.2674305 L50.6926299,41.2674305" id="Fill-148" fill="#DFE1E8"></path>
                    </g>
                </g>
            </g>
        </g>
    </g>
</svg>