<?xml version="1.0" encoding="UTF-8"?>
<svg width="166px" height="153px" viewBox="0 0 166 153" version="1.1" xmlns="http://www.w3.org/2000/svg" xmlns:xlink="http://www.w3.org/1999/xlink">
    <!-- Generator: Sketch 54.1 (76490) - https://sketchapp.com -->
    <title>logo-16</title>
    <desc>Created with Sketch.</desc>
    <g id="Website" stroke="none" stroke-width="1" fill="none" fill-rule="evenodd">
        <g id="Desktop-HD-Copy-2" transform="translate(-291.000000, -252.000000)" fill="#111111" fill-rule="nonzero">
            <path d="M315.2,402 L315.2,258.2 L291.6,258.2 L291.6,252.4 L321.8,252.4 L321.8,402 L315.2,402 Z M401.6,291 C416.26674,291 429.166611,296.66661 440.3,308 C451.433389,319.33339 457,332.733256 457,348.2 C457,363.666744 451.400056,376.899945 440.2,387.9 C428.999944,398.900055 415.566745,404.4 399.9,404.4 C384.233255,404.4 370.900055,398.933388 359.9,388 C348.899945,377.066612 343.4,363.900077 343.4,348.5 C343.4,333.099923 350.133266,317.666744 363.6,302.2 L407.4,252 L415,252 L375.4,297.4 C377.666678,295.666658 381.399974,294.166673 386.6,292.9 C391.800026,291.633327 396.799976,291 401.6,291 Z M349.6,348.2 C349.6,362.066736 354.533284,373.966617 364.4,383.9 C374.266716,393.833383 386.099931,398.8 399.9,398.8 C413.700069,398.8 425.466618,393.833383 435.2,383.9 C444.933382,373.966617 449.8,362.00007 449.8,348 C449.8,333.99993 444.900049,321.933384 435.1,311.8 C425.299951,301.666616 413.600068,296.6 400,296.6 C386.399932,296.6 374.60005,301.699949 364.6,311.9 C354.59995,322.100051 349.6,334.19993 349.6,348.2 Z" id="logo-16"></path>
        </g>
    </g>
</svg>