<svg xmlns="http://www.w3.org/2000/svg" xmlns:xlink="http://www.w3.org/1999/xlink" width="18.569" height="18.58" viewBox="0 0 18.569 18.58">
  <defs>
    <linearGradient id="linear-gradient" y1="0.5" x2="1" y2="0.5" gradientUnits="objectBoundingBox">
      <stop offset="0" stop-color="#e9a57f"/>
      <stop offset="1" stop-color="#d0544e"/>
    </linearGradient>
  </defs>
  <g id="Screenshot-2022-09-22-at-9.34.54-AM" transform="translate(0 0)">
    <path id="Path_1991" data-name="Path 1991" d="M291.155-441.586a.825.825,0,0,0-.544.408c-.107.2-.112.243-.112,1.587s0,1.388.112,1.587a.709.709,0,0,0,.315.315.866.866,0,0,0,1.16-.315c.107-.2.112-.243.112-1.587s0-1.388-.112-1.587A.883.883,0,0,0,291.155-441.586Z" transform="translate(-282.065 441.611)" fill="url(#linear-gradient)"/>
    <path id="Path_1992" data-name="Path 1992" d="M167.616-390.705a.639.639,0,0,0-.379.374c-.257.524-.17.7.932,1.805a8.172,8.172,0,0,0,1.058.956.828.828,0,0,0,1.223-.626c.039-.432-.029-.539-.975-1.5C168.334-390.846,168.14-390.948,167.616-390.705Z" transform="translate(-164.669 393.278)" fill="url(#linear-gradient)"/>
    <path id="Path_1993" data-name="Path 1993" d="M382.1-390.724a11.407,11.407,0,0,0-2.058,2.082.839.839,0,0,0,.781,1.145c.354,0,.558-.146,1.461-1.053,1.1-1.106,1.189-1.281.932-1.805a.639.639,0,0,0-.379-.374A.668.668,0,0,0,382.1-390.724Z" transform="translate(-367.21 393.302)" fill="url(#linear-gradient)"/>
    <path id="Path_1994" data-name="Path 1994" d="M228.449-333.567a4.2,4.2,0,0,0-1.383.408,3.955,3.955,0,0,0-1.873,1.868,3.562,3.562,0,0,0-.393,1.771,3.513,3.513,0,0,0,.4,1.771,3.955,3.955,0,0,0,1.868,1.873,3.561,3.561,0,0,0,1.771.393,3.561,3.561,0,0,0,1.771-.393,3.955,3.955,0,0,0,1.868-1.873,3.513,3.513,0,0,0,.4-1.771,3.562,3.562,0,0,0-.393-1.771,4.229,4.229,0,0,0-1.1-1.388,4.7,4.7,0,0,0-1.6-.791A6.053,6.053,0,0,0,228.449-333.567Z" transform="translate(-219.553 338.819)" fill="url(#linear-gradient)"/>
    <path id="Path_1995" data-name="Path 1995" d="M117.328-267.689a.824.824,0,0,0-.544.408.866.866,0,0,0,.315,1.16c.2.107.243.112,1.587.112s1.388,0,1.587-.112a.863.863,0,0,0,0-1.475c-.194-.107-.257-.112-1.514-.121C118.041-267.723,117.4-267.709,117.328-267.689Z" transform="translate(-116.681 276.158)" fill="url(#linear-gradient)"/>
    <path id="Path_1996" data-name="Path 1996" d="M417.328-267.689a.824.824,0,0,0-.544.408.866.866,0,0,0,.315,1.16c.2.107.243.112,1.587.112s1.388,0,1.587-.112a.866.866,0,0,0,.315-1.16.708.708,0,0,0-.315-.315c-.194-.107-.257-.112-1.514-.121C418.041-267.723,417.4-267.709,417.328-267.689Z" transform="translate(-402.122 276.158)" fill="url(#linear-gradient)"/>
    <path id="Path_1997" data-name="Path 1997" d="M169.228-177.923a8.9,8.9,0,0,0-1.053.956c-1.092,1.1-1.184,1.271-.941,1.791a.639.639,0,0,0,.374.379c.529.262.723.16,1.873-1,.946-.961,1.014-1.068.975-1.5A.83.83,0,0,0,169.228-177.923Z" transform="translate(-164.675 190.813)" fill="url(#linear-gradient)"/>
    <path id="Path_1998" data-name="Path 1998" d="M380.479-177.8a.8.8,0,0,0-.437.641c-.039.432.029.539.975,1.5,1.15,1.16,1.344,1.262,1.873,1a.639.639,0,0,0,.374-.379c.243-.519.15-.694-.942-1.791a8.167,8.167,0,0,0-1.058-.956A.966.966,0,0,0,380.479-177.8Z" transform="translate(-367.254 190.677)" fill="url(#linear-gradient)"/>
    <path id="Path_1999" data-name="Path 1999" d="M291.155-141.586a.825.825,0,0,0-.544.408c-.107.2-.112.243-.112,1.587s0,1.388.112,1.587a.863.863,0,0,0,1.475,0c.107-.2.112-.243.112-1.587s0-1.388-.112-1.587A.883.883,0,0,0,291.155-141.586Z" transform="translate(-282.065 156.17)" fill="url(#linear-gradient)"/>
  </g>
</svg>
