
<svg xmlns="http://www.w3.org/2000/svg" width="22" height="25.052" viewBox="0 0 22 25.052">
  <g id="Screenshot-2022-09-27-at-9.39.55-PM" transform="translate(0 0)">
    <path id="Path_2062" data-name="Path 2062" d="M78.5-449.605A3.319,3.319,0,0,0,76.131-448a3.813,3.813,0,0,0-.392,1.987l-.039,1.065h22l-.039-1.065a3.275,3.275,0,0,0-.922-2.68,3.046,3.046,0,0,0-1.281-.791c-.359-.137-.359-.137-8.562-.144C82.386-449.631,78.608-449.618,78.5-449.605Z" transform="translate(-75.7 449.627)" />
    <path id="Path_2063" data-name="Path 2063" d="M75.92-345.882c.02,8.1.02,8.124.157,8.484a3.046,3.046,0,0,0,.791,1.281,3.3,3.3,0,0,0,1.425.817c.49.137,16.7.137,17.19,0a3.3,3.3,0,0,0,1.425-.817A3.046,3.046,0,0,0,97.7-337.4c.137-.359.137-.379.157-8.484l.02-8.118H75.9Zm16.85-4.072a.772.772,0,0,1,0,1.327c-.216.111-.627.118-5.869.118-6.229,0-5.974.02-6.176-.412a.717.717,0,0,1-.007-.732c.209-.444-.092-.425,6.17-.425C92.266-350.078,92.554-350.072,92.769-349.954Zm0,4.706a.772.772,0,0,1,0,1.327c-.216.111-.627.118-5.869.118-6.229,0-5.974.02-6.176-.412a.717.717,0,0,1-.007-.732c.209-.444-.092-.425,6.17-.425C92.266-345.373,92.554-345.366,92.769-345.248Zm-6.275,4.706a.772.772,0,0,1,0,1.327c-.2.1-.477.118-2.732.118-2.791,0-2.85-.007-3.039-.412a.717.717,0,0,1-.007-.732c.2-.418.242-.425,3.033-.425C86.076-340.667,86.286-340.66,86.495-340.542Z" transform="translate(-75.887 360.25)" />
  </g>
</svg>
