<?xml version="1.0" encoding="UTF-8"?>
<svg width="36px" height="52px" viewBox="0 0 36 52" version="1.1" xmlns="http://www.w3.org/2000/svg" xmlns:xlink="http://www.w3.org/1999/xlink">
    <!-- Generator: Sketch 51.1 (57501) - http://www.bohemiancoding.com/sketch -->
    <title>sparks</title>
    <desc>Created with Sketch.</desc>
    <defs>
        <linearGradient x1="50%" y1="0.431268064%" x2="50%" y2="100%" id="linearGradient-1">
            <stop stop-color="#FFDE64" offset="0%"></stop>
            <stop stop-color="#DB8A5C" offset="100%"></stop>
        </linearGradient>
    </defs>
    <g id="Website" stroke="none" stroke-width="1" fill="none" fill-rule="evenodd">
        <g id="design_1" transform="translate(-191.000000, -555.000000)" fill="url(#linearGradient-1)">
            <g id="design" transform="translate(97.000000, 519.000000)">
                <g id="vector">
                    <g id="all" transform="translate(0.000000, 0.748663)">
                        <g id="letter_a">
                            <g id="logo">
                                <g transform="translate(3.000000, 0.000000)" id="sparks">
                                    <g transform="translate(91.000000, 35.000000)">
                                        <g id="spark/color" transform="translate(0.351304, 0.422460)">
                                            <path d="M6,2.13162821e-15 C6.2,1.8 6.8,3.2 7.8,4.2 C8.8,5.2 10.2,5.8 12,6 C10.2,6.2 8.8,6.8 7.8,7.8 C6.8,8.8 6.2,10.2 6,12 C5.8,10.2 5.2,8.8 4.2,7.8 C3.2,6.8 1.8,6.2 0,6 C1.8,5.8 3.2,5.2 4.2,4.2 C5.2,3.2 5.8,1.8 6,2.13162821e-15 Z" id="Rectangle-5"></path>
                                        </g>
                                        <g id="spark/color" transform="translate(3.210435, 41.352941)">
                                            <path d="M5.5,1.95399252e-15 C5.68333333,1.65 6.23333333,2.93333333 7.15,3.85 C8.06666667,4.76666667 9.35,5.31666667 11,5.5 C9.35,5.68333333 8.06666667,6.23333333 7.15,7.15 C6.23333333,8.06666667 5.68333333,9.35 5.5,11 C5.31666667,9.35 4.76666667,8.06666667 3.85,7.15 C2.93333333,6.23333333 1.65,5.68333333 0,5.5 C1.65,5.31666667 2.93333333,4.76666667 3.85,3.85 C4.76666667,2.93333333 5.31666667,1.65 5.5,1.95399252e-15 Z" id="Rectangle-5"></path>
                                        </g>
                                        <g id="spark/color" transform="translate(16.553043, 21.363636)">
                                            <path d="M9.5,3.37507799e-15 C9.81666667,2.85 10.7666667,5.06666667 12.35,6.65 C13.9333333,8.23333333 16.15,9.18333333 19,9.5 C16.15,9.81666667 13.9333333,10.7666667 12.35,12.35 C10.7666667,13.9333333 9.81666667,16.15 9.5,19 C9.18333333,16.15 8.23333333,13.9333333 6.65,12.35 C5.06666667,10.7666667 2.85,9.81666667 0,9.5 C2.85,9.18333333 5.06666667,8.23333333 6.65,6.65 C8.23333333,5.06666667 9.18333333,2.85 9.5,3.37507799e-15 Z" id="Rectangle-5"></path>
                                        </g>
                                    </g>
                                </g>
                            </g>
                        </g>
                    </g>
                </g>
            </g>
        </g>
    </g>
</svg>