<?xml version="1.0" encoding="UTF-8"?>
<svg width="431px" height="93px" viewBox="0 0 431 93" version="1.1" xmlns="http://www.w3.org/2000/svg" xmlns:xlink="http://www.w3.org/1999/xlink">
    <!-- Generator: Sketch 51.1 (57501) - http://www.bohemiancoding.com/sketch -->
    <title>text</title>
    <desc>Created with Sketch.</desc>
    <defs>
        <linearGradient x1="50%" y1="0.431268064%" x2="50%" y2="100%" id="linearGradient-1">
            <stop stop-color="#FFDE64" offset="0%"></stop>
            <stop stop-color="#DB8A5C" offset="100%"></stop>
        </linearGradient>
    </defs>
    <g id="Website" stroke="none" stroke-width="1" fill="none" fill-rule="evenodd">
        <g id="design_1" transform="translate(-215.000000, -604.000000)">
            <g id="design" transform="translate(97.000000, 519.000000)">
                <g id="vector">
                    <g id="all" transform="translate(0.000000, 0.748663)">
                        <g id="letter_a">
                            <g id="text" transform="translate(119.000000, 84.000000)">
                                <g id="Group">
                                    <path d="M300.33913,58.117754 L316.99833,26.7393048 C317.843367,25.1718816 318.326237,23.8004069 318.446957,22.6248396 C318.567676,21.4492722 318.628035,19.9873706 318.628035,18.2390909 C318.628035,17.4553793 318.597855,16.626466 318.537496,15.7523262 C318.477136,14.8781864 318.311149,14.1095577 318.03953,13.4464171 C317.767912,12.7832765 317.33031,12.225644 316.726713,11.7735027 C316.123116,11.3213614 315.247913,11.0952941 314.101078,11.0952941 C312.712805,11.0952941 311.611256,11.487144 310.7964,12.2708556 C309.981544,13.0545672 309.574122,14.1999746 309.574122,15.7071123 L309.574122,20.9519251 L300.33913,20.9519251 L300.33913,15.8879679 C300.33913,13.9588317 300.701283,12.1502936 301.4256,10.4622995 C302.149917,8.77430529 303.130747,7.29733253 304.368122,6.0313369 C305.605496,4.76534126 307.069197,3.75557418 308.75927,3.00200535 C310.449342,2.24843652 312.260106,1.87165775 314.191617,1.87165775 C316.606006,1.87165775 318.673296,2.30872112 320.393548,3.18286096 C322.1138,4.05700081 323.532232,5.2476217 324.648887,6.75475936 C325.765542,8.26189702 326.580386,9.98000818 327.093443,11.9091444 C327.606501,13.8382806 327.863026,15.8879571 327.863026,18.0582353 C327.863026,19.6256585 327.832847,20.9368486 327.772487,21.9918449 C327.712127,23.0468413 327.59141,24.0566084 327.41033,25.0211765 C327.229251,25.9857446 326.927457,26.9502982 326.504939,27.9148663 C326.082421,28.8794344 325.509012,30.0549842 324.784696,31.4415508 L311.203826,57.5751872 L327.863026,57.5751872 L327.863026,66.7988235 L300.33913,66.7988235 L300.33913,58.117754 Z M334.019687,15.7071123 C334.019687,13.5368341 334.39693,11.6077268 335.151426,9.91973262 C335.905923,8.23173844 336.916933,6.78490799 338.184487,5.57919786 C339.452041,4.37348773 340.915742,3.45414755 342.575635,2.82114973 C344.235527,2.18815192 345.970843,1.87165775 347.781635,1.87165775 C349.592426,1.87165775 351.327742,2.18815192 352.987635,2.82114973 C354.647527,3.45414755 356.111228,4.37348773 357.378783,5.57919786 C358.646337,6.78490799 359.657347,8.23173844 360.411843,9.91973262 C361.16634,11.6077268 361.543583,13.5368341 361.543583,15.7071123 L361.543583,53.5059358 C361.543583,55.6762141 361.16634,57.6053213 360.411843,59.2933155 C359.657347,60.9813097 358.646337,62.4281401 357.378783,63.6338503 C356.111228,64.8395604 354.647527,65.7589006 352.987635,66.3918984 C351.327742,67.0248962 349.592426,67.3413904 347.781635,67.3413904 C345.970843,67.3413904 344.235527,67.0248962 342.575635,66.3918984 C340.915742,65.7589006 339.452041,64.8395604 338.184487,63.6338503 C336.916933,62.4281401 335.905923,60.9813097 335.151426,59.2933155 C334.39693,57.6053213 334.019687,55.6762141 334.019687,53.5059358 L334.019687,15.7071123 Z M343.254678,53.5059358 C343.254678,54.832217 343.67719,55.932411 344.522226,56.8065508 C345.367262,57.6806906 346.453721,58.117754 347.781635,58.117754 C349.109549,58.117754 350.196007,57.6806906 351.041043,56.8065508 C351.88608,55.932411 352.308591,54.832217 352.308591,53.5059358 L352.308591,15.7071123 C352.308591,14.3808312 351.88608,13.2806372 351.041043,12.4064973 C350.196007,11.5323575 349.109549,11.0952941 347.781635,11.0952941 C346.453721,11.0952941 345.367262,11.5323575 344.522226,12.4064973 C343.67719,13.2806372 343.254678,14.3808312 343.254678,15.7071123 L343.254678,53.5059358 Z M378.655478,12.1804278 L369.420487,18.9625134 L369.420487,9.19631016 L378.655478,2.4142246 L387.89047,2.4142246 L387.89047,66.7988235 L378.655478,66.7988235 L378.655478,12.1804278 Z M419.669704,15.6166845 C419.669704,14.3506889 419.217013,13.2806372 418.311617,12.4064973 C417.406222,11.5323575 416.349942,11.0952941 415.142748,11.0952941 C413.935553,11.0952941 412.879274,11.5323575 411.973878,12.4064973 C411.068482,13.2806372 410.615791,14.3506889 410.615791,15.6166845 L410.615791,25.0211765 C410.615791,26.2871721 411.068482,27.3572238 411.973878,28.2313636 C412.879274,29.1055035 413.935553,29.5425668 415.142748,29.5425668 C416.349942,29.5425668 417.406222,29.1055035 418.311617,28.2313636 C419.217013,27.3572238 419.669704,26.2871721 419.669704,25.0211765 L419.669704,15.6166845 Z M401.3808,19.2337968 C401.3808,17.4855171 401.441159,15.9934732 401.561878,14.7576203 C401.682598,13.5217674 401.878764,12.4517158 402.150383,11.5474332 C402.422001,10.6431506 402.769065,9.82930843 403.191583,9.10588235 C403.614101,8.38245628 404.127151,7.62889875 404.730748,6.84518717 C405.937942,5.277764 407.446913,4.05700081 409.257704,3.18286096 C411.068496,2.30872112 413.030158,1.87165775 415.142748,1.87165775 C417.255338,1.87165775 419.217,2.30872112 421.027791,3.18286096 C422.838583,4.05700081 424.347553,5.277764 425.554748,6.84518717 C426.158345,7.62889875 426.671395,8.38245628 427.093913,9.10588235 C427.516431,9.82930843 427.863494,10.6431506 428.135113,11.5474332 C428.406732,12.4517158 428.602898,13.5217674 428.723617,14.7576203 C428.844337,15.9934732 428.904696,17.4855171 428.904696,19.2337968 C428.904696,21.162933 428.874516,22.7906173 428.814157,24.1168984 C428.753797,25.4431795 428.57272,26.6187293 428.270922,27.6435829 C427.969123,28.6684365 427.501342,29.5877767 426.867565,30.401631 C426.233788,31.2154854 425.373675,32.0745409 424.2872,32.9788235 C425.373675,33.8228206 426.233788,34.666805 426.867565,35.5108021 C427.501342,36.3547992 427.969123,37.3494952 428.270922,38.4949198 C428.57272,39.6403444 428.753797,41.0419614 428.814157,42.6998128 C428.874516,44.3576643 428.904696,46.3922696 428.904696,48.8036898 C428.904696,50.7931116 428.859427,52.435867 428.768887,53.7320053 C428.678347,55.0281437 428.54254,56.15848 428.361461,57.1230481 C428.180382,58.0876162 427.923857,58.9014584 427.591878,59.5645989 C427.2599,60.2277395 426.852478,60.9210124 426.3696,61.6444385 C425.343485,63.2118617 423.894873,64.5531941 422.023722,65.6684759 C420.15257,66.7837578 417.858935,67.3413904 415.142748,67.3413904 C412.42656,67.3413904 410.132925,66.7837578 408.261774,65.6684759 C406.390623,64.5531941 404.942011,63.2118617 403.915896,61.6444385 C403.433018,60.9210124 403.025596,60.2277395 402.693617,59.5645989 C402.361639,58.9014584 402.105114,58.0876162 401.924035,57.1230481 C401.742956,56.15848 401.607148,55.0281437 401.516609,53.7320053 C401.426069,52.435867 401.3808,50.7931116 401.3808,48.8036898 C401.3808,46.3922696 401.410979,44.3576643 401.471339,42.6998128 C401.531699,41.0419614 401.712775,39.6403444 402.014574,38.4949198 C402.316373,37.3494952 402.784153,36.3547992 403.41793,35.5108021 C404.051708,34.666805 404.911821,33.8228206 405.998296,32.9788235 C404.911821,32.0745409 404.051708,31.2154854 403.41793,30.401631 C402.784153,29.5877767 402.316373,28.6684365 402.014574,27.6435829 C401.712775,26.6187293 401.531699,25.4431795 401.471339,24.1168984 C401.410979,22.7906173 401.3808,21.162933 401.3808,19.2337968 Z M419.669704,40.9364706 C419.669704,39.670475 419.217013,38.6004233 418.311617,37.7262834 C417.406222,36.8521436 416.349942,36.4150802 415.142748,36.4150802 C413.935553,36.4150802 412.879274,36.8521436 411.973878,37.7262834 C411.068482,38.6004233 410.615791,39.670475 410.615791,40.9364706 L410.615791,53.5963636 C410.615791,54.8623593 411.068482,55.932411 411.973878,56.8065508 C412.879274,57.6806906 413.935553,58.117754 415.142748,58.117754 C416.349942,58.117754 417.406222,57.6806906 418.311617,56.8065508 C419.217013,55.932411 419.669704,54.8623593 419.669704,53.5963636 L419.669704,40.9364706 Z" id="2018" stroke="#D25A71" stroke-width="1.5" fill="#D25A71"></path>
                                    <g id="Group-2" fill="#6F4185">
                                        <path d="M84.1020346,11.4308103 L74.9508628,19.5110294 C71.738358,15.0367145 68.4669573,12.7995906 65.1365625,12.7995906 C63.5155739,12.7995906 62.1893303,13.2337692 61.1577921,14.1021396 C60.1262539,14.9705099 59.6104925,15.9492516 59.6104925,17.0383941 C59.6104925,18.1275365 59.9788935,19.1577909 60.7157065,20.1291883 C61.7177722,21.4243847 64.7386603,24.2060716 69.7784613,28.4743326 C74.4940646,32.4187944 77.3528562,34.906123 78.3549219,35.9363929 C80.8600861,38.4679132 82.6357788,40.8890111 83.6820533,43.1997593 C84.7283278,45.5105074 85.2514572,48.0346308 85.2514572,50.772205 C85.2514572,56.1001722 83.4094523,60.5008304 79.7253872,63.9743117 C76.0413222,67.447793 71.2373734,69.1845076 65.3133967,69.1845076 C60.686211,69.1845076 56.6559043,68.0512278 53.2223556,65.784634 C49.788807,63.5180403 46.8489672,59.9563035 44.402748,55.0993169 L54.7917595,48.8294201 C57.9158467,54.5694952 61.5114403,57.4394897 65.5786481,57.4394897 C67.7006696,57.4394897 69.4837303,56.821337 70.9278838,55.5850132 C72.3720373,54.3486893 73.0941033,52.921051 73.0941033,51.3020555 C73.0941033,49.8302414 72.5488698,48.3584493 71.4583865,46.8866352 C70.3679033,45.4148211 67.9659289,43.1629792 64.2523913,40.1310422 C57.1789864,34.3615308 52.6108142,29.9093599 50.5477378,26.7743958 C48.4846613,23.6394317 47.4531386,20.5118736 47.4531386,17.3916277 C47.4531386,12.8878765 49.1698872,9.02442235 52.6034358,5.80114942 C56.0369844,2.57787649 60.2735957,0.966264205 65.3133967,0.966264205 C68.555374,0.966264205 71.6425742,1.71687815 74.57509,3.21812855 C77.5076058,4.71937896 80.6832223,7.45691216 84.1020346,11.4308103 Z M107.753614,19.5110294 L107.753614,24.8095338 C109.934581,22.6312489 112.292347,20.9975597 114.826984,19.9084172 C117.36162,18.8192748 120.073052,18.2747117 122.961359,18.2747117 C129.239006,18.2747117 134.573452,20.6442969 138.964857,25.3835384 C143.356263,30.1227799 145.551933,36.201281 145.551933,43.6192242 C145.551933,50.7722408 143.282583,56.7550755 138.743815,61.5679076 C134.205046,66.3807398 128.826392,68.7871198 122.60769,68.7871198 C119.837273,68.7871198 117.258466,68.2940695 114.871192,67.307954 C112.483918,66.3218386 110.111416,64.7102263 107.753614,62.4730688 L107.753614,85.1241749 L95.7730944,85.1241749 L95.7730944,19.5110294 L107.753614,19.5110294 Z M120.441471,29.4015709 C116.639516,29.4015709 113.486003,30.6967479 110.980839,33.2871407 C108.475675,35.8775336 107.223111,39.2626553 107.223111,43.4426074 C107.223111,47.7108683 108.475675,51.1622207 110.980839,53.7967679 C113.486003,56.4313152 116.639516,57.7485691 120.441471,57.7485691 C124.125536,57.7485691 127.227472,56.4092383 129.747373,53.7305366 C132.267273,51.0518349 133.527204,47.6372774 133.527204,43.4867616 C133.527204,39.365682 132.289377,35.9879193 129.813685,33.353372 C127.337994,30.7188247 124.213953,29.4015709 120.441471,29.4015709 Z M191.086749,19.5110294 L203.111478,19.5110294 L203.111478,67.5508021 L191.086749,67.5508021 L191.086749,62.4730688 C188.728948,64.7102263 186.363813,66.3218386 183.991275,67.307954 C181.618738,68.2940695 179.047299,68.7871198 176.276882,68.7871198 C170.05818,68.7871198 164.679526,66.3807398 160.140757,61.5679076 C155.601989,56.7550755 153.332639,50.7722408 153.332639,43.6192242 C153.332639,36.201281 155.528309,30.1227799 159.919715,25.3835384 C164.31112,20.6442969 169.645566,18.2747117 175.923213,18.2747117 C178.81152,18.2747117 181.522952,18.8192748 184.057588,19.9084172 C186.592225,20.9975597 188.935255,22.6312489 191.086749,24.8095338 L191.086749,19.5110294 Z M178.398893,29.4015709 C174.655883,29.4015709 171.546578,30.7188247 169.070887,33.353372 C166.595195,35.9879193 165.357368,39.365682 165.357368,43.4867616 C165.357368,47.6372774 166.617299,51.0518349 169.137199,53.7305366 C171.6571,56.4092383 174.759036,57.7485691 178.443101,57.7485691 C182.245056,57.7485691 185.398569,56.4313152 187.903733,53.7967679 C190.408897,51.1622207 191.661461,47.7108683 191.661461,43.4426074 C191.661461,39.2626553 190.408897,35.8775336 187.903733,33.2871407 C185.398569,30.6967479 182.23032,29.4015709 178.398893,29.4015709 Z M212.483692,19.5110294 L222.828495,19.5110294 L222.828495,25.5601552 C223.948451,23.1758163 225.436791,21.3655121 227.29356,20.1291883 C229.150329,18.8928644 231.183902,18.2747117 233.394341,18.2747117 C234.956385,18.2747117 236.592085,18.6868135 238.301491,19.5110294 L234.543764,29.8872671 C233.129083,29.1807963 231.964936,28.8275662 231.051287,28.8275662 C229.194519,28.8275662 227.62513,29.975564 226.343076,32.271594 C225.061021,34.5676241 224.420003,39.0713077 224.420003,45.7827801 L224.464212,48.1229529 L224.464212,67.5508021 L212.483692,67.5508021 L212.483692,19.5110294 Z M244.358064,0.966264205 L256.427001,0.966264205 L256.427001,39.3362665 L274.198842,19.5110294 L289.318169,19.5110294 L268.628563,42.5595233 L291.838057,67.5508021 L276.851355,67.5508021 L256.427001,45.4295465 L256.427001,67.5508021 L244.358064,67.5508021 L244.358064,0.966264205 Z" id="llSpark"></path>
                                        <path d="M0.5,56.9675097 L0.5,1.9613369 L10.2447853,1.9613369 L10.2447853,56.2377429 C10.2447853,58.3966472 11.4570431,59.4760831 13.8815951,59.4760831 L13.8815951,68.4613369 C10.3380191,68.4613369 6.43702582,67.5947475 4.13680982,65.8615427 C1.71225782,64.0979307 0.5,61.1332827 0.5,56.9675097 Z M25.1184049,56.9675097 L25.1184049,1.9613369 L34.8631902,1.9613369 L34.8631902,56.2377429 C34.8631902,58.3966472 36.075448,59.4760831 38.5,59.4760831 L38.5,68.4613369 C34.956424,68.4613369 31.0554307,67.5947475 28.7552147,65.8615427 C26.3306627,64.0979307 25.1184049,61.1332827 25.1184049,56.9675097 Z" id="ll" stroke="#6F4185" stroke-width="2"></path>
                                    </g>
                                </g>
                                <g id="footer-note" transform="translate(116.401739, 75.165775)">
                                    <path d="M1.74840605,0.143513495 L3.03911418,0.143513495 L3.03911418,3.76722926 L5.07129293,3.76722926 L5.07129293,4.84358047 L3.03911418,4.84358047 L3.03911418,13.5261469 L1.74840605,13.5261469 L1.74840605,4.84358047 L0,4.84358047 L0,3.76722926 L1.74840605,3.76722926 L1.74840605,0.143513495 Z M15.3694961,10.2881237 L16.4496632,10.8442385 C16.0957083,11.525931 15.6868356,12.0760606 15.2230328,12.4946437 C14.7592299,12.9132268 14.2374595,13.2316442 13.6577059,13.4499054 C13.0779523,13.6681666 12.4219252,13.7772956 11.6896048,13.7772956 C10.0662948,13.7772956 8.79695856,13.2555694 7.88155815,12.2121015 C6.96615774,11.1686336 6.5084644,9.98914383 6.5084644,8.67359688 C6.5084644,7.43578679 6.89597809,6.33253783 7.67101711,5.36381689 C8.65354688,4.13198656 9.96865242,3.51608064 11.6163732,3.51608064 C13.3129153,3.51608064 14.6676875,4.14693574 15.6807307,5.40866486 C16.4008457,6.29964893 16.7670003,7.4118674 16.7792057,8.74535363 L7.8266344,8.74535363 C7.85104508,9.88150782 8.22025104,10.8128413 8.93426336,11.539382 C9.64827568,12.2659227 10.5300982,12.6291876 11.5797573,12.6291876 C12.0862789,12.6291876 12.5790621,12.5424824 13.0581216,12.3690694 C13.5371812,12.1956564 13.9445282,11.9654391 14.280175,11.6784107 C14.6158219,11.3913823 14.9789252,10.9279579 15.3694961,10.2881237 Z M15.3694961,7.66003282 C15.1986213,6.99029983 14.9499413,6.45511943 14.6234485,6.05447559 C14.2969557,5.65383174 13.8651983,5.33092961 13.3281634,5.0857595 C12.7911285,4.84058938 12.22664,4.71800616 11.6346811,4.71800616 C10.658254,4.71800616 9.81914951,5.02595913 9.11734253,5.64187429 C8.6047183,6.09035621 8.2172046,6.76306899 7.95478982,7.66003282 L15.3694961,7.66003282 Z M28.8349688,5.79435738 L27.8188795,6.41325933 C26.9400951,5.27112538 25.7409385,4.70006698 24.2213738,4.70006698 C23.0069426,4.70006698 21.9984916,5.0827658 21.1959906,5.84817494 C20.3934896,6.61358408 19.9922451,7.54342263 19.9922451,8.63771851 C19.9922451,9.34930981 20.176848,10.0190328 20.5460595,10.6469074 C20.915271,11.2747821 21.421785,11.7621252 22.0656166,12.1089512 C22.7094483,12.4557772 23.4310781,12.6291876 24.2305278,12.6291876 C25.6951684,12.6291876 26.8912737,12.0581292 27.8188795,10.9159952 L28.8349688,11.5707756 C28.3589606,12.2704074 27.7197156,12.8130623 26.9172146,13.1987568 C26.1147135,13.5844512 25.2008525,13.7772956 24.175604,13.7772956 C22.6011153,13.7772956 21.2951637,13.2869627 20.2577099,12.3062822 C19.2202561,11.3256018 18.7015369,10.1326578 18.7015369,8.72741444 C18.7015369,7.78261254 18.9441144,6.90509609 19.4292766,6.09483876 C19.9144388,5.28458143 20.5811455,4.65223142 21.4294165,4.19776974 C22.2776876,3.74330807 23.2266384,3.51608064 24.2762976,3.51608064 C24.9353859,3.51608064 25.5715796,3.61474518 26.1848979,3.81207722 C26.7982162,4.00940927 27.3184609,4.26653504 27.7456478,4.58346226 C28.1728347,4.90038948 28.535938,5.30401715 28.8349688,5.79435738 Z M31.2973836,0 L32.5789378,0 L32.5789378,5.51629998 C33.0976647,4.84656699 33.6682557,4.34576969 34.290728,4.01389308 C34.9132003,3.68201646 35.5875352,3.51608064 36.3137528,3.51608064 C37.0582785,3.51608064 37.7188825,3.70145038 38.2955848,4.07219543 C38.8722871,4.44294048 39.2979419,4.94074794 39.572562,5.56563275 C39.8471821,6.19051755 39.9844901,7.16968838 39.9844901,8.50317461 L39.9844901,13.5261469 L38.702936,13.5261469 L38.702936,8.87092794 C38.702936,7.74673327 38.6571666,6.99628479 38.5656266,6.61955998 C38.4069572,5.97374602 38.1186104,5.4878979 37.7005775,5.16200104 C37.2825447,4.83610418 36.7348383,4.6731582 36.057442,4.6731582 C35.282403,4.6731582 34.5882347,4.9243043 33.9749165,5.42660405 C33.3615982,5.92890379 32.9573024,6.55078939 32.762017,7.29227949 C32.6399636,7.7706602 32.5789378,8.65565124 32.5789378,9.94727915 L32.5789378,13.5261469 L31.2973836,13.5261469 L31.2973836,0 Z M51.1157035,10.2881237 L52.1958706,10.8442385 C51.8419158,11.525931 51.433043,12.0760606 50.9692402,12.4946437 C50.5054373,12.9132268 49.9836669,13.2316442 49.4039133,13.4499054 C48.8241597,13.6681666 48.1681326,13.7772956 47.4358122,13.7772956 C45.8125022,13.7772956 44.543166,13.2555694 43.6277656,12.2121015 C42.7123651,11.1686336 42.2546718,9.98914383 42.2546718,8.67359688 C42.2546718,7.43578679 42.6421855,6.33253783 43.4172245,5.36381689 C44.3997543,4.13198656 45.7148598,3.51608064 47.3625806,3.51608064 C49.0591227,3.51608064 50.413895,4.14693574 51.4269381,5.40866486 C52.1470531,6.29964893 52.5132077,7.4118674 52.5254131,8.74535363 L43.5728418,8.74535363 C43.5972525,9.88150782 43.9664584,10.8128413 44.6804708,11.539382 C45.3944831,12.2659227 46.2763056,12.6291876 47.3259647,12.6291876 C47.8324863,12.6291876 48.3252695,12.5424824 48.804329,12.3690694 C49.2833886,12.1956564 49.6907356,11.9654391 50.0263824,11.6784107 C50.3620293,11.3913823 50.7251326,10.9279579 51.1157035,10.2881237 Z M51.1157035,7.66003282 C50.9448287,6.99029983 50.6961487,6.45511943 50.3696559,6.05447559 C50.0431631,5.65383174 49.6114057,5.33092961 49.0743708,5.0857595 C48.5373359,4.84058938 47.9728474,4.71800616 47.3808885,4.71800616 C46.4044614,4.71800616 45.5653569,5.02595913 44.8635499,5.64187429 C44.3509257,6.09035621 43.963412,6.76306899 43.7009972,7.66003282 L51.1157035,7.66003282 Z M53.7795054,3.76722926 L55.3173704,3.76722926 L57.9537104,7.38197542 L60.5900504,3.76722926 L62.1279154,3.76722926 L58.7226429,8.40450908 L62.5581514,13.5261469 L61.0019785,13.5261469 L57.9537104,9.42704273 L54.951212,13.5261469 L53.422501,13.5261469 L57.1939318,8.40450908 L53.7795054,3.76722926 Z M73.5795173,5.79435738 L72.5634279,6.41325933 C71.6846435,5.27112538 70.485487,4.70006698 68.9659223,4.70006698 C67.7514911,4.70006698 66.7430401,5.0827658 65.9405391,5.84817494 C65.138038,6.61358408 64.7367935,7.54342263 64.7367935,8.63771851 C64.7367935,9.34930981 64.9213965,10.0190328 65.290608,10.6469074 C65.6598195,11.2747821 66.1663335,11.7621252 66.8101651,12.1089512 C67.4539967,12.4557772 68.1756266,12.6291876 68.9750763,12.6291876 C70.4397169,12.6291876 71.6358222,12.0581292 72.5634279,10.9159952 L73.5795173,11.5707756 C73.1035091,12.2704074 72.4642641,12.8130623 71.661763,13.1987568 C70.859262,13.5844512 69.945401,13.7772956 68.9201525,13.7772956 C67.3456638,13.7772956 66.0397121,13.2869627 65.0022583,12.3062822 C63.9648045,11.3256018 63.4460854,10.1326578 63.4460854,8.72741444 C63.4460854,7.78261254 63.6886629,6.90509609 64.1738251,6.09483876 C64.6589873,5.28458143 65.3256939,4.65223142 66.173965,4.19776974 C67.022236,3.74330807 67.9711869,3.51608064 69.020846,3.51608064 C69.6799343,3.51608064 70.3161281,3.61474518 70.9294464,3.81207722 C71.5427646,4.00940927 72.0630094,4.26653504 72.4901963,4.58346226 C72.9173831,4.90038948 73.2804865,5.30401715 73.5795173,5.79435738 Z M76.0419321,0 L77.3234863,0 L77.3234863,5.51629998 C77.8422132,4.84656699 78.4128042,4.34576969 79.0352765,4.01389308 C79.6577488,3.68201646 80.3320836,3.51608064 81.0583013,3.51608064 C81.802827,3.51608064 82.463431,3.70145038 83.0401333,4.07219543 C83.6168355,4.44294048 84.0424903,4.94074794 84.3171105,5.56563275 C84.5917306,6.19051755 84.7290386,7.16968838 84.7290386,8.50317461 L84.7290386,13.5261469 L83.4474844,13.5261469 L83.4474844,8.87092794 C83.4474844,7.74673327 83.4017151,6.99628479 83.310175,6.61955998 C83.1515056,5.97374602 82.8631588,5.4878979 82.445126,5.16200104 C82.0270931,4.83610418 81.4793868,4.6731582 80.8019905,4.6731582 C80.0269514,4.6731582 79.3327832,4.9243043 78.7194649,5.42660405 C78.1061467,5.92890379 77.7018509,6.55078939 77.5065654,7.29227949 C77.3845121,7.7706602 77.3234863,8.65565124 77.3234863,9.94727915 L77.3234863,13.5261469 L76.0419321,13.5261469 L76.0419321,0 Z M97.398117,3.76722926 L97.398117,13.5261469 L96.1348707,13.5261469 L96.1348707,11.848833 C95.5978358,12.4886672 94.9952062,12.9700305 94.3269639,13.2929375 C93.6587216,13.6158445 92.9279379,13.7772956 92.1345909,13.7772956 C90.7248743,13.7772956 89.5211408,13.2764983 88.5233543,12.2748887 C87.5255679,11.273279 87.0266821,10.0549215 87.0266821,8.61977932 C87.0266821,7.21453598 87.5301448,6.01262248 88.5370853,5.01400275 C89.5440257,4.01538302 90.7553874,3.51608064 92.1712067,3.51608064 C92.9889644,3.51608064 93.728902,3.68650121 94.3910416,4.02734747 C95.0531813,4.36819372 95.6344518,4.87945544 96.1348707,5.56114795 L96.1348707,3.76722926 L97.398117,3.76722926 Z M92.2719003,4.72697576 C91.557888,4.72697576 90.8988096,4.89889125 90.2946453,5.24272738 C89.690481,5.58656352 89.209903,6.0694218 88.8528968,6.69131673 C88.4958907,7.31321165 88.3173903,7.97097526 88.3173903,8.66462729 C88.3173903,9.35229956 88.4974163,10.0100632 88.8574738,10.6379379 C89.2175313,11.2658125 89.7011606,11.7546505 90.3083762,12.1044664 C90.9155918,12.4542823 91.567042,12.6291876 92.2627463,12.6291876 C92.9645533,12.6291876 93.6297343,12.4557772 94.2583092,12.1089512 C94.8868842,11.7621252 95.3705135,11.2927211 95.7092116,10.700725 C96.0479098,10.1087289 96.2172563,9.44199576 96.2172563,8.70050566 C96.2172563,7.57033123 95.8373709,6.6255435 95.0775885,5.86611413 C94.3178062,5.10668475 93.3825861,4.72697576 92.2719003,4.72697576 Z M100.281614,3.76722926 L101.563168,3.76722926 L101.563168,5.51629998 C102.075792,4.84656699 102.643332,4.34576969 103.265804,4.01389308 C103.888277,3.68201646 104.565663,3.51608064 105.297983,3.51608064 C106.042509,3.51608064 106.703113,3.70145038 107.279815,4.07219543 C107.856517,4.44294048 108.282172,4.94224286 108.556792,5.57011754 C108.831412,6.19799222 108.96872,7.17566814 108.96872,8.50317461 L108.96872,13.5261469 L107.69632,13.5261469 L107.69632,8.87092794 C107.69632,7.74673327 107.6475,6.99628479 107.549857,6.61955998 C107.39729,5.97374602 107.110469,5.4878979 106.689385,5.16200104 C106.268301,4.83610418 105.719069,4.6731582 105.041672,4.6731582 C104.266633,4.6731582 103.572465,4.9243043 102.959147,5.42660405 C102.345828,5.92890379 101.941533,6.55078939 101.746247,7.29227949 C101.624194,7.77663996 101.563168,8.661631 101.563168,9.94727915 L101.563168,13.5261469 L100.281614,13.5261469 L100.281614,3.76722926 Z M120.292167,3.76722926 L121.582875,3.76722926 L121.582875,11.5438668 C121.582875,12.9132316 121.460823,13.9148262 121.216717,14.5486806 C120.88107,15.4456444 120.298274,16.1362962 119.468311,16.6206567 C118.638348,17.1050172 117.640576,17.3471938 116.474966,17.3471938 C115.620592,17.3471938 114.853193,17.2290953 114.172746,16.9928948 C113.492298,16.7566943 112.938489,16.4397719 112.511302,16.0421179 C112.084115,15.6444639 111.690499,15.0629411 111.330442,14.297532 L112.721843,14.297532 C113.100209,14.9433459 113.588415,15.4217195 114.186477,15.7326669 C114.784538,16.0436144 115.526001,16.1990858 116.410888,16.1990858 C117.28357,16.1990858 118.020456,16.0391296 118.621569,15.7192125 C119.222682,15.3992954 119.651388,14.9971627 119.907701,14.5128022 C120.164013,14.0284418 120.292167,13.2480949 120.292167,12.1717383 L120.292167,11.6694411 C119.810056,12.267417 119.221157,12.7263566 118.525453,13.0462737 C117.829749,13.3661908 117.091337,13.5261469 116.310195,13.5261469 C115.394795,13.5261469 114.534331,13.3034043 113.728779,12.8579122 C112.923226,12.4124202 112.300763,11.8129584 111.861371,11.0595087 C111.421979,10.3060591 111.202286,9.47787494 111.202286,8.57493135 C111.202286,7.67198776 111.431133,6.83034933 111.888833,6.04999079 C112.346533,5.26963226 112.979676,4.65223142 113.788279,4.19776974 C114.596883,3.74330807 115.449718,3.51608064 116.346811,3.51608064 C117.091336,3.51608064 117.785505,3.66706729 118.429336,3.96904511 C119.073168,4.27102293 119.694105,4.76883039 120.292167,5.46248242 L120.292167,3.76722926 Z M116.511582,4.72697576 C115.785364,4.72697576 115.11103,4.89889125 114.488557,5.24272738 C113.866085,5.58656352 113.377879,6.06194722 113.023924,6.66889274 C112.669969,7.27583827 112.492994,7.93210696 112.492994,8.63771851 C112.492994,9.70809535 112.859149,10.5930864 113.591469,11.2927182 C114.32379,11.99235 115.272741,12.3421606 116.43835,12.3421606 C117.616166,12.3421606 118.563591,11.9953398 119.280654,11.3016878 C119.997718,10.6080357 120.356245,9.69613619 120.356245,8.56596176 C120.356245,7.83045142 120.191475,7.17418273 119.861931,6.59713599 C119.532387,6.02008926 119.065539,5.56413949 118.461375,5.22927299 C117.857211,4.89440649 117.207286,4.72697576 116.511582,4.72697576 Z M132.714088,10.2881237 L133.794255,10.8442385 C133.440301,11.525931 133.031428,12.0760606 132.567625,12.4946437 C132.103822,12.9132268 131.582052,13.2316442 131.002298,13.4499054 C130.422545,13.6681666 129.766517,13.7772956 129.034197,13.7772956 C127.410887,13.7772956 126.141551,13.2555694 125.22615,12.2121015 C124.31075,11.1686336 123.853057,9.98914383 123.853057,8.67359688 C123.853057,7.43578679 124.24057,6.33253783 125.015609,5.36381689 C125.998139,4.13198656 127.313245,3.51608064 128.960965,3.51608064 C130.657507,3.51608064 132.01228,4.14693574 133.025323,5.40866486 C133.745438,6.29964893 134.111593,7.4118674 134.123798,8.74535363 L125.171227,8.74535363 C125.195637,9.88150782 125.564843,10.8128413 126.278856,11.539382 C126.992868,12.2659227 127.87469,12.6291876 128.92435,12.6291876 C129.430871,12.6291876 129.923654,12.5424824 130.402714,12.3690694 C130.881773,12.1956564 131.28912,11.9654391 131.624767,11.6784107 C131.960414,11.3913823 132.323517,10.9279579 132.714088,10.2881237 Z M132.714088,7.66003282 C132.543214,6.99029983 132.294534,6.45511943 131.968041,6.05447559 C131.641548,5.65383174 131.209791,5.33092961 130.672756,5.0857595 C130.135721,4.84058938 129.571232,4.71800616 128.979273,4.71800616 C128.002846,4.71800616 127.163742,5.02595913 126.461935,5.64187429 C125.949311,6.09035621 125.561797,6.76306899 125.299382,7.66003282 L132.714088,7.66003282 Z" id="techexchange" fill="#D25A71"></path>
                                    <path d="M168.017232,4.90563349 L167.197557,5.75206005 C166.517526,5.09069119 165.852685,4.76001172 165.203013,4.76001172 C164.790137,4.76001172 164.436466,4.89653077 164.141988,5.16957296 C163.847511,5.44261515 163.700274,5.76115959 163.700274,6.12521585 C163.700274,6.44679887 163.821707,6.75320829 164.064575,7.04445329 C164.307443,7.3417659 164.817458,7.69064791 165.594636,8.09110979 C166.541821,8.58258573 167.185412,9.05585176 167.525427,9.51092208 C167.85937,9.97206 168.02634,10.4908324 168.02634,11.0672548 C168.02634,11.8803137 167.740974,12.5689765 167.170234,13.1332637 C166.599494,13.6975509 165.88608,13.9796903 165.02997,13.9796903 C164.45923,13.9796903 163.914303,13.8553062 163.395173,13.6065345 C162.876042,13.3577627 162.446476,13.0149482 162.106461,12.5780807 L162.907921,11.6679446 C163.557593,12.4021247 164.246721,12.7692093 164.975325,12.7692093 C165.485348,12.7692093 165.919468,12.6053864 166.277698,12.2777358 C166.635929,11.9500851 166.815041,11.5647981 166.815041,11.1218629 C166.815041,10.7578067 166.696645,10.4331947 166.459849,10.1480173 C166.223052,9.86890754 165.688751,9.51699178 164.856928,9.09225948 C163.964388,8.63112156 163.357227,8.17605807 163.035426,7.72705535 C162.713626,7.27805264 162.552729,6.76534777 162.552729,6.18892537 C162.552729,5.43654245 162.809254,4.81158859 163.322313,4.31404504 C163.835372,3.81650149 164.483516,3.56773345 165.266765,3.56773345 C166.17752,3.56773345 167.094334,4.01369567 168.017232,4.90563349 Z M178.618369,10.4392609 L179.693055,11.0035453 C179.340896,11.6952521 178.934098,12.2534634 178.472649,12.6781957 C178.0112,13.1029279 177.492077,13.426023 176.915265,13.6474906 C176.338454,13.8689581 175.685756,13.9796903 174.957152,13.9796903 C173.342079,13.9796903 172.079184,13.4502997 171.168429,12.3915028 C170.257674,11.3327058 169.802303,10.1358889 169.802303,8.80101593 C169.802303,7.54502186 170.18785,6.42556567 170.958956,5.44261378 C171.9365,4.19268731 173.244932,3.56773345 174.884291,3.56773345 C176.572224,3.56773345 177.920122,4.20785609 178.928024,5.48812059 C179.644485,6.39219362 180.008781,7.52075108 180.020925,8.87382682 L171.113784,8.87382682 C171.138071,10.0266716 171.505403,10.9716868 172.215792,11.7089007 C172.926181,12.4461146 173.803529,12.8147161 174.847861,12.8147161 C175.351813,12.8147161 175.842095,12.7267371 176.318724,12.5507766 C176.795352,12.3748161 177.200632,12.1412168 177.534576,11.8499718 C177.868519,11.5587268 178.22978,11.0884945 178.618369,10.4392609 Z M178.618369,7.77256216 C178.448361,7.09299048 178.200943,6.54994805 177.876107,6.14341857 C177.551271,5.73688908 177.121705,5.40924337 176.587395,5.1604716 C176.053085,4.91169982 175.491461,4.7873158 174.902506,4.7873158 C173.931034,4.7873158 173.096188,5.09979273 172.397942,5.72475597 C171.88792,6.17982629 171.502372,6.86242152 171.241289,7.77256216 L178.618369,7.77256216 Z M182.416199,3.82257155 L183.682142,3.82257155 L183.682142,5.64284372 C184.186093,4.95113684 184.765932,4.43236446 185.421676,4.08651102 C186.077419,3.74065758 186.809048,3.56773345 187.616585,3.56773345 C189.025219,3.56773345 190.230434,4.0743708 191.232264,5.08766071 C192.234095,6.10095062 192.735003,7.32052077 192.735003,8.74640777 C192.735003,10.2026328 192.238649,11.4388886 191.245926,12.4552123 C190.253203,13.471536 189.055578,13.9796903 187.653015,13.9796903 C186.863694,13.9796903 186.138136,13.8158674 185.476321,13.4882168 C184.814505,13.1605661 184.216452,12.6721313 183.682142,12.0228977 L183.682142,17.3471938 L182.416199,17.3471938 L182.416199,3.82257155 Z M187.516402,4.79641716 C186.411353,4.79641716 185.480878,5.18170425 184.724952,5.95228999 C183.969025,6.72287573 183.591067,7.68154282 183.591067,8.82832002 C183.591067,9.58070294 183.759554,10.2572307 184.096534,10.8579235 C184.433513,11.4586163 184.916206,11.9349161 185.544627,12.2868371 C186.173048,12.6387582 186.836371,12.8147161 187.534617,12.8147161 C188.220719,12.8147161 188.865828,12.6372413 189.469962,12.2822865 C190.074096,11.9273316 190.555271,11.4313124 190.913502,10.794214 C191.271732,10.1571155 191.450845,9.48968906 191.450845,8.79191457 C191.450845,8.08807248 191.27325,7.42064603 190.918056,6.78961519 C190.562861,6.15858435 190.084722,5.66863265 189.483623,5.31974541 C188.882525,4.97085817 188.226791,4.79641716 187.516402,4.79641716 Z M196.232285,0.145621773 L197.516443,0.145621773 L197.516443,3.82257155 L199.53831,3.82257155 L199.53831,4.91473485 L197.516443,4.91473485 L197.516443,13.7248521 L196.232285,13.7248521 L196.232285,4.91473485 L194.492752,4.91473485 L194.492752,3.82257155 L196.232285,3.82257155 L196.232285,0.145621773 Z M209.784254,10.4392609 L210.85894,11.0035453 C210.506781,11.6952521 210.099983,12.2534634 209.638534,12.6781957 C209.177084,13.1029279 208.657962,13.426023 208.08115,13.6474906 C207.504339,13.8689581 206.851641,13.9796903 206.123037,13.9796903 C204.507964,13.9796903 203.245069,13.4502997 202.334314,12.3915028 C201.423559,11.3327058 200.968188,10.1358889 200.968188,8.80101593 C200.968188,7.54502186 201.353735,6.42556567 202.124841,5.44261378 C203.102385,4.19268731 204.410817,3.56773345 206.050176,3.56773345 C207.738109,3.56773345 209.086007,4.20785609 210.093909,5.48812059 C210.81037,6.39219362 211.174666,7.52075108 211.18681,8.87382682 L202.279669,8.87382682 C202.303956,10.0266716 202.671288,10.9716868 203.381677,11.7089007 C204.092066,12.4461146 204.969414,12.8147161 206.013746,12.8147161 C206.517698,12.8147161 207.00798,12.7267371 207.484609,12.5507766 C207.961237,12.3748161 208.366517,12.1412168 208.700461,11.8499718 C209.034404,11.5587268 209.395665,11.0884945 209.784254,10.4392609 Z M209.784254,7.77256216 C209.614246,7.09299048 209.366828,6.54994805 209.041992,6.14341857 C208.717156,5.73688908 208.28759,5.40924337 207.75328,5.1604716 C207.21897,4.91169982 206.657346,4.7873158 206.068391,4.7873158 C205.096919,4.7873158 204.262073,5.09979273 203.563827,5.72475597 C203.053804,6.17982629 202.668257,6.86242152 202.407174,7.77256216 L209.784254,7.77256216 Z M213.554761,3.82257155 L214.820705,3.82257155 L214.820705,5.53362739 C215.263939,4.90259655 215.719309,4.44146555 216.18683,4.15022054 C216.830431,3.76189387 217.507415,3.56773345 218.217804,3.56773345 C218.697469,3.56773345 219.152839,3.6617799 219.58393,3.84987564 C220.015021,4.03797137 220.367174,4.28825629 220.640401,4.60073791 C220.913627,4.91321952 221.15042,5.36069862 221.350786,5.94318863 C221.775805,5.16653529 222.307071,4.57646963 222.9446,4.17297395 C223.582128,3.76947826 224.26822,3.56773345 225.002896,3.56773345 C225.688998,3.56773345 226.294641,3.74065758 226.819844,4.08651102 C227.345046,4.43236446 227.735147,4.91473176 227.990158,5.53362739 C228.245169,6.15252302 228.372673,7.08085255 228.372673,8.31864381 L228.372673,13.7248521 L227.0703,13.7248521 L227.0703,8.31864381 C227.0703,7.25681307 226.994405,6.5271946 226.842612,6.12976653 C226.69082,5.73233845 226.431258,5.41227713 226.063921,5.16957296 C225.696583,4.92686879 225.257909,4.80551852 224.747886,4.80551852 C224.128572,4.80551852 223.562395,4.98754392 223.049336,5.35160017 C222.536277,5.71565643 222.161355,6.20105749 221.924559,6.80781791 C221.687763,7.41457833 221.569366,8.42785304 221.569366,9.84767243 L221.569366,13.7248521 L220.303423,13.7248521 L220.303423,8.65539416 C220.303423,7.46007613 220.229046,6.64854623 220.080289,6.22078013 C219.931533,5.79301404 219.671971,5.45019954 219.301597,5.19232636 C218.931224,4.93445318 218.491032,4.80551852 217.981009,4.80551852 C217.392054,4.80551852 216.841056,4.98299329 216.327997,5.33794813 C215.814938,5.69290298 215.435462,6.17071965 215.189559,6.77141247 C214.943655,7.37210528 214.820705,8.29133354 214.820705,9.5291248 L214.820705,13.7248521 L213.554761,13.7248521 L213.554761,3.82257155 Z M231.141355,13.7248521 L231.141355,0 L232.407298,0 L232.407298,5.52452603 C232.941608,4.86922477 233.539662,4.37927308 234.201477,4.05465625 C234.863292,3.73003943 235.58885,3.56773345 236.378171,3.56773345 C237.780734,3.56773345 238.978359,4.07588768 239.971082,5.09221139 C240.963805,6.1085351 241.460159,7.34175716 241.460159,8.79191457 C241.460159,10.2238692 240.959251,11.4464731 239.957421,12.459763 C238.95559,13.4730529 237.750375,13.9796903 236.341741,13.9796903 C235.534205,13.9796903 234.802576,13.8067661 234.146832,13.4609127 C233.491088,13.1150592 232.91125,12.5962869 232.407298,11.90458 L232.407298,13.7248521 L231.141355,13.7248521 Z M236.241558,12.7510065 C236.951947,12.7510065 237.607681,12.5765655 238.20878,12.2276783 C238.809878,11.878791 239.288017,11.3888394 239.643212,10.7578085 C239.998406,10.1267777 240.176001,9.45935122 240.176001,8.75550913 C240.176001,8.05166704 239.996888,7.38120683 239.638658,6.74410838 C239.280428,6.10700994 238.799253,5.61099073 238.195118,5.25603589 C237.590984,4.90108104 236.945876,4.72360628 236.259773,4.72360628 C235.561528,4.72360628 234.898204,4.90108104 234.269783,5.25603589 C233.641362,5.61099073 233.158669,6.0888074 232.82169,6.68950022 C232.48471,7.29019304 232.316223,7.96672076 232.316223,8.71910369 C232.316223,9.86588089 232.694181,10.824548 233.450108,11.5951337 C234.206035,12.3657194 235.136509,12.7510065 236.241558,12.7510065 Z M252.125048,10.4392609 L253.199734,11.0035453 C252.847576,11.6952521 252.440778,12.2534634 251.979328,12.6781957 C251.517879,13.1029279 250.998756,13.426023 250.421945,13.6474906 C249.845133,13.8689581 249.192435,13.9796903 248.463831,13.9796903 C246.848759,13.9796903 245.585864,13.4502997 244.675109,12.3915028 C243.764354,11.3327058 243.308983,10.1358889 243.308983,8.80101593 C243.308983,7.54502186 243.69453,6.42556567 244.465636,5.44261378 C245.44318,4.19268731 246.751612,3.56773345 248.390971,3.56773345 C250.078904,3.56773345 251.426801,4.20785609 252.434704,5.48812059 C253.151164,6.39219362 253.515461,7.52075108 253.527604,8.87382682 L244.620464,8.87382682 C244.64475,10.0266716 245.012083,10.9716868 245.722472,11.7089007 C246.432861,12.4461146 247.310209,12.8147161 248.354541,12.8147161 C248.858492,12.8147161 249.348775,12.7267371 249.825403,12.5507766 C250.302032,12.3748161 250.707312,12.1412168 251.041255,11.8499718 C251.375199,11.5587268 251.73646,11.0884945 252.125048,10.4392609 Z M252.125048,7.77256216 C251.955041,7.09299048 251.707623,6.54994805 251.382787,6.14341857 C251.057951,5.73688908 250.628384,5.40924337 250.094075,5.1604716 C249.559765,4.91169982 248.998141,4.7873158 248.409186,4.7873158 C247.437714,4.7873158 246.602868,5.09979273 245.904622,5.72475597 C245.394599,6.17982629 245.009052,6.86242152 244.747969,7.77256216 L252.125048,7.77256216 Z M255.421966,3.82257155 L256.724339,3.82257155 L256.724339,5.26968793 C257.112928,4.69933313 257.522761,4.27309033 257.953852,3.99094673 C258.384943,3.70880313 258.834242,3.56773345 259.301763,3.56773345 C259.653922,3.56773345 260.030362,3.67998244 260.431094,3.9044838 L259.766246,4.97844438 C259.499091,4.8631599 259.274441,4.80551852 259.09229,4.80551852 C258.667271,4.80551852 258.257438,4.97995953 257.862777,5.32884677 C257.468117,5.67773402 257.167572,6.21925957 256.961134,6.95343968 C256.80327,7.51772688 256.724339,8.65841936 256.724339,10.3755514 L256.724339,13.7248521 L255.421966,13.7248521 L255.421966,3.82257155 Z M266.596875,0.336750351 L275.094178,0.336750351 L267.926571,14.0616025 L266.824563,13.4973181 L273.017667,1.60183951 L266.596875,1.60183951 L266.596875,0.336750351 Z M292.525944,8.77371185 L293.436695,9.7384561 C292.853812,10.2542025 292.328617,10.7001647 291.861096,11.0763561 C292.170753,11.4040068 292.617017,11.862104 293.1999,12.4506616 C293.661349,12.9117996 294.05904,13.3365255 294.392983,13.7248521 L292.525944,13.7248521 L290.804626,11.9318841 C289.651003,12.8056191 288.725082,13.3789991 288.026837,13.6520413 C287.328591,13.9250835 286.59089,14.0616025 285.813713,14.0616025 C284.781523,14.0616025 283.952749,13.7658112 283.327364,13.1742198 C282.701978,12.5826284 282.38929,11.8439087 282.38929,10.9580385 C282.38929,10.290602 282.600279,9.62165865 283.022262,8.95118839 C283.444245,8.28071812 284.304896,7.43278315 285.60424,6.40735803 C284.869564,5.52148781 284.397496,4.86771326 284.188023,4.44601477 C283.978549,4.02431628 283.873814,3.62234353 283.873814,3.24008446 C283.873814,2.57264799 284.131857,2.02050429 284.647952,1.58363679 C285.242979,1.07395803 285.983715,0.819122476 286.870183,0.819122476 C287.42878,0.819122476 287.938795,0.93137147 288.400244,1.15587283 C288.861694,1.38037418 289.213847,1.68223297 289.456715,2.06145823 C289.699583,2.44068349 289.821015,2.84265625 289.821015,3.26738854 C289.821015,3.71639126 289.663153,4.19420792 289.347425,4.70085287 C289.031696,5.20749783 288.409356,5.85520486 287.480386,6.64399341 L289.51136,8.77371185 L290.904808,10.1662201 C291.572695,9.60800047 292.113069,9.14383571 292.525944,8.77371185 Z M286.651603,5.64284372 C287.301275,5.13923257 287.79004,4.64473024 288.117912,4.1593219 C288.348636,3.81346846 288.463997,3.50705905 288.463997,3.24008446 C288.463997,2.93063664 288.313724,2.66366606 288.013175,2.43916471 C287.712626,2.21466335 287.313418,2.10241435 286.815538,2.10241435 C286.341946,2.10241435 285.956398,2.21769711 285.658885,2.44826607 C285.361372,2.67883503 285.212617,2.95187312 285.212617,3.26738854 C285.212617,3.51009271 285.273333,3.73762446 285.394767,3.9499906 C285.692281,4.46573696 286.111222,5.03001569 286.651603,5.64284372 Z M286.487668,7.41760909 C285.35226,8.27314128 284.608488,8.95421964 284.256329,9.46086459 C283.90417,9.96750955 283.728094,10.4362249 283.728094,10.8670248 C283.728094,11.3767036 283.943636,11.8272165 284.374727,12.2185769 C284.805817,12.6099374 285.334047,12.8056147 285.959433,12.8056147 C286.433025,12.8056147 286.897504,12.7085345 287.352881,12.5143712 C288.069342,12.2049233 288.916331,11.7013197 289.893875,11.0035453 L287.708074,8.76461049 C287.343772,8.38235142 286.936974,7.93335545 286.487668,7.41760909 Z M307.207244,6.38005395 C308.111927,6.82905666 308.760072,7.34176153 309.151696,7.91818393 C309.543321,8.49460633 309.73913,9.14989776 309.73913,9.88407787 C309.73913,10.9155706 309.402156,11.8256976 308.728197,12.6144861 C307.902446,13.5792352 306.721518,14.0616025 305.185378,14.0616025 C303.703882,14.0616025 302.580635,13.6383935 301.8156,12.7919627 C301.050566,11.9455319 300.668055,11.0126517 300.668055,9.9932942 C300.668055,9.24697888 300.868418,8.57500179 301.26915,7.97734278 C301.669882,7.37968376 302.337759,6.84725948 303.272801,6.38005395 C302.617058,6.04026811 302.125257,5.61857594 301.797385,5.11496479 C301.469513,4.61135364 301.30558,4.07134496 301.30558,3.49492256 C301.30558,2.91243256 301.480139,2.34360319 301.829262,1.78841741 C302.178384,1.23323162 302.661077,0.796370666 303.277355,0.477821444 C303.893633,0.159272222 304.559992,0 305.276453,0 C305.974698,0 306.621325,0.1607891 307.216351,0.482372125 C307.811378,0.803955149 308.277374,1.2408161 308.614353,1.79296809 C308.951333,2.34512007 309.11982,2.92456758 309.11982,3.53132801 C309.11982,4.13808843 308.96044,4.67809711 308.641676,5.15137024 C308.322912,5.62464337 307.844772,6.03420051 307.207244,6.38005395 Z M305.2127,1.3014946 C304.478024,1.3014946 303.869345,1.5184082 303.386645,1.9522419 C302.903945,2.3860756 302.662598,2.9033311 302.662598,3.50402392 C302.662598,4.09864914 302.92216,4.63714094 303.44129,5.11951547 C303.960421,5.60189001 304.566064,5.84307366 305.258238,5.84307366 C305.701472,5.84307366 306.120413,5.73385842 306.515073,5.51542467 C306.909734,5.29699092 307.217868,4.99816589 307.439485,4.61894063 C307.661102,4.23971536 307.771909,3.85897891 307.771909,3.47671984 C307.771909,2.93670306 307.553331,2.43916698 307.116169,1.98409666 C306.679006,1.52902635 306.044523,1.3014946 305.2127,1.3014946 Z M305.276453,7.05355465 C304.353554,7.05355465 303.579424,7.35237968 302.954039,7.95003869 C302.328653,8.54769771 302.015965,9.24394485 302.015965,10.038801 C302.015965,10.530277 302.149541,10.9944417 302.416696,11.4313092 C302.683851,11.8681767 303.057255,12.2049237 303.536919,12.4415603 C304.016583,12.6781968 304.572136,12.7965133 305.203593,12.7965133 C306.181136,12.7965133 306.958302,12.5083065 307.535114,11.9318841 C308.111926,11.3554617 308.400327,10.6819677 308.400327,9.91138196 C308.400327,9.16506664 308.095229,8.50219082 307.485023,7.92273461 C306.874817,7.34327841 306.138634,7.05355465 305.276453,7.05355465 Z" id="september-7-&amp;-8" fill="#6F4185"></path>
                                    <g id="spark/color" transform="translate(142.808073, 2.867476)" fill="url(#linearGradient-1)">
                                        <path d="M6,2.13162821e-15 C6.2,1.8 6.8,3.2 7.8,4.2 C8.8,5.2 10.2,5.8 12,6 C10.2,6.2 8.8,6.8 7.8,7.8 C6.8,8.8 6.2,10.2 6,12 C5.8,10.2 5.2,8.8 4.2,7.8 C3.2,6.8 1.8,6.2 0,6 C1.8,5.8 3.2,5.2 4.2,4.2 C5.2,3.2 5.8,1.8 6,2.13162821e-15 Z" id="Rectangle-5"></path>
                                    </g>
                                </g>
                            </g>
                        </g>
                    </g>
                </g>
            </g>
        </g>
    </g>
</svg>