<svg xmlns="http://www.w3.org/2000/svg" width="36.465" height="36.453" viewBox="0 0 36.465 36.453">
  <g id="information-_1_" transform="translate(-27.5 484.85)">
    <path id="Path_57" data-name="Path 57" d="M135.827-484.742a9.4,9.4,0,0,0-5.126,2.782,9.334,9.334,0,0,0-.486,12.277,9.353,9.353,0,0,0,14.8-.327,9.3,9.3,0,0,0,1.778-6.4,9.252,9.252,0,0,0-2.711-5.74,9.3,9.3,0,0,0-4.927-2.591A12.889,12.889,0,0,0,135.827-484.742Z" transform="translate(-92.622 0)" fill="#fff"/>
    <path id="Path_58" data-name="Path 58" d="M269.313-250.442a9.863,9.863,0,0,0-3.994,1.515,10.556,10.556,0,0,0-2.073,1.977,11.1,11.1,0,0,0-1.459,2.974,8.928,8.928,0,0,0,.383,5.9,9.036,9.036,0,0,0,6.083,5.182,6.829,6.829,0,0,0,2.1.175,6.543,6.543,0,0,0,2.272-.215,10.172,10.172,0,0,0,2.862-1.331,10.545,10.545,0,0,0,2.176-2.16,10.6,10.6,0,0,0,1.355-2.918,10.379,10.379,0,0,0,.151-3.747,8.96,8.96,0,0,0-7.039-7.231A10.609,10.609,0,0,0,269.313-250.442Zm1.826,3.548a1.618,1.618,0,0,1,.407,2.663,1.618,1.618,0,0,1-2.663-.407,1.586,1.586,0,0,1,.311-1.953A1.582,1.582,0,0,1,271.139-246.894Zm-.231,4.193a1.6,1.6,0,0,1,.534.454c.183.263.183.311.183,2.774a10.5,10.5,0,0,1-.12,2.734,1.344,1.344,0,0,1-1.459.646,1.478,1.478,0,0,1-.893-.893,39.2,39.2,0,0,1,0-4.935,1.429,1.429,0,0,1,1.236-.949A1.4,1.4,0,0,1,270.908-242.7Z" transform="translate(-215.306 -215.678)" fill="#fff"/>
    <path id="Path_59" data-name="Path 59" d="M41.969-231.781A25.94,25.94,0,0,0,33-229.438a12.806,12.806,0,0,0-3.213,2.144,7.254,7.254,0,0,0-2.1,3.117c-.183.534-.191.662-.191,2.71v2.152l.215.454a3,3,0,0,0,1.387,1.387l.47.231,8.841.024,8.841.016-.215-.255a10.73,10.73,0,0,1-2.575-7.4,10.456,10.456,0,0,1,2.471-6.394l.438-.526-.287-.048C46.665-231.885,42.87-231.861,41.969-231.781Z" transform="translate(0 -232.823)" fill="#fff"/>
  </g>
</svg>
